<svg width="46" height="46" viewBox="0 0 46 46" fill="none" xmlns="http://www.w3.org/2000/svg">
<path d="M33.9931 35.4347C33.6327 35.4347 33.2723 35.3146 32.9119 34.9542L30.8695 32.9118C30.2688 32.311 30.2688 31.4701 30.8695 30.8694C31.4702 30.2686 32.3112 30.2686 32.9119 30.8694L34.9543 32.9118C35.555 33.5125 35.555 34.3535 34.9543 34.9542C34.714 35.3146 34.3536 35.4347 33.9931 35.4347Z" fill="#F9C40D"/>
<path d="M23.0603 13.3286C20.5373 13.3286 18.1345 14.2897 16.2122 16.212C12.4878 19.9364 12.4878 26.0636 16.2122 29.788C18.1345 31.7102 20.5373 32.6714 23.0603 32.6714C25.5833 32.6714 27.9861 31.7102 29.9083 29.788C33.6327 26.0636 33.6327 19.9364 29.9083 16.212C27.9861 14.2897 25.4631 13.3286 23.0603 13.3286Z" fill="#F9C40D"/>
<path d="M14.0493 15.4912C13.6889 15.4912 13.3285 15.3711 12.968 15.0107L10.9256 13.0884C10.3249 12.4877 10.3249 11.6467 10.9256 11.046C11.5263 10.4453 12.3673 10.4453 12.968 11.046L15.0104 13.0884C15.6111 13.569 15.6111 14.5301 15.1306 15.1308C14.7702 15.3711 14.4097 15.4912 14.0493 15.4912Z" fill="#F9C40D"/>
<path d="M12.0069 35.4347C11.6465 35.4347 11.2861 35.3146 10.9256 34.9542C10.3249 34.3535 10.3249 33.5125 10.9256 32.9118L12.968 30.8694C13.5687 30.2686 14.4097 30.2686 15.0104 30.8694C15.6111 31.4701 15.6111 32.4312 15.1306 33.0319L13.0882 35.0743C12.7277 35.3146 12.3673 35.4347 12.0069 35.4347Z" fill="#F9C40D"/>
<path d="M31.9507 15.4912C31.5903 15.4912 31.2299 15.3711 30.8695 15.0107C30.2688 14.41 30.2688 13.569 30.8695 12.9683L32.9119 10.9259C33.5126 10.3252 34.3536 10.3252 34.9543 10.9259C35.555 11.5266 35.555 12.3676 34.9543 12.9683L32.9119 15.0107C32.6716 15.3711 32.3112 15.4912 31.9507 15.4912Z" fill="#F9C40D"/>
<path d="M23.0599 39.9999C22.2189 39.9999 21.6182 39.3992 21.6182 38.5582V35.6749C21.6182 34.8339 22.2189 34.2332 23.0599 34.2332C23.9008 34.2332 24.5016 34.8339 24.5016 35.6749V38.5582C24.5016 39.3992 23.7807 39.9999 23.0599 39.9999Z" fill="#F9C40D"/>
<path d="M23.0603 11.7668C22.2194 11.7668 21.6187 11.1661 21.6187 10.3251V7.4417C21.6187 6.60071 22.2194 6 23.0603 6C23.9013 6 24.502 6.60071 24.502 7.4417V10.3251C24.502 11.1661 23.7812 11.7668 23.0603 11.7668Z" fill="#F9C40D"/>
<path d="M10.3251 24.5018H7.4417C6.60071 24.5018 6 23.9011 6 23.0601C6 22.2191 6.60071 21.6184 7.4417 21.6184H10.3251C11.1661 21.6184 11.7668 22.2191 11.7668 23.0601C11.7668 23.781 11.1661 24.5018 10.3251 24.5018Z" fill="#F9C40D"/>
<path d="M38.5585 24.5018H35.6751C34.8341 24.5018 34.2334 23.9011 34.2334 23.0601C34.2334 22.2191 34.8341 21.6184 35.6751 21.6184H38.5585C39.3995 21.6184 40.0002 22.2191 40.0002 23.0601C40.0002 23.781 39.3995 24.5018 38.5585 24.5018Z" fill="#F9C40D"/>
</svg>
