<svg width="46" height="46" viewBox="0 0 46 46" fill="none" xmlns="http://www.w3.org/2000/svg">
<g clip-path="url(#clip0)">
<path d="M23.244 33.9999C19.8294 33.9999 16.5367 32.25 14.7074 29.25C13.244 26.875 12.6342 24.125 13.244 21.375C13.8538 18.625 15.3172 16.25 17.6342 14.75C19.4635 13.5 21.6586 12.875 23.8538 13C24.3416 13 24.8294 13.25 25.0733 13.75C25.3172 14.125 25.3172 14.75 25.1952 15.125C25.1952 15.125 23.4879 19.375 25.3172 22.125C27.1464 24.875 31.5367 25 31.6586 25C32.1464 25 32.6342 25.25 32.8781 25.625C33.122 26 33.244 26.5 33.122 27C32.3903 29.125 30.9269 31 29.0977 32.25C27.1464 33.375 25.3172 33.9999 23.244 33.9999Z" fill="#1A051D"/>
</g>
<defs>
<clipPath id="clip0">
<rect width="20" height="21" fill="white" transform="translate(13 13)"/>
</clipPath>
</defs>
</svg>
