<svg width="46" height="46" viewBox="0 0 46 46" fill="none" xmlns="http://www.w3.org/2000/svg">
<path d="M44.6665 26.8338H41.9998C41.2221 26.8338 40.6665 26.2834 40.6665 25.5128C40.6665 24.7422 41.2221 24.1918 41.9998 24.1918H44.6665C45.4443 24.1918 45.9998 24.7422 45.9998 25.5128C45.9998 26.2834 45.4443 26.8338 44.6665 26.8338Z" fill="#F9C40D"/>
<path d="M29.3333 14.3942C30.1111 14.3942 30.6667 13.8438 30.6667 13.0732V10.321C30.6667 9.55043 30.1111 9 29.3333 9C28.5556 9 28 9.55043 28 10.321V12.9631C28 13.7337 28.5556 14.3942 29.3333 14.3942Z" fill="#F9C40D"/>
<path d="M40.2218 37.6222C40.5551 37.6222 40.8885 37.5121 41.2218 37.1819C41.7773 36.6314 41.7773 35.7507 41.2218 35.3104L39.3329 33.4389C38.7773 32.8885 37.8885 32.8885 37.444 33.4389C36.8885 33.9894 36.8885 34.8701 37.444 35.3104L39.3329 37.1819C39.444 37.5121 39.7773 37.6222 40.2218 37.6222Z" fill="#F9C40D"/>
<path d="M20.3331 18.027C20.6664 18.027 20.9998 17.9169 21.3331 17.5866C21.8887 17.0362 21.8887 16.1555 21.3331 15.7152L19.4442 13.8437C18.8887 13.2933 17.9998 13.2933 17.5553 13.8437C16.9998 14.3942 16.9998 15.2748 17.5553 15.7152L19.4442 17.5866C19.6664 17.9169 19.9998 18.027 20.3331 18.027Z" fill="#F9C40D"/>
<path d="M29.3333 16.3757C26.9999 16.3757 24.7777 17.2564 23.2222 18.7976C27.3333 19.6783 30.1111 22.6506 30.4444 26.9439C33.1111 27.7145 34.5555 29.6961 34.6666 32.4482C36.8888 30.7969 38.3333 28.265 38.3333 25.2927C38.2222 20.3388 34.2222 16.3757 29.3333 16.3757Z" fill="#F9C40D"/>
<path d="M38.2221 18.027C38.5554 18.027 38.8887 17.9169 39.2221 17.5866L41.1109 15.7152C41.6665 15.1648 41.6665 14.2841 41.1109 13.8437C40.5554 13.2933 39.7776 13.2933 39.2221 13.8437L37.3332 15.7152C36.7776 16.2656 36.7776 17.1463 37.3332 17.5866C37.5554 17.9169 37.8887 18.027 38.2221 18.027Z" fill="#F9C40D"/>
<path d="M29.3333 27.7146C29.3333 23.2011 26.1111 19.5682 20.8889 19.5682C17.2222 19.5682 14.7778 21.1094 13.1111 22.8708C12.4444 22.5405 11.5556 22.3204 10.6667 22.3204C7.66667 22.3204 5.33333 24.5221 5.33333 27.2742C5.33333 27.3843 5.33333 27.3843 5.33333 27.4944C2.66667 27.7146 0 29.0356 0 33.1087C0 35.7508 2.11111 37.5122 5.22222 37.5122H28.2222C31.6667 37.5122 33.4444 35.3105 33.4444 32.5583C33.5556 30.1364 32.3333 28.265 29.3333 27.7146Z" fill="#D7DEE4"/>
</svg>
