<svg width="46" height="46" viewBox="0 0 46 46" fill="none" xmlns="http://www.w3.org/2000/svg">
<g clip-path="url(#clip0)">
<path d="M15.2001 21.8C14.8001 20.5 14.7001 19.1 15.0001 17.7C15.5001 15.5 16.7001 13.6 18.6001 12.4C20.1001 11.4 21.9001 10.9 23.7001 11C24.1001 11 24.5001 11.2 24.7001 11.6C24.9001 11.9 24.9001 12.4 24.8001 12.7C24.8001 12.7 23.4001 16.1 24.9001 18.3C25.0001 18.5 25.1001 18.6 25.3001 18.8C23.0001 19.1 21.1001 20 19.4001 21.6C18.8001 21.4 18.2001 21.3 17.5001 21.3C16.7001 21.3 15.9001 21.4 15.2001 21.8Z" fill="#1A051D"/>
<path d="M34.3 27C34.3 22.9 31.4 19.7 26.7 19.7C23.4 19.7 21.2 21.1 19.7 22.7C19.1 22.4 18.3 22.2 17.6 22.2C15 22.2 12.8 24.2 12.8 26.7C12.8 26.8 12.8 26.8 12.8 26.9C10.4 27 8 28.3 8 31.9C8 34.2 9.9 35.9 12.7 35.9H33.4C36.5 35.9 38.1 33.9 38.1 31.4C38 29.3 37 27.6 34.3 27Z" fill="#D7DEE4"/>
</g>
<defs>
<clipPath id="clip0">
<rect width="30" height="24.9" fill="white" transform="translate(8 11)"/>
</clipPath>
</defs>
</svg>
