<svg width="46" height="46" viewBox="0 0 46 46" fill="none" xmlns="http://www.w3.org/2000/svg">
<path d="M26.9466 11.2433C23.4266 11.2433 21.08 12.7366 19.48 14.4433C18.84 14.1233 17.9866 13.91 17.24 13.91C14.4666 13.91 12.12 16.0433 12.12 18.71C12.12 18.8166 12.12 18.8166 12.12 18.9233C9.55999 19.03 7 20.31 7 24.2566C7 26.71 9.02665 28.5233 12.0133 28.5233H33.9867C37.2933 28.5233 39 26.39 39 23.7233C39 21.4833 37.8267 19.67 35.0533 19.03C34.9467 14.7633 31.96 11.2433 26.9466 11.2433Z" fill="#D7DEE4"/>
<path d="M14.9998 35.4566C14.7865 35.4566 14.6798 35.4566 14.4665 35.3499C13.8265 35.0299 13.5065 34.2832 13.8265 33.6432L14.9998 30.7632C15.3198 30.1232 16.0664 29.8032 16.7064 30.1232C17.3464 30.4432 17.6665 31.1899 17.3465 31.8299L16.1731 34.7099C16.0664 35.1366 15.5331 35.4566 14.9998 35.4566Z" fill="#2D9CDB"/>
<path d="M21.9332 35.4566C21.7198 35.4566 21.6132 35.4566 21.3998 35.3499C20.7598 35.0299 20.4398 34.2832 20.7598 33.6432L21.9332 30.7632C22.2532 30.1232 22.9998 29.8032 23.6398 30.1232C24.2798 30.4432 24.5998 31.1899 24.2798 31.8299L23.1065 34.7099C22.8931 35.1366 22.4665 35.4566 21.9332 35.4566Z" fill="#2D9CDB"/>
<path d="M28.7601 35.4566C28.5467 35.4566 28.4401 35.4566 28.2267 35.3499C27.5867 35.0299 27.2667 34.2832 27.5867 33.6432L28.7601 30.7632C29.0801 30.1232 29.8267 29.8032 30.4667 30.1232C31.1067 30.4432 31.4267 31.1899 31.2134 31.8299L30.04 34.7099C29.8267 35.1366 29.2934 35.4566 28.7601 35.4566Z" fill="#2D9CDB"/>
</svg>
