<svg width="46" height="46" viewBox="0 0 46 46" fill="none" xmlns="http://www.w3.org/2000/svg">
<path d="M39.3616 22.32H37.3699C36.789 22.32 36.374 21.9089 36.374 21.3333C36.374 20.7578 36.789 20.3467 37.3699 20.3467H39.3616C39.9425 20.3467 40.3575 20.7578 40.3575 21.3333C40.3575 21.9089 39.9425 22.32 39.3616 22.32Z" fill="#F9C40D"/>
<path d="M27.9089 13.0289C28.4899 13.0289 28.9048 12.6178 28.9048 12.0422V9.98667C28.9048 9.41111 28.4899 9 27.9089 9C27.328 9 26.9131 9.41111 26.9131 9.98667V11.96C26.9131 12.5356 27.328 13.0289 27.9089 13.0289Z" fill="#F9C40D"/>
<path d="M36.0419 30.3778C36.2909 30.3778 36.5398 30.2956 36.7888 30.049C37.2038 29.6378 37.2038 28.9801 36.7888 28.6512L35.378 27.2534C34.9631 26.8423 34.2992 26.8423 33.9672 27.2534C33.5523 27.6645 33.5523 28.3223 33.9672 28.6512L35.378 30.049C35.461 30.2956 35.71 30.3778 36.0419 30.3778Z" fill="#F9C40D"/>
<path d="M21.1869 15.7422C21.4359 15.7422 21.6849 15.66 21.9338 15.4133C22.3488 15.0022 22.3488 14.3444 21.9338 14.0156L20.523 12.6178C20.1081 12.2067 19.4442 12.2067 19.1122 12.6178C18.6973 13.0289 18.6973 13.6867 19.1122 14.0156L20.523 15.4133C20.689 15.66 20.938 15.7422 21.1869 15.7422Z" fill="#F9C40D"/>
<path d="M27.9091 14.5089C26.1663 14.5089 24.5066 15.1667 23.3447 16.3178C26.4153 16.9756 28.49 19.1956 28.739 22.4022C30.7307 22.9778 31.8095 24.4578 31.8925 26.5134C33.5523 25.28 34.6311 23.3889 34.6311 21.1689C34.5481 17.4689 31.5606 14.5089 27.9091 14.5089Z" fill="#F9C40D"/>
<path d="M34.5481 15.7422C34.7971 15.7422 35.046 15.66 35.295 15.4133L36.7058 14.0156C37.1207 13.6044 37.1207 12.9467 36.7058 12.6178C36.2909 12.2067 35.7099 12.2067 35.295 12.6178L33.8842 14.0156C33.4693 14.4267 33.4693 15.0844 33.8842 15.4133C34.0502 15.66 34.2991 15.7422 34.5481 15.7422Z" fill="#F9C40D"/>
<path d="M27.9089 22.9778C27.9089 19.6066 25.5022 16.8933 21.6018 16.8933C18.8632 16.8933 17.0374 18.0444 15.7926 19.36C15.2947 19.1133 14.6308 18.9489 13.9669 18.9489C11.7262 18.9489 9.98344 20.5933 9.98344 22.6489C9.98344 22.7311 9.98344 22.7311 9.98344 22.8133C7.99172 22.9778 6 23.9644 6 27.0066C6 28.98 7.57678 30.2955 9.90045 30.2955H27.079C29.6517 30.2955 30.9795 28.6511 30.9795 26.5955C31.0625 24.7866 30.1496 23.3889 27.9089 22.9778Z" fill="#D7DEE4"/>
<path d="M11.1783 37.4566C10.9649 37.4566 10.8583 37.4566 10.6449 37.3499C10.0049 37.0299 9.68493 36.2832 10.0049 35.6432L11.1783 32.7632C11.4983 32.1232 12.2449 31.8032 12.8849 32.1232C13.5249 32.4432 13.8449 33.1899 13.5249 33.8299L12.3516 36.7099C12.2449 37.1366 11.7116 37.4566 11.1783 37.4566Z" fill="#2D9CDB"/>
<path d="M18.1116 37.4566C17.8983 37.4566 17.7916 37.4566 17.5783 37.3499C16.9383 37.0299 16.6183 36.2832 16.9383 35.6432L18.1116 32.7632C18.4316 32.1232 19.1783 31.8032 19.8183 32.1232C20.4583 32.4432 20.7783 33.1899 20.4583 33.8299L19.2849 36.7099C19.0716 37.1366 18.645 37.4566 18.1116 37.4566Z" fill="#2D9CDB"/>
<path d="M24.9385 37.4566C24.7252 37.4566 24.6185 37.4566 24.4052 37.3499C23.7652 37.0299 23.4452 36.2832 23.7652 35.6432L24.9385 32.7632C25.2585 32.1232 26.0052 31.8032 26.6452 32.1232C27.2852 32.4432 27.6052 33.1899 27.3918 33.8299L26.2185 36.7099C26.0052 37.1366 25.4719 37.4566 24.9385 37.4566Z" fill="#2D9CDB"/>
</svg>
