<svg width="46" height="46" viewBox="0 0 46 46" fill="none" xmlns="http://www.w3.org/2000/svg">
<g clip-path="url(#clip0)">
<path d="M15.2001 17.8C14.8001 16.5 14.7001 15.1 15.0001 13.7C15.5001 11.5 16.7001 9.59999 18.6001 8.39999C20.1001 7.39999 21.9001 6.89999 23.7001 6.99999C24.1001 6.99999 24.5001 7.19999 24.7001 7.59999C24.9001 7.89999 24.9001 8.39999 24.8001 8.69999C24.8001 8.69999 23.4001 12.1 24.9001 14.3C25.0001 14.5 25.1001 14.6 25.3001 14.8C23.0001 15.1 21.1001 16 19.4001 17.6C18.8001 17.4 18.2001 17.3 17.5001 17.3C16.7001 17.3 15.9001 17.4 15.2001 17.8Z" fill="#1A051D"/>
<path d="M34.3 23C34.3 18.9 31.4 15.7 26.7 15.7C23.4 15.7 21.2 17.1 19.7 18.7C19.1 18.4 18.3 18.2 17.6 18.2C15 18.2 12.8 20.2 12.8 22.7C12.8 22.8 12.8 22.8 12.8 22.9C10.4 23 8 24.3 8 27.9C8 30.2 9.9 31.9 12.7 31.9H33.4C36.5 31.9 38.1 29.9 38.1 27.4C38 25.3 37 23.6 34.3 23Z" fill="#D7DEE4"/>
</g>
<path d="M15.1783 39.4589C14.9649 39.4589 14.8583 39.4589 14.6449 39.3522C14.0049 39.0322 13.6849 38.2855 14.0049 37.6455L15.1783 34.7655C15.4983 34.1255 16.2449 33.8055 16.8849 34.1255C17.5249 34.4455 17.8449 35.1922 17.5249 35.8322L16.3516 38.7122C16.2449 39.1389 15.7116 39.4589 15.1783 39.4589Z" fill="#2D9CDB"/>
<path d="M22.1116 39.4589C21.8983 39.4589 21.7916 39.4589 21.5783 39.3522C20.9383 39.0322 20.6183 38.2855 20.9383 37.6455L22.1116 34.7655C22.4316 34.1255 23.1783 33.8055 23.8183 34.1255C24.4583 34.4455 24.7783 35.1922 24.4583 35.8322L23.2849 38.7122C23.0716 39.1389 22.645 39.4589 22.1116 39.4589Z" fill="#2D9CDB"/>
<path d="M28.9385 39.4589C28.7252 39.4589 28.6185 39.4589 28.4052 39.3522C27.7652 39.0322 27.4452 38.2855 27.7652 37.6455L28.9385 34.7655C29.2585 34.1255 30.0052 33.8055 30.6452 34.1255C31.2852 34.4455 31.6052 35.1922 31.3918 35.8322L30.2185 38.7122C30.0052 39.1389 29.4719 39.4589 28.9385 39.4589Z" fill="#2D9CDB"/>
<defs>
<clipPath id="clip0">
<rect width="30" height="24.9" fill="white" transform="translate(8 7)"/>
</clipPath>
</defs>
</svg>
