<svg width="46" height="46" viewBox="0 0 46 46" fill="none" xmlns="http://www.w3.org/2000/svg">
<g clip-path="url(#clip0)">
<path d="M22.1 25.6C22 25.5 21.9 25.4 21.8 25.4H19.4L21.6 21.4C21.7 21.3 21.7 21.2 21.6 21.1C21.5 21 21.5 21 21.3 21H17.5C17.4 21 17.3 21.1 17.2 21.2L15.2 27.9C15.2 28 15.2 28.1 15.2 28.2C15.3 28.3 15.3 28.3 15.4 28.3H17.3L15.5 34.6C15.5 34.7 15.5 34.9 15.7 34.9H15.8C15.9 34.9 16 34.9 16 34.8L21.8 25.8C22.2 25.8 22.2 25.7 22.1 25.6Z" fill="#D31030"/>
<path d="M39.1001 16.6C39.1001 13.3 36.8001 10.7 33.0001 10.7C31.1001 10.7 29.7001 11.3 28.6001 12.1C29.5001 13.3 30.1001 14.8 30.3001 16.5C32.7001 17.3 34.1001 19.1 34.1001 21.6C34.1001 22.3 34.0001 23 33.7001 23.6H38.4001C40.9001 23.6 42.1001 22 42.1001 20C42.1001 18.4 41.2001 17.1 39.1001 16.6Z" fill="#D7DEE4"/>
<path d="M29.3 17.3C29.3 13.2 26.4 10 21.7 10C18.4 10 16.2 11.4 14.7 13C14.1 12.7 13.3 12.5 12.6 12.5C10 12.5 7.8 14.5 7.8 17C7.8 17.1 7.8 17.1 7.8 17.2C5.4 17.3 3 18.6 3 22.2C3 24.5 4.9 26.2 7.7 26.2H14.9L16.5 21C16.7 20.5 17.2 20.1 17.7 20.1H21.4C21.9 20.1 22.3 20.3 22.5 20.7C22.7 21.1 22.7 21.6 22.5 22L21.1 24.5H21.7C22.2 24.5 22.6 24.8 22.8 25.2C23 25.5 23 25.9 22.9 26.3H28.2C31.3 26.3 32.9 24.3 32.9 21.8C33 19.6 32 17.9 29.3 17.3Z" fill="#D7DEE4"/>
</g>
<defs>
<clipPath id="clip0">
<rect width="39.1" height="25.1" fill="white" transform="translate(3 10)"/>
</clipPath>
</defs>
</svg>
