<svg width="46" height="46" viewBox="0 0 46 46" fill="none" xmlns="http://www.w3.org/2000/svg">
<g clip-path="url(#clip0)">
<path d="M36.5386 29.1853L32.9167 26.9095L35.5634 26.056C36.26 25.7716 36.6779 25.0603 36.3993 24.3491C36.1206 23.6379 35.4241 23.2112 34.7276 23.4957L29.852 25.0603L25.8122 22.5L29.852 20.0819L34.7276 21.6466C34.8669 21.6466 35.0062 21.6466 35.1455 21.6466C35.7027 21.6466 36.26 21.2198 36.3993 20.6509C36.6779 19.9397 36.26 19.0862 35.5634 18.944L32.9167 18.0905L36.5386 15.9569C37.2351 15.5302 37.3744 14.6767 36.9565 13.9655C36.5386 13.2543 35.7027 13.1121 35.0062 13.5388L31.3843 15.8147L31.8022 12.9698C31.9415 12.2586 31.3843 11.5474 30.6878 11.4052C29.9913 11.2629 29.2948 11.8319 29.1555 12.5431L28.3197 17.806L24.4192 20.2241V15.3879L28.3197 11.9741C28.8769 11.4052 29.0162 10.5517 28.459 9.98276C27.9017 9.41379 27.0659 9.27155 26.5087 9.84052L24.5585 11.6897V7.42241C24.5585 6.71121 24.0012 6 23.1654 6C22.4689 6 21.7724 6.56897 21.7724 7.42241V11.6897L19.6828 9.84052C19.1256 9.27155 18.2898 9.41379 17.7326 9.98276C17.1754 10.5517 17.3147 11.4052 17.8719 11.9741L21.7724 15.3879V19.9397L17.8719 17.6638L17.0361 12.4009C16.8968 11.6897 16.2002 11.1207 15.5037 11.2629C14.6679 11.4052 14.25 12.1164 14.25 12.8276L14.6679 15.6724L11.1853 13.5388C10.4888 13.1121 9.65299 13.2543 9.23507 13.9655C8.95647 14.6767 9.09577 15.5302 9.79229 15.9569L13.4142 18.2328L10.6281 18.944C9.93159 19.2284 9.51368 19.9397 9.79229 20.6509C9.93159 21.2198 10.4888 21.6466 11.046 21.6466C11.1853 21.6466 11.3246 21.6466 11.4639 21.6466L16.3396 20.0819L20.3794 22.5L16.3396 24.9181L11.4639 23.3534C10.7674 23.069 9.93159 23.4957 9.79229 24.2069C9.51368 24.9181 9.93159 25.7716 10.6281 25.9138L13.2749 26.7672L9.65299 29.0431C8.95647 29.4698 8.81716 30.3233 9.23507 31.0345C9.51368 31.4612 9.93159 31.7457 10.3495 31.7457C10.6281 31.7457 10.7674 31.7457 11.046 31.6034L14.6679 29.3276L14.25 32.1724C14.1107 32.8836 14.6679 33.5948 15.3644 33.7371C15.5037 33.7371 15.5037 33.7371 15.643 33.7371C16.3396 33.7371 16.8968 33.3103 17.0361 32.5991L17.8719 27.3362L21.7724 24.9181V29.4698L17.8719 33.0259C17.3147 33.5948 17.1754 34.4483 17.7326 35.0172C18.0112 35.3017 18.4291 35.444 18.847 35.444C19.1256 35.444 19.5435 35.3017 19.6828 35.1595L21.7724 33.3103V37.5776C21.7724 38.2888 22.3296 39 23.1654 39C23.8619 39 24.5585 38.431 24.5585 37.5776V33.3103L26.648 35.1595C26.9266 35.444 27.2052 35.444 27.4838 35.444C27.9017 35.444 28.3197 35.3017 28.459 35.0172C29.0162 34.4483 28.8769 33.5948 28.3197 33.0259L24.4192 29.6121V25.0603L28.3197 27.4784L29.1555 32.7414C29.2948 33.4526 29.852 33.8793 30.5485 33.8793C30.6878 33.8793 30.6878 33.8793 30.8271 33.8793C31.5236 33.7371 32.0808 33.0259 31.9415 32.3147L31.5236 29.4698L35.1455 31.7457C35.4241 31.8879 35.5634 31.8879 35.842 31.8879C36.26 31.8879 36.8172 31.6034 36.9565 31.1767C37.3744 30.3233 37.0958 29.4698 36.5386 29.1853Z" fill="#65C9D7"/>
</g>
<defs>
<clipPath id="clip0">
<rect width="28" height="33" fill="white" transform="translate(9 6)"/>
</clipPath>
</defs>
</svg>
