<svg width="46" height="46" viewBox="0 0 46 46" fill="none" xmlns="http://www.w3.org/2000/svg">
<path d="M38.182 18.6361H13.2492C12.4803 18.6361 11.9312 18.0869 11.9312 17.318C11.9312 16.5492 12.4803 16 13.2492 16H38.182C38.9508 16 39.5 16.5492 39.5 17.318C39.5 18.0869 38.9508 18.6361 38.182 18.6361Z" fill="#65C9D7"/>
<path d="M32.2508 24.2722H7.31803C6.54918 24.2722 6 23.723 6 22.9541C6 22.1853 6.54918 21.6361 7.31803 21.6361H32.2508C33.0197 21.6361 33.5689 22.1853 33.5689 22.9541C33.5689 23.723 33.0197 24.2722 32.2508 24.2722Z" fill="#65C9D7"/>
<path d="M29.2853 29.9083H13.2492C12.4803 29.9083 11.9312 29.3591 11.9312 28.5902C11.9312 27.8214 12.4803 27.2722 13.2492 27.2722H29.1754C29.9443 27.2722 30.4934 27.8214 30.4934 28.5902C30.6033 29.3591 29.9443 29.9083 29.2853 29.9083Z" fill="#65C9D7"/>
</svg>
