<svg width="46" height="46" viewBox="0 0 46 46" fill="none" xmlns="http://www.w3.org/2000/svg">
<path d="M33 26.7C33 29.2 31.4 31.2 28.3 31.2H7.70001C4.80001 31.2 3 29.6 3 27.2C3 23.5 5.40002 22.3 7.80002 22.2C7.80002 22.1 7.80002 22.1 7.80002 22C7.80002 19.5 9.90001 17.5 12.6 17.5C13.4 17.5 14.1 17.7 14.7 18C16.2 16.4 18.4 15 21.7 15C26.4 15 29.3 18.3 29.3 22.3C32 22.9 33 24.6 33 26.7Z" fill="#D7DEE4"/>
<path d="M39.1001 21.6C39.1001 18.3 36.8001 15.7 33.0001 15.7C31.1001 15.7 29.7001 16.3 28.6001 17.1C29.5001 18.3 30.1001 19.8 30.3001 21.5C32.7001 22.3 34.1001 24.1 34.1001 26.6C34.1001 27.3 34.0001 28 33.7001 28.6H38.4001C40.9001 28.6 42.1001 27 42.1001 25C42.1001 23.4 41.2001 22.1 39.1001 21.6Z" fill="#D7DEE4"/>
</svg>
