<svg width="110" height="45" viewBox="0 0 110 45" fill="none" xmlns="http://www.w3.org/2000/svg">
<g clip-path="url(#clip0)">
<path d="M55.5234 11.4905C55.3068 11.4905 54.9097 11.4544 54.6209 11.4184L53.5739 14.0131C53.0324 15.3826 52.2021 15.5988 51.6606 15.5988C50.722 15.5988 50.2166 14.9501 50.2166 14.2654C50.2166 13.5446 50.7942 12.896 51.6606 12.968V13.6888C51.083 13.6528 50.9386 14.0131 50.9386 14.2654C50.9386 14.6258 51.2274 14.8781 51.5884 14.8781C52.166 14.8781 52.527 14.3735 52.888 13.5086L53.8267 11.2382C53.1046 11.0941 52.3465 10.9139 51.9133 10.9139C51.444 10.9139 51.2635 11.1301 51.2635 11.3824C51.2635 11.6346 51.4801 11.7788 51.6967 11.7788C51.9494 11.7788 52.1299 11.5986 52.1299 11.5986L52.4909 12.1392C52.4909 12.1392 52.2021 12.4635 51.6606 12.4635C51.083 12.4635 50.5776 12.0671 50.5776 11.3824C50.5776 10.8058 50.9747 10.1931 51.9855 10.1931C52.9602 10.1931 54.5126 10.7697 55.5234 10.7697C56.0649 10.7697 56.2454 10.5895 56.2454 10.5895L56.7147 10.8418C56.6786 10.8418 56.5703 11.4905 55.5234 11.4905Z" fill="#399F37"/>
<path d="M58.0504 13.905C57.5811 14.7338 56.9674 15.4546 56.3176 15.4546C55.9927 15.4546 55.7039 15.3104 55.6678 14.914C55.379 15.2384 55.0901 15.4546 54.693 15.4546C54.1876 15.4546 53.7905 15.0582 54.2598 13.941L54.9818 12.2112H55.8483L55.054 14.1572C54.8013 14.7699 54.9096 14.878 55.0179 14.878C55.3068 14.878 55.5956 14.4095 55.9205 13.8689L56.5703 12.2472H57.4367L56.6425 14.1933C56.3898 14.842 56.462 14.9861 56.6064 14.9861C56.8591 14.9861 57.2923 14.4816 57.7255 13.7608C57.8699 13.6887 58.0143 13.7969 58.0504 13.905Z" fill="#399F37"/>
<path d="M57.7617 13.6888C57.9061 13.4366 58.0866 13.0762 58.2671 12.6798C58.1588 12.5717 58.0866 12.4635 58.0866 12.2834C58.0866 11.959 58.4115 11.6707 58.6642 11.5986L59.0253 11.8149L58.8086 12.3194C59.0614 12.5356 59.7112 12.86 59.7112 13.2924C59.7112 13.3645 59.6751 13.4726 59.639 13.6168L59.4224 14.1213C59.1336 14.806 59.278 14.9141 59.3863 14.9141C59.5668 14.9141 59.8917 14.5177 60.361 13.6888C60.4693 13.6888 60.6498 13.7969 60.6859 13.9051C60.2166 14.7339 59.7473 15.4547 59.0975 15.4547C58.6281 15.4547 58.1949 15.0943 58.6281 14.0132L58.8448 13.5086C58.8809 13.4005 58.917 13.3285 58.917 13.2924C58.917 13.1843 58.7726 13.0762 58.592 12.896C58.4476 13.2564 58.2671 13.5807 58.0866 13.9051C57.9422 13.9051 57.7978 13.7969 57.7617 13.6888Z" fill="#399F37"/>
<path d="M62.4548 13.9049C61.9855 14.7338 61.3718 15.4546 60.7219 15.4546C60.1804 15.4546 59.8194 15.0582 60.2526 13.941L60.9746 12.2112H61.8411L61.0469 14.1572C60.758 14.8419 60.8663 14.95 61.0107 14.95C61.2635 14.95 61.7328 14.4815 62.166 13.7248C62.2743 13.6887 62.4187 13.7968 62.4548 13.9049ZM61.2274 11.4183C61.2274 11.1661 61.444 10.9498 61.6967 10.9498C61.9494 10.9498 62.2021 11.1661 62.2021 11.4183C62.2021 11.6706 61.9855 11.9229 61.6967 11.9229C61.444 11.8868 61.2274 11.6706 61.2274 11.4183Z" fill="#399F37"/>
<path d="M62.1299 13.6888C62.3826 13.2563 62.7797 12.4995 62.9963 11.995L63.7184 12.2112C63.5378 13.0761 63.6822 14.0492 63.6822 14.4095C63.6822 14.5897 63.6823 14.6978 63.6462 14.806C63.9711 14.5897 64.2599 14.1933 64.5487 13.6888C64.657 13.6888 64.8375 13.7969 64.8736 13.905C64.4404 14.6978 63.8628 15.4546 62.8519 15.4546C62.166 15.4546 61.8772 15.0582 61.8772 15.0222L62.3465 14.7339C62.4187 14.806 62.4909 14.842 62.5992 14.842C62.8158 14.842 62.9241 14.6978 62.9241 14.0852C62.9241 13.7969 62.888 13.4005 62.9241 13.0401C62.7797 13.3644 62.5992 13.6888 62.4548 13.905C62.3465 13.905 62.166 13.7969 62.1299 13.6888Z" fill="#399F37"/>
<path d="M69.9638 13.905C69.4584 14.7699 68.9168 15.4547 68.1948 15.4547C67.6172 15.4547 67.3284 15.0222 67.7616 13.905L67.906 13.5446C68.0143 13.2563 68.1226 13.0041 68.1226 12.932C68.1226 12.8599 68.0504 12.7878 67.9421 12.7878C67.7977 12.7878 67.5089 12.932 67.2201 13.2203L66.3537 15.3465H65.4872C65.6317 15.0222 66.0649 13.905 66.2093 13.5446C66.3176 13.2563 66.4259 13.0041 66.4259 12.932C66.4259 12.8599 66.3537 12.8239 66.2815 12.8239C66.1371 12.8239 65.8483 12.968 65.5595 13.2563L64.693 15.3826H63.8988L65.1984 12.2112H66.0649L65.9205 12.5356C66.0288 12.4275 66.462 12.1392 66.8591 12.1392C67.2201 12.1392 67.4006 12.3554 67.4006 12.6437C67.6172 12.4275 68.0504 12.1392 68.4836 12.1392C68.8446 12.1392 69.0613 12.3194 69.0613 12.6437C69.0613 12.8239 68.9891 13.0401 68.8807 13.3645L68.5558 14.1573C68.267 14.878 68.4114 14.9501 68.5197 14.9501C68.7724 14.9501 69.2418 14.4816 69.675 13.7248C69.7472 13.6888 69.9277 13.7969 69.9638 13.905Z" fill="#399F37"/>
<path d="M73.3213 13.9051C72.9603 14.4817 72.4187 14.9141 71.805 14.806C71.5162 15.1664 71.083 15.4187 70.5776 15.4187C69.9278 15.4187 69.5306 15.0223 69.5306 14.3375C69.5306 13.5447 70.1444 12.0671 71.3718 12.0671C72.0216 12.0671 72.4187 12.4636 72.4187 13.1122C72.4187 13.4726 72.3104 13.9411 72.0938 14.3375C72.4187 14.3375 72.7437 14.1213 73.0325 13.6168C73.1047 13.6888 73.2852 13.797 73.3213 13.9051ZM71.0469 14.5177C70.9747 14.4456 70.9386 14.3375 70.9386 14.1934C70.9386 13.9411 71.1552 13.7249 71.444 13.7609C71.5523 13.4726 71.6245 13.1843 71.6245 13.0041C71.6245 12.7519 71.5162 12.6798 71.3718 12.6798C70.8664 12.6798 70.361 14.0492 70.361 14.5538C70.361 14.77 70.4693 14.9141 70.6137 14.9141C70.722 14.8781 70.9025 14.7339 71.0469 14.5177Z" fill="#399F37"/>
<path d="M78.3392 13.905C77.8699 14.7339 77.2923 15.4547 76.5703 15.4547C75.9566 15.4547 75.9205 14.9501 75.9205 14.9501C75.9205 14.9501 75.5234 15.4547 74.9819 15.4547C74.5486 15.4547 74.332 15.0943 74.332 14.6979C74.332 14.0131 74.9097 12.1031 75.9927 12.1031C76.5342 12.1031 76.6786 12.6077 76.6786 12.6077L77.3284 10.986H78.1948L76.9313 14.1573C76.6425 14.842 76.7508 14.9501 76.8952 14.9501C77.1479 14.9501 77.6172 14.4816 78.0504 13.7248C78.1587 13.6888 78.3031 13.7969 78.3392 13.905ZM75.9927 14.2654L76.4259 13.1843C76.4259 13.1843 76.4259 12.8239 76.1371 12.8239C75.6317 12.8239 75.1263 14.0852 75.1263 14.5177C75.1263 14.6979 75.1985 14.7339 75.3429 14.7339C75.7039 14.7699 75.9927 14.2654 75.9927 14.2654Z" fill="#399F37"/>
<path d="M81.2996 13.905C80.8664 14.6258 80.1444 15.4547 79.0252 15.4547C78.2671 15.4547 77.87 15.0583 77.87 14.4096C77.87 13.5807 78.5198 12.1031 79.7473 12.1031C80.3971 12.1031 80.9025 12.5716 80.5054 13.4005C80.2527 13.9771 79.7112 14.2654 78.7003 14.1573C78.7003 14.1573 78.4837 14.8781 79.2418 14.8781C79.8556 14.8781 80.5054 14.4096 80.9747 13.6528C81.1191 13.6888 81.2635 13.7969 81.2996 13.905ZM78.8808 13.7249C79.4584 13.833 79.6751 13.5447 79.7834 13.2203C79.8917 12.9681 79.9278 12.7879 79.7112 12.7879C79.2418 12.7879 78.8808 13.7249 78.8808 13.7249Z" fill="#399F37"/>
<path d="M54.4765 24.9686C54.4765 24.8244 54.4043 24.6803 54.2238 24.6082C54.0433 24.5001 53.8267 24.428 53.574 24.3199C53.3213 24.2118 53.0325 24.1397 52.7075 24.0316C52.3826 23.9235 52.0938 23.7793 51.8411 23.6352C51.5884 23.491 51.3357 23.2748 51.1913 23.0225C51.0108 22.7703 50.9386 22.482 50.9386 22.0855C50.9386 21.5089 51.1552 21.0404 51.5884 20.6801C52.0216 20.3557 52.5992 20.1755 53.3574 20.1755C53.7545 20.1755 54.0794 20.2116 54.4043 20.2837C54.7292 20.3557 55.018 20.4638 55.2707 20.644C55.5234 20.7882 55.7039 21.0044 55.8483 21.2567C55.9927 21.5089 56.0649 21.7972 56.0649 22.1216C56.0649 22.1937 56.0288 22.2657 55.9927 22.3378C55.9566 22.4099 55.8483 22.4099 55.7761 22.4099H54.7292C54.6209 22.4099 54.5487 22.3739 54.5126 22.3018C54.4765 22.2297 54.4043 22.1576 54.4043 22.0855C54.3321 21.8693 54.2238 21.7612 54.0433 21.6891C53.8628 21.6531 53.6462 21.6171 53.3935 21.6171C53.1408 21.6171 52.9602 21.6531 52.8519 21.7252C52.7436 21.7972 52.6714 21.9054 52.6714 22.0495C52.6714 22.1937 52.7436 22.3018 52.9242 22.4099C53.1047 22.518 53.3213 22.5901 53.574 22.6982C53.8267 22.8063 54.1155 22.8784 54.4404 23.0225C54.7653 23.1306 55.0541 23.2748 55.3068 23.455C55.5595 23.6352 55.7761 23.8154 55.9566 24.0676C56.1371 24.3199 56.2093 24.6082 56.2093 24.9325C56.2093 25.2569 56.1371 25.5452 55.9927 25.7975C55.8483 26.0497 55.6678 26.266 55.4512 26.4101C55.2346 26.5903 54.9458 26.6984 54.6209 26.7705C54.296 26.8426 53.9711 26.8786 53.574 26.8786C53.1769 26.8786 52.8519 26.8426 52.527 26.7705C52.2021 26.6984 51.9133 26.5543 51.6967 26.4101C51.444 26.2299 51.2635 26.0497 51.1552 25.7975C51.0108 25.5452 50.9386 25.2569 50.9386 24.9325C50.9386 24.8605 50.9747 24.7884 51.0108 24.7163C51.083 24.6442 51.1552 24.6442 51.2274 24.6442H52.2743C52.3826 24.6442 52.4548 24.6803 52.4909 24.7524C52.527 24.8244 52.5992 24.8965 52.5992 24.9686C52.6714 25.1848 52.7797 25.329 52.9964 25.365C53.1769 25.4371 53.3935 25.4731 53.574 25.4731C53.6823 25.4731 53.7906 25.4731 53.8989 25.4731C54.0072 25.4731 54.1155 25.4371 54.1877 25.401C54.2599 25.365 54.3321 25.329 54.4043 25.2569C54.4404 25.1488 54.4765 25.0767 54.4765 24.9686Z" fill="#8DBE22"/>
<path d="M62.9242 26.4462C62.9242 26.5183 62.8881 26.5903 62.852 26.6624C62.8159 26.7345 62.7437 26.7705 62.6715 26.7705H61.6607C61.5523 26.7705 61.4801 26.7345 61.4079 26.6624C61.3357 26.5903 61.2996 26.5183 61.2996 26.4462L61.1191 25.9416H59.0253L58.8448 26.4462C58.8087 26.5183 58.7726 26.5903 58.7365 26.6624C58.6643 26.7345 58.5921 26.7705 58.4838 26.7705H57.4729C57.4007 26.7705 57.3285 26.7345 57.2924 26.6624C57.2563 26.5903 57.2202 26.5183 57.2202 26.4462L58.9531 20.608C58.9892 20.536 59.0253 20.4639 59.0614 20.3918C59.0975 20.3197 59.2058 20.2837 59.3141 20.2837H60.8664C60.9747 20.2837 61.083 20.3197 61.1191 20.3918C61.1552 20.4639 61.1913 20.536 61.2274 20.608L62.9242 26.4462ZM62.13 18.7701C62.13 18.8422 62.13 18.8782 62.0939 18.9503C62.0578 19.0224 62.0217 19.0584 61.9856 19.0584C61.8051 19.2025 61.6246 19.3467 61.4079 19.4188C61.1913 19.5269 60.9747 19.5629 60.722 19.5629C60.5776 19.5629 60.4693 19.5269 60.361 19.4909C60.2527 19.4548 60.1444 19.3827 60.0361 19.3467C59.9278 19.2746 59.8195 19.2386 59.6751 19.2025C59.5668 19.1665 59.4224 19.1305 59.3141 19.1305C59.2058 19.1305 59.0975 19.1305 59.0253 19.1665C58.9531 19.2025 58.8448 19.2386 58.7726 19.3107C58.7365 19.3107 58.7004 19.3467 58.7004 19.3467C58.6643 19.3467 58.6643 19.3467 58.6282 19.3467C58.5199 19.3467 58.4477 19.3107 58.3754 19.2025L58.0505 18.3737C58.0505 18.3376 58.0505 18.3016 58.0505 18.3016C58.0505 18.2656 58.0505 18.2656 58.0505 18.2295C58.0505 18.1214 58.0866 18.0493 58.1588 18.0133C58.3394 17.8691 58.5199 17.761 58.7004 17.689C58.8809 17.5808 59.0975 17.5448 59.3141 17.5448C59.4585 17.5448 59.6029 17.5808 59.7473 17.6169C59.8917 17.6529 60 17.725 60.1083 17.761C60.2166 17.8331 60.3249 17.8691 60.4332 17.9052C60.5415 17.9412 60.6498 17.9773 60.7581 17.9773C60.9025 17.9773 61.0108 17.9773 61.083 17.9412C61.1913 17.9052 61.2635 17.8691 61.3718 17.761C61.4079 17.725 61.444 17.725 61.444 17.725H61.4801C61.5523 17.725 61.5884 17.725 61.6245 17.761C61.6606 17.7971 61.6968 17.8331 61.7329 17.8691L62.13 18.7701ZM60.6859 24.392L60.1083 22.4099L59.5307 24.392H60.6859Z" fill="#8DBE22"/>
<path d="M67.0397 26.8426C66.5704 26.8426 66.1372 26.7705 65.7401 26.5903C65.379 26.4101 65.0541 26.1939 64.8014 25.9056C64.5487 25.6173 64.3321 25.2569 64.2238 24.8605C64.0794 24.4641 64.0072 24.0316 64.0072 23.5271C64.0072 23.0586 64.0794 22.5901 64.2238 22.1937C64.3682 21.7973 64.5487 21.4369 64.8014 21.1126C65.0541 20.8242 65.379 20.572 65.7401 20.3918C66.1011 20.2116 66.5343 20.1395 67.0397 20.1395C67.509 20.1395 67.9422 20.2116 68.3393 20.3918C68.7003 20.572 69.0252 20.7882 69.2779 21.1126C69.5307 21.4009 69.7473 21.7612 69.8556 22.1937C70 22.5901 70.0722 23.0586 70.0722 23.5271C70.0722 23.9956 70 24.4641 69.8556 24.8605C69.7112 25.2569 69.5307 25.6173 69.2779 25.9056C69.0252 26.1939 68.7003 26.4101 68.3393 26.5903C67.9783 26.7705 67.5451 26.8426 67.0397 26.8426ZM67.0397 25.329C67.2924 25.329 67.509 25.293 67.6534 25.1848C67.8339 25.0767 67.9783 24.9686 68.0866 24.8245C68.1949 24.6803 68.2671 24.4641 68.3032 24.2478C68.3393 24.0316 68.3754 23.8154 68.3754 23.5631C68.3754 23.3109 68.3393 23.0946 68.3032 22.8424C68.2671 22.6261 68.1588 22.4099 68.0866 22.2658C67.9783 22.0856 67.8339 21.9414 67.6534 21.8693C67.4729 21.7612 67.2563 21.7252 67.0397 21.7252C66.787 21.7252 66.5704 21.7612 66.426 21.8693C66.2455 21.9775 66.1011 22.1216 65.9928 22.2658C65.8845 22.446 65.8123 22.6261 65.7401 22.8424C65.704 23.0586 65.6678 23.3109 65.6678 23.5631C65.6678 23.8154 65.704 24.0316 65.7401 24.2478C65.7762 24.4641 65.8845 24.6443 65.9928 24.8245C66.1011 24.9686 66.2455 25.1128 66.426 25.1848C66.6065 25.293 66.787 25.329 67.0397 25.329Z" fill="#8DBE22"/>
<path d="M78.592 20.3918C78.6642 20.4639 78.7003 20.536 78.7003 20.608V21.5811C78.7003 21.6892 78.6642 21.7612 78.592 21.7973C78.5198 21.8333 78.4476 21.8694 78.3754 21.8694H77.0397V26.4462C77.0397 26.5183 77.0036 26.5903 76.9675 26.6624C76.9314 26.7345 76.8592 26.7705 76.7508 26.7705H75.6678C75.5956 26.7705 75.5234 26.7345 75.4512 26.6624C75.379 26.5903 75.3429 26.5183 75.3429 26.4462V21.8694H74.0072C73.935 21.8694 73.8628 21.8333 73.7906 21.7973C73.7183 21.7612 73.6823 21.6892 73.6823 21.5811V20.608C73.6823 20.536 73.7183 20.4639 73.7906 20.3918C73.8628 20.3197 73.935 20.2837 74.0072 20.2837H78.3754C78.4476 20.2837 78.5198 20.3197 78.592 20.3918Z" fill="#8DBE22"/>
<path d="M82.6353 26.8426C82.166 26.8426 81.7327 26.7705 81.3356 26.5903C80.9746 26.4101 80.6497 26.1939 80.397 25.9056C80.1443 25.6173 79.9277 25.2569 79.8194 24.8605C79.675 24.4641 79.6028 24.0316 79.6028 23.5271C79.6028 23.0586 79.675 22.5901 79.8194 22.1937C79.9638 21.7973 80.1443 21.4369 80.397 21.1126C80.6497 20.8242 80.9746 20.572 81.3356 20.3918C81.6966 20.2116 82.1299 20.1395 82.6353 20.1395C83.1046 20.1395 83.5378 20.2116 83.9349 20.3918C84.2959 20.572 84.6208 20.7882 84.8735 21.1126C85.1262 21.4009 85.3429 21.7612 85.4512 22.1937C85.5956 22.5901 85.6678 23.0586 85.6678 23.5271C85.6678 23.9956 85.5956 24.4641 85.4512 24.8605C85.3067 25.2569 85.1262 25.6173 84.8735 25.9056C84.6208 26.1939 84.2959 26.4101 83.9349 26.5903C83.5378 26.7705 83.1046 26.8426 82.6353 26.8426ZM82.6353 25.329C82.888 25.329 83.1046 25.293 83.249 25.1848C83.4295 25.0767 83.5739 24.9686 83.6822 24.8245C83.7905 24.6803 83.8627 24.4641 83.8988 24.2478C83.9349 24.0316 83.971 23.8154 83.971 23.5631C83.971 23.3109 83.9349 23.0946 83.8988 22.8424C83.8627 22.6261 83.7544 22.4099 83.6822 22.2658C83.5739 22.0856 83.4295 21.9414 83.249 21.8693C83.0685 21.7612 82.8519 21.7252 82.6353 21.7252C82.3826 21.7252 82.166 21.7612 82.0216 21.8693C81.841 21.9775 81.6966 22.1216 81.5883 22.2658C81.48 22.446 81.4078 22.6261 81.3356 22.8424C81.2995 23.0586 81.2634 23.3109 81.2634 23.5631C81.2634 23.8154 81.2995 24.0316 81.3356 24.2478C81.3717 24.4641 81.48 24.6443 81.5883 24.8245C81.6966 24.9686 81.841 25.1128 82.0216 25.1848C82.166 25.293 82.3826 25.329 82.6353 25.329Z" fill="#8DBE22"/>
<path d="M90.5054 25.5452C90.3971 25.5452 90.3249 25.5092 90.2527 25.4371L89.0252 23.5271V26.4822C89.0252 26.5543 88.9891 26.6264 88.953 26.6984C88.9169 26.7705 88.8447 26.8066 88.7364 26.8066H87.6534C87.5812 26.8066 87.509 26.7705 87.4368 26.6984C87.3646 26.6264 87.3285 26.5543 87.3285 26.4822V20.608C87.3285 20.536 87.3646 20.4639 87.4368 20.3918C87.509 20.3197 87.5812 20.2837 87.6534 20.2837H88.7003C88.7364 20.2837 88.8086 20.2837 88.8447 20.3197C88.9169 20.3558 88.953 20.3918 88.953 20.4278C88.9891 20.4639 89.0613 20.572 89.2058 20.7882C89.3141 20.9684 89.4585 21.2207 89.6751 21.545C89.8917 21.8694 90.1805 22.3379 90.5776 22.9505C90.9386 22.3379 91.2274 21.8694 91.444 21.545C91.6606 21.2207 91.805 20.9684 91.9133 20.7882C92.0577 20.608 92.1299 20.4639 92.166 20.4278C92.2021 20.3918 92.2382 20.3197 92.2743 20.3197C92.3465 20.2837 92.3826 20.2837 92.4187 20.2837H93.4657C93.5379 20.2837 93.6101 20.3197 93.6823 20.3918C93.7545 20.4639 93.7906 20.536 93.7906 20.608V26.4462C93.7906 26.5183 93.7545 26.5903 93.6823 26.6624C93.6101 26.7345 93.5379 26.7705 93.4657 26.7705H92.3826C92.2743 26.7705 92.2021 26.7345 92.166 26.6624C92.1299 26.5903 92.0938 26.5183 92.0938 26.4462V23.4911L90.8664 25.4011C90.8303 25.4732 90.722 25.5092 90.6137 25.5092H90.5054V25.5452Z" fill="#8DBE22"/>
<path d="M100.505 20.2837C100.578 20.2837 100.65 20.3198 100.722 20.3558C100.794 20.3918 100.83 20.4639 100.83 20.572V21.5451C100.83 21.6171 100.794 21.6892 100.722 21.7613C100.65 21.8334 100.578 21.8694 100.505 21.8694H97.7617V22.7703H99.7112C99.7834 22.7703 99.8556 22.8064 99.9278 22.8785C100 22.9505 100.036 23.0226 100.036 23.0947V23.9956C100.036 24.1037 100 24.1758 99.9278 24.2119C99.8556 24.2479 99.7834 24.2839 99.7112 24.2839H97.7617V25.1849H100.505C100.578 25.1849 100.65 25.2209 100.722 25.293C100.794 25.3651 100.83 25.4371 100.83 25.5092V26.4823C100.83 26.5904 100.794 26.6624 100.722 26.6985C100.65 26.7345 100.578 26.7706 100.505 26.7706H96.3899C96.3177 26.7706 96.2455 26.7345 96.1733 26.6624C96.1011 26.5904 96.1011 26.5183 96.1011 26.4462V20.572C96.1011 20.5 96.1372 20.4279 96.1733 20.3558C96.2455 20.2837 96.3177 20.2477 96.3899 20.2477H100.505V20.2837ZM99.5307 17.653C99.6029 17.653 99.6751 17.689 99.7473 17.7611C99.8195 17.8331 99.8195 17.9052 99.8195 17.9773L99.3141 19.2747C99.278 19.3467 99.2419 19.4188 99.1336 19.4909C99.0614 19.563 98.9531 19.599 98.8809 19.599H97.9422C97.8339 19.599 97.7617 19.563 97.7256 19.4909C97.6895 19.4188 97.6534 19.3467 97.6534 19.2747L98.1588 17.9773C98.1949 17.9052 98.231 17.8331 98.3032 17.7611C98.3754 17.689 98.4476 17.653 98.5559 17.653H99.5307Z" fill="#8DBE22"/>
<path d="M109.711 20.2837C109.783 20.2837 109.856 20.3198 109.928 20.3558C110 20.3918 110.036 20.4639 110.036 20.572V21.545C110.036 21.6171 110 21.6892 109.928 21.7613C109.856 21.8334 109.783 21.8694 109.711 21.8694H106.968V22.7703H108.917C108.989 22.7703 109.061 22.8064 109.134 22.8785C109.206 22.9505 109.242 23.0226 109.242 23.0947V23.9956C109.242 24.1037 109.206 24.1758 109.134 24.2119C109.061 24.2479 108.989 24.2839 108.917 24.2839H106.968V25.1849H109.711C109.783 25.1849 109.856 25.2209 109.928 25.293C110 25.3651 110.036 25.4371 110.036 25.5092V26.4822C110.036 26.5904 110 26.6624 109.928 26.6985C109.856 26.7345 109.783 26.7706 109.711 26.7706H105.596C105.523 26.7706 105.451 26.7345 105.379 26.6624C105.307 26.5904 105.307 26.5183 105.307 26.4462V20.572C105.307 20.4999 105.343 20.4279 105.379 20.3558C105.451 20.2837 105.523 20.2477 105.596 20.2477H109.711V20.2837Z" fill="#8DBE22"/>
<path d="M53.6101 31.0951C54.0794 31.0951 54.5126 31.1672 54.8736 31.3113C55.2346 31.4555 55.5234 31.6357 55.74 31.8519C55.9566 32.0681 56.1371 32.3204 56.2454 32.6087C56.3537 32.897 56.4259 33.1853 56.4259 33.5096V33.6178C56.4259 33.9421 56.3537 34.2304 56.2454 34.5187C56.1371 34.807 55.9566 35.0593 55.74 35.3115C55.5234 35.5278 55.2346 35.708 54.8736 35.8521C54.5126 35.9963 54.1155 36.0683 53.6101 36.0683H52.9963V37.2936C52.9963 37.3657 52.9602 37.4378 52.9241 37.5099C52.888 37.5819 52.8158 37.618 52.7075 37.618H51.6245C51.5523 37.618 51.4801 37.5819 51.4079 37.5099C51.3357 37.4378 51.3357 37.3657 51.3357 37.2936V31.4194C51.3357 31.3474 51.3718 31.2753 51.4079 31.2032C51.4801 31.1311 51.5523 31.0951 51.6245 31.0951H53.6101ZM52.9963 32.6447V34.5547H53.6101C53.8628 34.5547 54.0433 34.5187 54.2238 34.4827C54.3682 34.4466 54.4765 34.3745 54.5487 34.2664C54.6209 34.1944 54.6931 34.0862 54.6931 33.9781C54.7292 33.87 54.7292 33.7619 54.7292 33.6538V33.5457C54.7292 33.4376 54.7292 33.3294 54.6931 33.2213C54.657 33.1132 54.6209 33.0051 54.5487 32.933C54.4765 32.861 54.3682 32.7889 54.2238 32.7168C54.0794 32.6808 53.8628 32.6447 53.6101 32.6447H52.9963Z" fill="#8DBE22"/>
<path d="M60.1444 31.0951C60.6137 31.0951 61.0469 31.1672 61.4079 31.3113C61.7689 31.4555 62.0578 31.6357 62.2744 31.8519C62.491 32.0681 62.6715 32.3204 62.7798 32.6087C62.8881 32.897 62.9603 33.1853 62.9603 33.5096V33.6178C62.9603 34.0142 62.8881 34.4106 62.7076 34.771C62.5271 35.1313 62.2383 35.4197 61.8772 35.6359L62.6354 37.2576C62.6354 37.3297 62.5993 37.4017 62.5271 37.4738C62.4549 37.5459 62.3827 37.5819 62.3105 37.5819H61.2635C61.1913 37.5819 61.1191 37.5459 61.0469 37.4738C61.0108 37.4017 60.9386 37.3297 60.9025 37.2576L60.3249 36.0323H59.5668V37.2576C59.5668 37.3297 59.5307 37.4017 59.4946 37.4738C59.4585 37.5459 59.3863 37.5819 59.278 37.5819H58.1949C58.1227 37.5819 58.0505 37.5459 57.9783 37.4738C57.9061 37.4017 57.9061 37.3297 57.9061 37.2576V31.4194C57.9061 31.3474 57.9422 31.2753 57.9783 31.2032C58.0505 31.1311 58.1227 31.0951 58.1949 31.0951H60.1444ZM59.5668 32.6447V34.5547H60.1805C60.4332 34.5547 60.6137 34.5187 60.7942 34.4827C60.9386 34.4466 61.0469 34.3746 61.1191 34.2664C61.1913 34.1944 61.2635 34.0862 61.2635 33.9781C61.2996 33.87 61.2996 33.7619 61.2996 33.6538V33.5457C61.2996 33.4376 61.2996 33.3294 61.2635 33.2213C61.2274 33.1132 61.1913 33.0051 61.1191 32.933C61.0469 32.861 60.9386 32.7889 60.7942 32.7168C60.6498 32.6808 60.4332 32.6447 60.1805 32.6447H59.5668Z" fill="#8DBE22"/>
<path d="M66.0288 31.0951C66.101 31.0951 66.1732 31.1311 66.2454 31.2032C66.3176 31.2753 66.3176 31.3474 66.3176 31.4194V37.2576C66.3176 37.3297 66.2815 37.4017 66.2454 37.4738C66.1732 37.5459 66.101 37.5819 66.0288 37.5819H64.9458C64.8375 37.5819 64.7653 37.5459 64.7292 37.4738C64.6931 37.4017 64.657 37.3297 64.657 37.2576V31.4194C64.657 31.3474 64.6931 31.2753 64.7292 31.2032C64.7653 31.1311 64.8375 31.0951 64.9458 31.0951H66.0288ZM66.6064 28.5004C66.6786 28.5004 66.7509 28.5364 66.8231 28.6085C66.8953 28.6806 66.8953 28.7526 66.8953 28.8247L66.3898 30.1221C66.3537 30.1941 66.3176 30.2662 66.2093 30.3383C66.1371 30.4104 66.0288 30.4464 65.9566 30.4464H65.018C64.9097 30.4464 64.8375 30.4104 64.8014 30.3383C64.7653 30.2662 64.7292 30.1941 64.7292 30.1221L65.2346 28.8247C65.2707 28.7526 65.3068 28.6806 65.379 28.6085C65.4512 28.5364 65.5234 28.5004 65.6317 28.5004H66.6064Z" fill="#8DBE22"/>
<path d="M73.7545 31.2032C73.8267 31.2753 73.8628 31.3474 73.8628 31.4195V37.2576C73.8628 37.3297 73.8267 37.4018 73.7545 37.4738C73.6823 37.5459 73.6101 37.582 73.5379 37.582H72.527C72.4909 37.582 72.4187 37.582 72.3826 37.5459C72.3465 37.5099 72.2743 37.4738 72.2382 37.4378L70.2527 34.3385V37.2936C70.2527 37.3657 70.2166 37.4378 70.1805 37.5099C70.1444 37.582 70.0722 37.618 69.9639 37.618H68.8808C68.8086 37.618 68.7364 37.582 68.6642 37.5099C68.592 37.4378 68.5559 37.3657 68.5559 37.2936V31.4195C68.5559 31.3474 68.592 31.2753 68.6642 31.2032C68.7364 31.1312 68.8086 31.0951 68.8808 31.0951H69.9278C69.9639 31.0951 70.0361 31.0951 70.0722 31.1312C70.1444 31.1672 70.1805 31.2032 70.1805 31.2393C70.2166 31.2753 70.2888 31.3834 70.4332 31.6357C70.5054 31.7438 70.5776 31.8519 70.6498 31.9961C70.7581 32.1402 70.8664 32.3204 71.0108 32.5366C71.1552 32.7529 71.2996 33.0051 71.4801 33.2934C71.6606 33.5817 71.8772 33.9061 72.0938 34.3025V31.3834C72.0938 31.3113 72.1299 31.2393 72.166 31.1672C72.2021 31.0951 72.2743 31.0591 72.3826 31.0591H73.4657C73.6462 31.0951 73.7184 31.1312 73.7545 31.2032Z" fill="#8DBE22"/>
<path d="M78.4837 32.4285C78.2309 32.4285 78.0143 32.5005 77.8699 32.6086C77.6894 32.7168 77.545 32.8609 77.4367 33.0411C77.3284 33.2213 77.2562 33.4375 77.184 33.6537C77.1479 33.87 77.1118 34.1222 77.1118 34.3745C77.1118 34.6268 77.1479 34.879 77.184 35.0953C77.2201 35.3115 77.3284 35.5277 77.4367 35.6719C77.545 35.8521 77.6894 35.9602 77.8699 36.0683C78.0504 36.1764 78.2671 36.2124 78.4837 36.2124C78.7364 36.2124 78.9891 36.1404 79.2418 36.0322C79.4945 35.9241 79.675 35.7079 79.8555 35.4196C79.9277 35.3115 79.9999 35.2755 80.1443 35.2755C80.1804 35.2755 80.2526 35.2755 80.2887 35.3115L81.0107 35.6719C81.119 35.7439 81.1551 35.816 81.1551 35.9602C81.1551 35.9962 81.1551 36.0683 81.119 36.1043C80.8663 36.5728 80.5414 36.9692 80.1082 37.2575C79.675 37.5458 79.0974 37.69 78.4837 37.69C78.0143 37.69 77.5811 37.6179 77.184 37.4377C76.823 37.2575 76.4981 37.0413 76.2454 36.753C75.9927 36.4647 75.7761 36.1043 75.6678 35.7079C75.5234 35.3115 75.4512 34.879 75.4512 34.3745C75.4512 33.906 75.5234 33.4375 75.6678 33.0411C75.8122 32.6447 75.9927 32.2843 76.2454 31.96C76.4981 31.6717 76.823 31.4194 77.184 31.2392C77.545 31.059 77.9782 30.9869 78.4837 30.9869C79.1335 30.9869 79.675 31.1311 80.1082 31.4194C80.5414 31.7077 80.9024 32.0681 81.119 32.5726C81.1551 32.6086 81.1551 32.6807 81.1551 32.7168C81.1551 32.8249 81.119 32.933 81.0107 33.0051L80.2887 33.3654C80.2526 33.4015 80.1804 33.4015 80.1443 33.4015C79.9999 33.4015 79.9277 33.3654 79.8555 33.2573C79.675 32.969 79.4584 32.7528 79.2418 32.6447C78.9891 32.5005 78.7364 32.4285 78.4837 32.4285Z" fill="#8DBE22"/>
<path d="M84.3682 31.2032C84.4043 31.2753 84.4404 31.3474 84.4404 31.4194V37.2576C84.4404 37.3297 84.4043 37.4017 84.3682 37.4738C84.3321 37.5459 84.2599 37.5819 84.1516 37.5819H83.0686C82.9964 37.5819 82.9242 37.5459 82.852 37.4738C82.7798 37.4017 82.7798 37.3297 82.7798 37.2576V31.4194C82.7798 31.3474 82.8159 31.2753 82.852 31.2032C82.9242 31.1311 82.9964 31.0951 83.0686 31.0951H84.1516C84.2599 31.0951 84.3321 31.1311 84.3682 31.2032Z" fill="#8DBE22"/>
<path d="M88.9891 31.0951C89.4584 31.0951 89.8916 31.1672 90.2526 31.3113C90.6136 31.4555 90.9024 31.6357 91.1191 31.8519C91.3357 32.0681 91.5162 32.3204 91.6245 32.6087C91.7328 32.897 91.805 33.1853 91.805 33.5096V33.6178C91.805 33.9421 91.7328 34.2304 91.6245 34.5187C91.5162 34.807 91.3357 35.0593 91.1191 35.3115C90.9024 35.5278 90.6136 35.708 90.2526 35.8521C89.8916 35.9963 89.4945 36.0683 88.9891 36.0683H88.3754V37.2936C88.3754 37.3657 88.3393 37.4378 88.3032 37.5099C88.2671 37.5819 88.1949 37.618 88.0866 37.618H87.0035C86.9313 37.618 86.8591 37.5819 86.7869 37.5099C86.7147 37.4378 86.7147 37.3657 86.7147 37.2936V31.4194C86.7147 31.3474 86.7508 31.2753 86.7869 31.2032C86.8591 31.1311 86.9313 31.0951 87.0035 31.0951H88.9891ZM88.3754 32.6447V34.5547H88.9891C89.2418 34.5547 89.4223 34.5187 89.6028 34.4827C89.7472 34.4466 89.8555 34.3745 89.9277 34.2664C89.9999 34.1944 90.0721 34.0862 90.0721 33.9781C90.1082 33.87 90.1082 33.7619 90.1082 33.6538V33.5457C90.1082 33.4376 90.1082 33.3294 90.0721 33.2213C90.036 33.1132 89.9999 33.0051 89.9277 32.933C89.8555 32.861 89.7472 32.7889 89.6028 32.7168C89.4584 32.6808 89.2418 32.6447 88.9891 32.6447H88.3754Z" fill="#8DBE22"/>
<path d="M97.6895 31.0951C97.7617 31.0951 97.8339 31.1312 97.9061 31.1672C97.9783 31.2032 98.0144 31.2753 98.0144 31.3834V32.3564C98.0144 32.4285 97.9783 32.5006 97.9061 32.5727C97.8339 32.6448 97.7617 32.6808 97.6895 32.6808H94.9458V33.5817H96.8953C96.9675 33.5817 97.0397 33.6178 97.1119 33.6899C97.1841 33.7619 97.2202 33.834 97.2202 33.9061V34.807C97.2202 34.9151 97.1841 34.9872 97.1119 35.0233C97.0397 35.0593 96.9675 35.0953 96.8953 35.0953H94.9458V35.9963H97.6895C97.7617 35.9963 97.8339 36.0323 97.9061 36.1044C97.9783 36.1765 98.0144 36.2485 98.0144 36.3206V37.2937C98.0144 37.4018 97.9783 37.4738 97.9061 37.5099C97.8339 37.5459 97.7617 37.582 97.6895 37.582H93.574C93.5018 37.582 93.4296 37.5459 93.3574 37.4738C93.2852 37.4018 93.2852 37.3297 93.2852 37.2576V31.3834C93.2852 31.3113 93.3213 31.2393 93.3574 31.1672C93.4296 31.0951 93.5018 31.0591 93.574 31.0591H97.6895V31.0951Z" fill="#8DBE22"/>
<path d="M10.7581 29.4365C10.7581 29.4365 10.9025 29.4365 11.083 29.4365C11.6968 29.4365 12.9964 29.6167 13.574 30.7339C14.3682 32.2115 13.3213 34.0854 13.3213 34.0854C13.3213 34.0854 12.3466 34.4098 11.6968 33.9052C11.4079 33.7251 11.1913 33.3647 11.1552 32.7881C11.1191 32.5358 11.083 32.2115 11.0469 31.815C10.9025 30.7699 10.7581 29.4365 10.7581 29.4365ZM24.0794 23.5624C25.5596 22.3731 24.2599 20.4991 24.2599 20.4991C24.2599 20.4991 22.9603 20.8235 22.0217 22.1929C21.083 23.5624 22.8159 25.3282 22.8159 25.3282C22.8159 25.3282 23.3574 24.175 24.0794 23.5624ZM23.5379 18.8053C23.7545 19.9225 25.4152 20.355 26.6426 20.4631C26.9314 20.4991 26.9314 20.391 27.1841 20.391C27.3285 20.391 27.5451 20.4991 27.6534 20.4991C27.9422 20.4991 28.1227 20.427 28.1227 20.427C28.3393 20.2829 27.6173 19.2018 27.1119 17.8684C26.9675 17.4719 26.5704 16.8593 26.3899 16.4629C26.2094 16.1385 26.1733 16.1746 25.9206 15.9223C25.704 15.7061 25.704 15.4898 25.4513 15.3457C24.8375 14.9493 23.935 14.6249 23.6823 14.5168C23.574 14.4808 23.5018 14.6249 23.4657 14.9493C23.4296 15.1655 23.3935 15.4538 23.3935 15.7782C23.3935 15.8863 23.5018 16.0665 23.4657 16.2106C23.4657 16.3548 23.3574 16.4629 23.3574 16.6431C23.3213 17.2917 23.3935 18.0485 23.5379 18.8053ZM23.9711 2.76845C23.8989 1.43504 22.7798 0.245791 22.6715 0.209753C22.5632 0.173715 21.6245 1.1107 21.6606 1.18278C21.7329 1.29089 21.444 1.47108 21.444 1.65127C21.444 1.83146 21.1913 2.33599 21.1913 2.76845C21.1191 4.57035 22.7076 6.48036 22.7076 6.48036C22.7076 6.48036 22.852 6.26413 23.0325 5.90375C23.0686 5.83168 23.1047 5.65149 23.1769 5.61545C23.2491 5.57941 23.2491 5.43526 23.3213 5.36318C23.6462 4.49827 24.0072 3.48921 23.9711 2.76845ZM32.4188 40.7525C32.5993 40.9687 32.852 41.1489 33.1047 41.293C34.1516 41.8696 35.5596 41.9057 35.5596 41.9057C35.5596 41.9057 35.9567 41.221 36.065 40.32C36.1372 39.7074 36.065 39.0226 35.6679 38.41C35.343 37.9055 34.8014 37.509 34.2238 37.2207C32.9964 36.5721 31.5523 36.4279 31.5523 36.4279C31.5523 36.4279 31.5523 36.9685 31.5884 37.6892C31.6245 38.1577 31.6968 38.6623 31.769 39.1668C31.9134 39.8515 32.13 40.3921 32.4188 40.7525ZM42.2383 18.8774C42.3105 18.8414 42.3827 18.8053 42.4188 18.7693C42.8881 18.517 43.2852 18.0125 43.574 17.544C43.7906 17.1836 43.935 16.8593 44.0433 16.607C44.1516 16.3548 44.1155 16.1746 44.1155 16.1746C44.1155 16.1746 43.5379 15.4178 42.6715 15.0214C42.5993 14.9853 42.5632 15.0214 42.491 14.9853C42.0217 14.8051 41.5162 14.7331 40.9747 14.8772C40.722 14.9493 40.5054 15.0574 40.2527 15.2015C39.6029 15.634 39.0614 16.2827 38.6643 16.9314C38.5921 17.0395 38.5921 17.2197 38.5199 17.3278C38.4477 17.4359 38.3393 17.508 38.3032 17.6161C38.1227 18.0485 38.1227 18.4089 38.1227 18.4089C38.1227 18.4089 38.3393 18.5531 38.8087 18.6972C38.9531 18.7333 39.0975 18.6972 39.2419 18.7693C39.3502 18.8053 39.4224 18.8053 39.5307 18.8414C40.4693 18.9855 41.5884 19.1657 42.2383 18.8774ZM35.5957 6.84074C36.2455 5.83168 35.8845 4.35412 35.8845 4.35412C35.8845 4.35412 34.4765 4.20997 33.5379 5.39922C33.4657 5.4713 33.3213 5.54337 33.2852 5.61545C33.2491 5.68752 33.2491 5.93979 33.213 6.01187C33.1408 6.19206 32.9964 6.15602 32.9242 6.30017C32.7437 6.73262 32.6715 7.20112 32.5993 7.63357C32.5271 8.35433 32.6715 8.67867 32.6715 8.67867C32.6715 8.67867 32.6354 8.85886 32.7437 8.82283C33.0325 8.67867 33.6462 8.39037 34.2238 7.99395C34.5487 7.77773 34.8375 7.70565 35.0903 7.45338C35.1625 7.38131 35.2347 7.16508 35.3069 7.093C35.3791 7.05697 35.5596 6.87678 35.5957 6.84074ZM12.0217 5.21903C11.5884 4.78657 11.0108 4.49827 10.5415 4.28204C10.3249 4.20997 10.1444 4.13789 10 4.10185C9.81949 4.02978 9.67509 4.02978 9.67509 4.02978C9.67509 4.02978 9.63899 4.10185 9.60289 4.20997C9.53069 4.4262 9.42238 4.89469 9.45848 5.43526C9.45848 5.4713 9.45848 5.50733 9.45848 5.57941C9.45848 5.61545 9.45848 5.68752 9.49458 5.72356C9.56679 6.0479 9.67509 6.40828 9.8917 6.73262C10.0361 6.94885 10.1805 7.12904 10.361 7.30923C10.4332 7.38131 10.5054 7.45338 10.5776 7.48942C11.0108 7.8498 11.4801 8.02999 11.8412 8.24622C11.9856 8.35433 12.0217 8.35433 12.0939 8.35433C12.2744 8.31829 12.3105 8.42641 12.3827 8.46245C12.491 8.49848 12.5271 8.57056 12.5632 8.49848C12.5993 8.46245 12.5993 8.28226 12.6354 7.88584C12.6354 7.8498 12.6715 7.77772 12.7076 7.70565C12.7437 7.20112 12.6715 6.55243 12.491 5.97583C12.3827 5.68752 12.2383 5.43526 12.0217 5.21903ZM2.67148 27.5626C1.29964 28.0671 1.01083 29.9411 1.01083 29.9411C1.01083 29.9411 1.80505 31.1303 3.03249 30.7699C3.213 30.7339 3.3935 30.6258 3.57401 30.5177C3.82671 30.3375 4.07942 30.1573 4.33213 29.9771C4.54874 29.7969 4.76534 29.6167 4.98195 29.4365C5.09025 29.3284 5.19856 29.2924 5.30686 29.1843C5.34296 29.1482 5.41516 29.0762 5.45126 29.0401C5.81227 28.7158 6.13718 28.4275 6.38989 28.2112C6.7148 27.9229 6.787 27.8148 6.787 27.8148C6.787 27.8148 6.8231 27.7067 6.6787 27.7067C6.35379 27.6346 5.70397 27.5265 5.01805 27.4905C4.65704 27.4544 4.22383 27.4184 3.86282 27.4184C3.79061 27.4184 3.75451 27.4545 3.71841 27.4545C3.3213 27.4184 2.96029 27.4545 2.67148 27.5626ZM21.8051 44.5725C22.2383 44.7887 22.7437 44.8247 23.213 44.7887C23.4657 44.7527 23.6823 44.6806 23.8628 44.6446C24.0433 44.6085 24.1155 44.6446 24.1155 44.6446C24.1155 44.6446 24.1877 44.3923 24.1155 44.0319C24.0433 43.6355 23.8628 43.131 23.4657 42.7345C23.3574 42.6264 23.2491 42.5544 23.1047 42.4462C22.5632 42.0859 21.8412 41.9777 21.2274 41.9777C21.1191 41.9777 21.0108 42.0498 20.9025 42.0498C20.7942 42.0498 20.6859 42.0498 20.5776 42.0498C20.1444 42.0859 19.8556 42.1579 19.8556 42.1579C19.8556 42.1579 19.8917 42.23 19.9639 42.3381C20.0361 42.4823 20.1444 42.6625 20.2888 42.8787C20.5776 43.3472 20.9386 43.9238 21.3718 44.2842C21.5162 44.3923 21.6607 44.5004 21.8051 44.5725ZM3.1769 11.5617C2.85199 11.8861 2.70758 12.3906 2.63538 12.787C2.59928 12.8951 2.56318 13.0393 2.59928 13.1113C2.59928 13.1834 2.59928 13.2555 2.59928 13.3276C2.59928 13.4357 2.59928 13.5078 2.59928 13.5078C2.59928 13.5078 2.74368 13.5078 2.92419 13.5078C3.2852 13.5078 4.25993 13.3276 4.40433 13.1474C4.54874 12.9672 4.98195 12.787 5.27076 12.5347C5.52347 12.2464 5.66787 11.9581 5.77617 11.6338C5.77617 11.5977 5.84838 11.6338 5.81227 11.5257C5.77617 11.4176 5.88448 11.2374 5.88448 11.0932C5.92058 10.877 5.92058 10.6968 5.92058 10.5526C5.92058 10.2643 5.95668 10.1562 5.88448 10.1202C5.77617 10.0842 5.55957 10.1923 5.48736 10.2643C5.45126 10.3725 5.34296 10.3364 5.27076 10.3725C5.01805 10.4806 4.47653 10.6247 4.36823 10.8049C4.18773 10.9851 3.3935 11.3094 3.1769 11.5617ZM9.9639 39.5992C9.8556 39.2389 9.49459 38.0496 8.88087 37.6172C8.73646 37.509 8.70036 37.437 8.55596 37.4009C8.41155 37.3288 8.15884 37.2928 8.01444 37.2928C7.47292 37.1847 7.00361 37.2568 7.00361 37.2568C7.00361 37.2568 6.96751 37.5451 7.03971 37.9415C7.07581 38.0856 7.18412 38.3379 7.25632 38.5181C7.29242 38.5902 7.25632 38.6623 7.32852 38.7343C7.50902 38.9145 7.58123 39.0226 7.72563 39.1668C8.01444 39.4191 8.33935 39.5632 8.66426 39.6713C8.77256 39.7074 8.77256 39.6713 8.98917 39.7434C9.42238 39.8875 9.81949 39.8515 9.9639 39.8155C9.9639 39.7074 10 39.6713 9.9639 39.5992ZM17.7617 23.4542C17.7256 23.8867 17.6895 24.8597 17.9061 25.8327C17.9422 26.049 18.0505 26.4094 18.1227 26.6256C18.1949 26.8058 18.3032 26.7697 18.3755 26.9139C18.8448 27.7788 19.639 28.4275 21.1552 28.1392C21.3718 28.1031 21.8412 27.995 22.0578 27.9229C22.3827 27.8148 22.2744 27.6346 22.6715 27.4545C22.6715 27.4545 22.8159 27.3463 22.6715 27.022C22.3827 26.4454 21.8051 25.5084 20.8303 24.6795C20.4693 24.3912 20.1444 23.9948 19.7112 23.7425C19.5307 23.6344 19.278 23.6705 19.1336 23.6344C18.7726 23.4903 18.3393 23.3461 17.9061 23.274C17.87 23.238 17.7978 23.3101 17.7617 23.4542ZM28.8809 22.6614C28.5199 22.6974 28.1949 22.6974 27.9061 22.7695C26.6065 22.9497 25.0903 23.4542 25.0181 23.8146C24.9458 24.175 24.5487 24.175 24.3321 24.4633C24.296 24.8237 23.9711 24.9318 23.8628 25.1841C23.2852 26.3373 23.574 27.1301 23.5379 27.3463C23.5018 27.5626 23.935 27.5986 24.1516 27.6707C24.4765 27.7788 24.8014 27.8148 25.0903 27.8509C25.5596 27.8869 25.9567 27.8148 26.2816 27.7067C27.509 27.2743 28.1588 26.049 28.4838 24.8958C28.7004 24.211 28.7726 23.5624 28.8087 23.1659C28.8809 22.8056 28.8809 22.6614 28.8809 22.6614ZM30.4693 9.3634C30.2166 9.32736 29.7112 9.36339 29.2058 9.50755C28.7726 9.61566 28.3032 9.79585 27.9061 10.0842C27.6895 10.2643 27.509 10.4445 27.3646 10.6968C27.3285 10.7328 27.3285 10.8049 27.2924 10.841C27.0758 11.2374 26.6426 11.9942 26.6065 12.787C26.6065 13.0032 26.4982 13.0393 26.4982 13.2195C26.4621 13.4717 26.4621 13.724 26.4982 14.0123C26.5343 14.5889 26.6787 15.1655 26.9675 15.8142C27.0397 15.9583 27.1119 16.1025 27.1841 16.2466C27.3285 16.4629 27.4729 16.7151 27.6534 16.9674C28.1588 17.6882 28.8809 18.4089 29.8556 19.1297C30 19.2378 30.361 19.3819 30.4332 19.1657C30.5054 18.9135 30.6859 18.5531 30.7581 18.1206C30.8303 17.7963 30.6859 17.508 30.7942 17.1116C30.8664 16.7872 31.083 16.3908 31.1552 16.0665C31.2274 15.8142 31.2635 15.5619 31.3357 15.3097C31.3718 15.1655 31.4801 15.0574 31.5162 14.9132C31.5884 14.6249 31.5162 14.3727 31.5884 14.0123C31.6245 13.7961 31.769 13.6519 31.8051 13.3996C31.8412 13.2195 31.8773 12.8591 31.8773 12.6789C32.0217 11.0932 31.8773 9.50755 30.4693 9.3634ZM31.444 21.4722C32.852 24.139 34.1516 22.1569 34.1516 22.1569C33.3213 21.4001 32.7798 20.7874 32.3466 20.1748C31.9495 19.6342 31.6607 19.0576 31.3718 18.3368C31.3718 18.3368 31.1552 19.0936 31.1552 19.9225C31.1191 20.4631 31.1913 21.0037 31.444 21.4722ZM36.787 20.6072C36.6787 20.4991 36.8231 20.2829 36.7148 20.1748C36.0289 19.5261 35.3069 18.9495 34.8014 18.3729C34.6931 18.2648 34.5848 18.3368 34.5126 18.2287C34.1516 17.8323 33.8267 17.3638 33.5379 17.0034C32.9603 16.2827 32.491 15.634 32.0939 15.0214C32.0939 15.0214 31.8412 15.9944 31.8773 17.0395C31.9134 17.7242 32.2744 18.6612 32.3827 18.9855C32.491 19.2738 33.213 20.0667 33.6101 20.391C33.935 20.6433 34.2599 20.9676 34.5487 21.0757C34.7292 21.1478 34.9097 21.0037 35.0903 21.0037C35.6318 21.1118 36.1372 21.1478 36.4621 21.0037C36.8592 20.8595 36.787 20.6072 36.787 20.6072ZM24.9819 8.24622C25.0903 8.21018 25.1625 8.21018 25.2347 8.17414C25.4152 8.1381 25.5596 8.10207 25.7401 8.06603C26.1011 7.99395 26.426 8.1381 26.7148 8.1381C26.8953 8.1381 27.0036 8.10207 27.148 8.1381C27.2202 8.1381 27.2563 8.06603 27.2924 8.06603C27.3285 7.88584 27.4007 7.77773 27.4007 7.59754C27.4368 7.02093 27.3285 6.33621 27.1841 5.7596C27.148 5.65149 27.1119 5.61545 27.0758 5.50733C27.0758 5.50733 27.0036 5.4713 26.8592 5.50733C26.7509 5.54337 26.6787 5.54337 26.5343 5.61545C26.3899 5.68752 26.2094 5.83168 26.0289 5.97583C25.6318 6.26413 25.2708 6.69659 25.0903 7.34527C25.0542 7.48942 25.018 7.66961 24.9819 7.8498C24.9819 7.92188 24.9458 7.99395 24.9458 8.06603C24.9097 8.1381 24.9819 8.17414 24.9819 8.24622ZM30.7581 8.67867C30.6498 8.67867 30.5415 8.78679 30.4332 8.78679C29.9639 8.82283 29.5307 8.8949 29.1336 9.03905C28.7365 9.14717 28.4477 9.32736 28.1949 9.47151C28.1588 9.47151 28.0505 9.47151 28.0144 9.47151C27.8339 9.57962 27.6895 9.6517 27.5812 9.72377C27.509 9.75981 27.5451 9.72377 27.509 9.72377C27.509 9.68774 27.509 9.57962 27.5451 9.47151C27.5812 9.25528 27.6173 9.00302 27.6534 8.82283C27.87 7.45338 27.87 6.40828 27.6173 5.65149C27.5812 5.57941 27.6534 5.54337 27.6173 5.4713C27.7256 5.4713 27.7617 5.4713 27.87 5.4713C28.8809 5.57941 29.5307 6.0479 29.9639 6.58847C30.0722 6.73262 30.2527 6.91281 30.3249 7.093C30.4693 7.38131 30.5054 7.63357 30.5776 7.88584C30.7581 8.35433 30.7581 8.67867 30.7581 8.67867ZM29.0975 6.55243C28.9892 6.40828 28.7726 6.33621 28.6282 6.44432C28.4838 6.55243 28.4116 6.76866 28.5199 6.91281C28.6282 7.05697 28.8448 7.12904 28.9892 7.02093C29.1697 6.91281 29.2058 6.69659 29.0975 6.55243ZM21.9134 7.74169C21.6968 7.34527 21.0469 6.62451 20.722 6.26413C20.6137 6.11998 20.4332 6.15602 20.4332 6.15602L20.2166 6.01187L19.3141 6.0479H18.3032H15.5235H13.8628H13.4657C13.4657 6.0479 13.3935 6.19205 13.4296 6.30017C13.4657 6.37224 13.4657 6.5164 13.5018 6.62451C13.6101 7.093 13.5379 7.52546 13.5018 7.92188C13.5018 8.06603 13.6101 8.35433 13.574 8.49848C13.5018 8.82283 13.3574 8.96698 13.2852 9.25528C13.2491 9.43547 13.1769 9.61566 13.1408 9.79585L14.8375 9.86793C14.8375 9.86793 14.9458 9.72377 15.4513 9.83189C15.9567 9.90396 17.5451 9.86793 17.5451 9.86793L19.278 9.90396C19.278 9.90396 19.8195 9.94 20.2166 9.90396C20.5776 9.90396 22.6715 10.0842 22.852 9.94C22.852 9.94 22.7437 9.43547 22.4549 8.78679C22.3105 8.39037 22.0939 8.06603 21.9134 7.74169ZM19.6029 22.7335C20.0361 22.9137 20.6137 23.202 20.9025 23.3101C21.0108 23.3461 21.0108 23.1659 21.0108 23.1659C21.0108 23.1659 21.0469 23.0939 21.0469 22.6974C21.0469 22.0848 21.0469 21.2559 20.9747 20.8235C20.9386 20.4631 20.5415 19.6703 19.4224 19.5982C19.0614 19.5982 18.7726 19.5982 18.5199 19.6703C18.0144 19.8144 17.7617 20.2469 17.6895 21.1118C17.6895 21.364 17.6895 21.7244 17.7256 21.9406C17.7256 22.0848 17.87 22.1929 17.87 22.1929C17.87 22.1929 18.9892 22.4812 19.6029 22.7335ZM9.24188 19.6342C8.12274 19.5621 7.43682 20.1027 7.25632 22.7335C7.22022 23.1659 7.29242 23.5263 7.32852 23.9588C7.36462 24.2471 7.47292 24.5354 7.47292 24.5354L8.05054 24.6435L10.9386 24.4633C10.9386 24.4633 11.0469 22.3731 10.9747 21.1118C10.9025 20.5352 10.361 19.7423 9.24188 19.6342ZM33.935 25.9769C33.7545 25.7607 33.7906 25.5084 33.574 25.2201C33.1408 24.6795 32.4188 24.175 31.9495 23.5263C31.8412 23.3461 31.8412 22.9857 31.6968 22.8416C31.444 22.5173 31.083 22.1929 30.8303 21.8686C30.1083 20.9316 29.5668 20.1027 29.2058 19.5982C29.1336 19.4901 28.9892 19.5261 28.9531 19.454C28.8809 19.3459 28.7726 19.5982 28.9892 20.1027C29.2058 20.5712 29.2419 20.7874 29.3863 21.328C29.5668 21.9767 29.7834 22.6974 30.0361 23.4903C30.3249 24.4273 30.6498 25.4003 31.0108 26.3733C31.2274 26.9499 31.3718 27.4905 31.4801 27.995C31.7328 29.0762 31.8051 30.0131 31.8051 30.7339C31.8051 30.9862 31.9134 31.1664 31.9134 31.3826C31.9134 31.5628 31.769 31.743 31.769 31.8511C31.7329 32.2115 31.7329 32.3556 31.8051 32.3196C31.9134 32.2475 32.0939 32.1033 32.3466 31.9232C32.852 31.5267 33.5379 30.9141 34.0433 30.1573C34.1155 30.0492 34.1877 29.869 34.2599 29.7248C34.3321 29.6167 34.4765 29.5447 34.5126 29.4365C34.9458 28.4635 34.9458 27.2382 33.935 25.9769ZM36.8231 12.3185L37.0036 12.5347C37.0036 12.5347 37.1119 12.6068 37.148 12.6428C37.1841 12.7149 37.3646 12.6068 37.3646 12.6068C37.3646 12.6068 37.4729 12.5347 37.6895 12.2464C37.9061 11.9942 38.1227 11.6338 38.3393 11.2013C38.4477 10.9851 38.5199 10.841 38.5921 10.5887C38.5921 10.5526 38.6643 10.4085 38.6643 10.4085C38.6643 10.3364 38.6282 10.2643 38.6643 10.1923C38.7004 10.0481 38.7004 9.90396 38.7004 9.79585C38.6643 9.14717 38.5199 8.49848 38.3393 7.95791C38.0866 7.23716 37.8339 6.69659 37.8339 6.69659L36.6065 7.95791C36.6065 7.95791 36.787 8.1381 36.9314 8.53452C37.0758 8.8949 37.2563 9.39943 37.2563 10.1202C37.2563 10.4806 37.148 11.0932 37.1841 11.2374C37.2202 11.4176 37.1119 11.4896 37.0758 11.6338C36.9675 12.0662 36.8231 12.3185 36.8231 12.3185ZM29.8556 40.2479C29.8556 40.2119 29.9639 40.0677 30.0722 39.8515C30.3249 39.4551 30.6859 38.9145 30.7581 38.8064C30.9386 38.5902 31.083 38.2658 31.083 38.0496C31.083 37.8334 30.8303 37.7973 30.7942 37.5811C30.7581 37.3288 30.5415 36.8243 30.4332 36.8243C30.3249 36.8243 29.5307 38.2658 29.5307 38.2658C29.5307 38.2658 29.0975 38.9866 29.0975 39.1307C29.0975 39.2749 28.9531 39.2749 28.9531 39.4191C28.9531 39.5632 28.4477 40.3921 28.4477 40.3921C28.4477 40.3921 29.0975 40.4642 29.3141 40.4281C29.5307 40.356 29.7834 40.5002 29.8556 40.2479ZM35.0903 35.3107C35.2347 35.4188 35.8484 35.2026 35.8484 35.2026C35.8484 35.2026 37.5451 34.9864 37.7256 34.9143C37.9061 34.8422 38.0866 34.9143 38.1227 34.8422C38.1588 34.7702 38.1227 34.4819 38.0505 34.3017C37.9783 34.1215 37.9422 33.5449 37.9422 33.5449L37.5451 33.6169C37.5451 33.6169 34.657 34.1215 34.5126 34.1936C34.3321 34.2656 34.9458 35.2026 35.0903 35.3107ZM29.278 41.0768C28.7365 41.1128 27.9783 41.3291 27.2563 41.5813C27.0036 41.6534 26.7148 41.7615 26.4621 41.8336C26.1733 41.9417 26.1733 41.9777 25.9567 42.0859C25.704 42.194 25.2708 42.3381 25.1625 42.4102C25.0903 42.4462 25.0181 42.5544 25.0181 42.5544L24.9458 43.2751L24.9819 43.5634C24.9819 43.5634 25.0542 43.6715 25.1986 43.5995C25.343 43.5274 25.4874 43.4193 25.7401 43.3112C26.1011 43.131 26.5704 42.9508 27.0397 42.7706C27.6534 42.5544 28.3032 42.3381 28.8809 42.2661C29.0614 42.23 29.3141 42.2661 29.4946 42.2661C29.6029 42.2661 29.6029 42.23 29.7112 42.23C29.8917 42.2661 30.0722 42.3021 30.2527 42.3381C31.1191 42.5544 31.6245 42.9147 31.6245 42.9147L31.8412 42.8787L32.9603 42.3742L32.9964 42.3021C32.9964 42.3021 33.1047 42.23 32.9603 42.1579C32.8159 42.0859 32.5271 41.9777 32.2744 41.8336C31.9856 41.6894 31.6968 41.5453 31.3357 41.4011C30.6137 41.257 29.8917 41.0408 29.278 41.0768ZM5.81227 19.7063L4.47653 19.6703C4.47653 19.6703 5.45126 22.0127 5.48736 24.2831C5.48736 24.7156 5.45126 25.112 5.41516 25.5084C5.37906 25.7607 5.30686 26.0129 5.19856 26.2652C5.09025 26.5535 6.6426 26.6616 6.7148 26.3012C6.89531 25.148 6.93141 23.1299 6.6426 21.7244C6.6426 21.6523 6.42599 21.6884 6.38989 21.6163C6.35379 21.4001 6.42599 21.1478 6.38989 20.9676C6.17329 20.1027 5.81227 19.7063 5.81227 19.7063ZM5.01805 23.5984L5.05415 23.4542L4.94585 22.5173L4.87365 22.301C4.87365 22.301 4.83754 22.1929 4.69314 22.0848C4.51264 21.9046 4.18773 21.5442 3.89892 20.8595C3.79061 20.6072 3.64621 20.427 3.61011 20.2108C3.57401 20.0306 3.53791 19.9946 3.5018 19.8865C3.3213 19.3459 3.2491 18.9855 3.2491 18.8053C3.2491 18.6972 3.213 18.6972 3.213 18.6972L3.14079 18.6252L2.23827 18.7693L2.12996 18.8053C2.12996 18.8053 2.09386 18.8414 2.12996 18.9495C2.16606 19.0936 2.20217 19.3459 2.27437 19.6342C2.31047 19.7063 2.31047 19.8144 2.34657 19.8865C2.38267 20.0306 2.41877 20.2469 2.45487 20.391C2.49097 20.4631 2.52708 20.4991 2.56318 20.5712C2.59928 20.7154 2.70758 20.9676 2.77978 21.1118C2.88809 21.328 2.96029 21.5082 3.10469 21.7244C3.4657 22.3371 3.82671 22.7695 4.18773 23.0939C4.22383 23.1299 4.29603 23.202 4.33213 23.202C4.33213 23.274 4.44043 23.274 4.47653 23.274C4.65704 23.3822 4.72924 23.4903 4.83754 23.5263C4.98195 23.6344 5.01805 23.5984 5.01805 23.5984ZM14.8736 32.6439C14.6209 32.6439 14.4043 32.752 14.296 32.9322C14.1877 33.0403 14.1516 33.2205 14.1516 33.4007C14.1516 33.653 14.2599 33.8332 14.4404 33.9773C14.5848 34.0854 14.7292 34.1215 14.9097 34.1215C15.1625 34.1215 15.3791 33.9773 15.5235 33.7971C15.5957 33.689 15.6679 33.5449 15.6679 33.3647C15.6679 33.1484 15.5596 32.9322 15.4152 32.7881C15.2347 32.716 15.0903 32.6439 14.8736 32.6439ZM23.4657 9.3634C23.7545 10.6968 23.935 13.8681 23.935 13.8681L25.0542 14.3727C25.0542 14.3727 24.3321 8.96698 24.3682 7.99395C24.3682 7.63357 24.5487 7.05697 24.7653 6.37224C24.9819 5.7596 25.2347 5.07488 25.4874 4.39016C25.6318 3.99374 25.7401 3.56128 25.9567 3.2009C26.1011 3.02071 26.3177 2.29996 26.4621 1.93958C26.7148 1.36297 26.787 0.96655 26.787 0.96655L26.6426 0.786361L25.8123 0.534095C25.8123 0.534095 25.5957 0.96655 25.5235 1.1107C25.4513 1.29089 25.1986 1.68731 25.0181 2.01165C24.8014 2.44411 24.8014 2.9126 24.5848 3.48921C24.5487 3.59732 24.4404 3.70544 24.4043 3.84959C24.3682 3.99374 24.3321 4.13789 24.2599 4.28204C24.1877 4.46223 24.1516 4.7145 24.1155 4.89469C24.0072 5.18299 23.8267 5.43526 23.7545 5.72356C23.3935 7.093 23.2491 8.42641 23.4657 9.3634ZM26.7148 10.6968C26.7148 10.4806 26.6787 10.3004 26.6787 10.1202C26.6787 8.96698 26.2455 8.75075 26.2455 8.75075C26.2455 8.75075 25.6679 8.78679 25.3069 9.25528C25.2347 9.3634 25.1625 9.50755 25.1264 9.6517C25.1264 9.68774 25.1625 9.86793 25.1264 10.0481C25.1264 10.2643 25.0903 10.5526 25.1264 10.877C25.2347 11.4896 25.343 12.1744 25.4513 12.6068C25.5235 12.8951 25.6318 13.0032 25.6318 13.0032C25.6318 13.0032 25.704 12.9312 25.8845 12.7149C26.1011 12.4627 26.3899 12.0302 26.5343 11.4176C26.5704 11.2374 26.6787 10.9851 26.7148 10.6968ZM31.8412 7.95791C31.8412 7.95791 32.2744 7.05697 32.5632 6.01187C32.7076 5.50733 32.7798 5.0028 32.7798 4.53431C32.7798 4.46223 32.7076 4.42619 32.6715 4.35412C32.6354 4.20997 32.6715 4.06582 32.5993 3.92166C32.4188 3.56128 32.1661 3.23694 31.8412 2.9126C31.083 2.08373 30.3249 1.54316 30.3249 1.54316C30.3249 1.54316 30.0361 2.55222 30.1444 3.74147C30.1444 3.84959 30.0722 3.88563 30.0722 3.99374C30.1444 4.46223 30.3249 5.0028 30.4332 5.39922C30.5415 5.7596 30.6859 6.08394 30.8303 6.33621C31.0108 6.62451 31.3718 7.16508 31.5884 7.5615C31.769 7.77773 31.8412 7.95791 31.8412 7.95791ZM29.4585 5.32714C29.4585 5.32714 29.7834 4.10185 29.639 3.48921C29.6029 3.30902 29.6751 2.94864 29.3502 2.66033C29.2058 2.51618 29.0253 2.29995 28.8448 2.1558C28.1227 1.54316 27.1841 1.03863 27.1841 1.03863C27.1841 1.03863 27.0036 1.43504 26.9314 1.97561C26.8953 2.33599 26.8953 2.76845 27.0758 3.2009C27.2202 3.56128 27.5812 3.9577 27.9422 4.28204C28.7004 4.85865 29.4585 5.32714 29.4585 5.32714ZM27.4368 4.02978C27.0036 3.6694 26.6787 3.48921 26.6787 3.48921C26.6787 3.48921 26.3177 4.20997 26.5343 4.60638C26.7509 5.0028 27.4368 4.93073 27.4368 4.93073C27.4368 4.93073 27.9061 4.39016 27.4368 4.02978ZM12.2744 3.6694C12.3105 4.39016 12.3827 4.82261 12.3827 4.82261C12.3827 4.82261 12.5993 4.78657 12.8159 4.67846C13.1047 4.53431 13.4296 4.35412 13.5379 4.02978C13.6462 3.74147 13.5379 3.48921 13.3935 3.27298C13.2491 3.05675 13.1047 2.9126 13.1047 2.9126C13.1047 2.9126 12.2383 2.94864 12.2744 3.6694ZM33.1408 33.7251C32.5632 33.5088 32.0939 33.3647 31.7329 33.2566C31.2996 33.1484 31.0469 33.0764 31.0469 33.0764C31.0469 33.0764 30.9386 33.9052 31.083 34.6981C31.1552 35.0945 31.2996 35.4549 31.5884 35.6711C31.8773 35.9234 32.2022 35.9954 32.5632 35.9954C33.213 35.9954 33.8267 35.7071 33.8267 35.7071C33.8267 35.7071 34.4043 34.1936 33.1408 33.7251ZM3.03249 26.6256C3.3213 26.3733 3.57401 26.1571 3.79061 25.9409C4.54874 25.2201 4.90975 24.7156 4.90975 24.7156C4.90975 24.7156 4.22383 24.2471 3.3935 23.9948C2.77978 23.7786 2.12996 23.6705 1.58845 23.8507C1.26354 23.9588 1.04693 24.139 0.866426 24.3912C0.32491 25.112 0.361011 26.2292 0.361011 26.2292C0.361011 26.2292 0.505415 26.3733 0.758123 26.5535C1.26354 26.9139 2.20217 27.3463 3.03249 26.6256ZM19.3502 28.8239C19.278 28.7518 19.1697 28.6797 19.0975 28.6437C18.7365 28.3914 18.4477 28.1752 18.2671 28.0311C18.0866 27.8869 17.9422 27.8509 17.9422 27.8509C17.9422 27.8509 17.9061 27.9229 17.87 28.0311C17.7978 28.1752 17.7256 28.4275 17.6534 28.6797C17.6173 28.8599 17.5812 29.0762 17.5812 29.2563C17.5812 29.4726 17.6173 29.6888 17.7256 29.905C17.87 30.1213 18.0505 30.3375 18.3032 30.4816C18.8087 30.806 19.3863 30.9501 19.3863 30.9501C19.3863 30.9501 19.4224 30.9141 19.4585 30.806C19.5307 30.6618 19.639 30.4456 19.7112 30.1573C19.7473 29.6888 19.7473 29.1482 19.3502 28.8239ZM19.0614 32.3917C19.0614 32.3196 18.9892 32.1394 18.8448 31.9592C18.8087 31.9232 18.6643 31.7069 18.6282 31.6349C18.556 31.5267 18.4116 31.4547 18.3032 31.3465C18.2671 31.2745 18.231 31.2384 18.1588 31.1664C18.0866 31.0943 17.9422 31.0222 17.9061 30.9501C17.7256 30.7699 17.6534 30.5898 17.4729 30.4096C17.4368 30.3735 17.3646 30.3375 17.3285 30.3014C17.148 30.1573 17.0036 30.0492 16.8231 29.9411C16.5704 29.7609 16.2816 29.6528 16.065 29.6167C15.8845 29.6167 15.7401 29.6167 15.5957 29.6167C15.4152 29.6528 15.2347 29.6888 15.0542 29.7609C14.9097 29.7969 14.8014 29.869 14.6931 29.9411C14.5487 30.0131 14.4404 30.1213 14.3321 30.1933C14.1877 30.3014 14.1155 30.4096 14.1155 30.4096C14.1155 30.4096 14.2238 30.6618 14.3682 30.9141C14.4765 31.0943 14.6209 31.2024 14.7653 31.4186C14.9458 31.6709 15.1264 31.9592 15.3791 32.2475C15.5235 32.4277 15.704 32.6079 15.8845 32.752C16.0289 32.8601 16.1372 32.9683 16.2816 33.0403C16.426 33.1484 16.5704 33.1845 16.7148 33.2566C16.787 33.2926 17.5812 33.4007 17.7256 33.3286C17.7978 33.2926 18.1227 33.2205 18.231 33.1484C18.231 33.1484 18.4477 33.0043 18.5199 32.9683C18.6282 32.8962 18.7365 32.7881 18.8087 32.716C18.8809 32.6439 18.9531 32.5718 19.0253 32.5358C19.0253 32.4637 19.0253 32.4637 19.0614 32.3917ZM18.6282 4.20997C18.9892 4.46223 19.4224 4.85865 19.7834 4.7145C19.9278 4.64242 20.1805 4.89469 20.3249 4.89469C20.4332 4.89469 20.5415 4.53431 20.5415 4.53431C20.5415 4.53431 20.8664 4.24601 20.7942 3.74147C20.722 3.2009 20.7942 2.80449 20.5054 2.08373C20.0722 1.07466 18.8087 0.96655 17.9422 1.00259C17.7978 1.00259 17.6895 1.03863 17.5812 1.03863C17.3285 1.07466 17.148 1.1107 17.148 1.1107C17.148 1.1107 17.2202 1.29089 17.3285 1.65127C17.509 2.22788 17.8339 3.12883 18.1949 3.70544C18.3393 3.92166 18.4838 4.10185 18.6282 4.20997ZM17.6895 5.32714C17.6895 5.32714 17.7617 4.93073 17.6173 4.28204C17.5812 4.13789 17.4368 4.06582 17.3646 3.92166C17.2563 3.63336 17.4007 3.27298 17.1841 3.02071C16.8953 2.6243 16.2816 2.37203 15.8123 2.19184C15.4152 2.04769 14.9819 2.01165 14.657 1.97561C14.296 1.93958 14.0433 1.93958 14.0433 1.93958C14.0433 1.93958 13.935 2.6243 14.0072 3.38109C14.0433 3.99374 14.1877 4.64242 14.5487 5.0028C14.6931 5.18299 14.9458 5.29111 15.1986 5.36318C15.704 5.54337 16.1372 5.61545 16.6787 5.57941C16.787 5.57941 17.0758 5.43526 17.148 5.43526C17.509 5.39922 17.6895 5.32714 17.6895 5.32714ZM10.9025 27.2382C11.0108 26.4454 10.5776 26.0129 10 25.7246C9.63899 25.5444 9.27798 25.5084 8.91697 25.4363C8.66426 25.4003 8.41155 25.4003 8.23105 25.4003C7.97834 25.4003 7.61733 25.4003 7.61733 25.4003C7.61733 25.4003 7.79783 25.6886 7.68953 26.121C7.65343 26.2292 7.61733 26.4814 7.58123 26.6256C7.43682 27.3824 7.32852 28.2112 7.58123 28.968C7.58123 29.0041 7.72563 29.1122 7.72563 29.1482C7.79783 29.2924 7.68953 29.4005 7.79783 29.5086C7.87004 29.6167 8.01444 29.6888 8.08664 29.7609C8.15884 29.833 8.33935 30.0492 8.37545 30.0852C8.62816 30.3735 8.80866 30.5898 8.98917 30.7699C9.42238 31.1303 9.56679 30.9501 9.56679 30.9501C9.56679 30.9501 9.74729 30.842 9.9278 30.4456C10.1083 30.0492 10.3249 29.4726 10.5415 28.7879C10.6859 28.3194 10.8303 27.7788 10.9025 27.2382ZM6.6065 29.3645C6.6065 29.3645 6.46209 29.4365 6.28159 29.5447C6.10108 29.6528 5.81227 29.833 5.52347 30.0852C5.12635 30.4096 4.65704 30.8781 4.25993 31.4907C4.00722 31.8871 3.79061 32.3196 3.64621 32.8601C3.4657 33.5088 3.71841 34.3377 4.11552 35.0585C4.22383 35.2747 4.33213 35.4909 4.44043 35.7071C4.54874 35.8873 4.69314 35.9594 4.80144 36.1396C5.16245 36.7162 5.70397 37.2568 5.70397 37.2568C5.70397 37.2568 5.92058 37.1126 6.20939 36.7522C6.28159 36.6802 6.31769 36.6441 6.38989 36.5721C6.42599 36.536 6.46209 36.4279 6.49819 36.3919C6.89531 35.7792 7.29242 34.8062 7.36462 33.4007C7.40072 32.5718 7.32852 31.8511 7.22022 31.3105C7.18412 31.2024 7.18411 31.0943 7.14801 30.9862C7.07581 30.6979 7.03971 30.3735 6.96751 30.1573C6.93141 30.0131 6.85921 29.9771 6.8231 29.869C6.7148 29.5086 6.6426 29.3645 6.6065 29.3645ZM21.769 32.1394C22.0217 31.6709 22.2022 31.2384 22.2744 30.842C22.3466 30.4096 22.3466 30.0492 22.3105 29.7609C22.2383 29.2563 22.0939 28.932 22.0939 28.932C22.0939 28.932 21.6245 29.0041 21.1191 29.2924C20.7942 29.4726 20.4332 29.7609 20.2166 30.1933C20.1083 30.3735 20.0361 30.5898 19.9639 30.842C19.9278 30.9501 19.9278 31.0222 19.8917 31.1303C19.8195 31.4547 19.7473 31.779 19.6751 32.0313C19.5668 32.4637 19.4585 32.752 19.3863 32.9683C19.3141 33.1484 19.278 33.2566 19.278 33.2566C19.278 33.2566 19.3141 33.2566 19.3863 33.2926C19.4585 33.3286 19.5668 33.3286 19.7112 33.3647C19.8556 33.3286 20.0361 33.4368 20.1805 33.3647C20.2527 33.4007 20.4693 33.3647 20.5054 33.2926C20.6498 33.3647 20.7581 33.1484 20.8664 33.1484C20.8664 33.0403 21.3357 33.0043 21.2274 32.8962C21.2274 32.7881 21.5523 32.716 21.444 32.68C21.5523 32.6439 21.4801 32.5358 21.6606 32.4277C21.6245 32.3556 21.6968 32.2475 21.769 32.1394ZM37.9783 37.1847C37.3285 35.2747 35.8484 35.7792 35.8484 35.7792C35.8484 35.7792 35.4152 36.2838 35.4513 36.9324C35.4513 37.3289 35.6318 37.7253 36.1372 38.1217C36.6787 38.5541 37.9061 39.2389 37.9061 39.2389C37.9061 39.2389 38.2671 38.0496 37.9783 37.1847ZM2.20217 20.8235C2.16606 20.6433 2.09386 20.427 2.05776 20.2829C1.91336 19.7423 1.69675 19.3819 1.51625 19.1297C1.33574 18.8414 1.15523 18.7333 1.15523 18.7333C1.15523 18.7333 0.722022 18.9855 0.397112 19.5621C0.216606 19.8865 0.0361011 20.355 0.0361011 20.8955C0.0361011 21.0037 0 21.1478 0 21.292C0 21.4361 0.0361011 21.5442 0.0722022 21.6523C0.144404 21.9406 0.144404 22.1569 0.216606 22.3731C0.32491 22.6254 0.361011 22.8416 0.433213 22.9857C0.469314 23.0218 0.433213 23.0939 0.505415 23.1299C0.685921 23.238 0.649819 23.4542 0.722022 23.5263C0.758123 23.5984 0.866426 23.5263 0.866426 23.5263C0.866426 23.5263 0.866426 23.5623 1.01083 23.4903C1.26354 23.3101 1.80505 23.0578 1.94946 22.5893C2.05776 22.301 2.20217 22.0488 2.23827 21.7244C2.23827 21.6163 2.16606 21.5082 2.16606 21.364C2.16606 21.1838 2.23827 21.0397 2.20217 20.8235ZM27.148 29.2563C27.0758 29.7248 27.0758 30.2654 27.148 30.7699C27.1841 31.1303 27.2563 31.4907 27.3646 31.815C27.5812 32.6439 27.7978 33.2566 27.7978 33.2566C27.7978 33.2566 29.4946 33.1845 30.2166 31.779C30.361 31.4907 30.4693 31.1664 30.5054 30.7699C30.5415 30.5898 30.6137 30.3014 30.6137 30.1213C30.6137 29.9771 30.5415 29.9411 30.5776 29.833C30.6137 28.7879 30.4693 27.8869 30.2888 27.2022C30.1444 26.6616 29.9639 26.2292 29.8556 25.9409C29.7473 25.6886 29.4946 25.4003 29.3502 25.7246C29.278 25.9769 28.8809 26.2292 28.7004 26.4093C28.3755 26.7697 27.9783 27.2022 27.6895 27.7428C27.6173 27.8869 27.4368 28.0311 27.4729 28.2112C27.4729 28.3914 27.3646 28.3914 27.3646 28.4275C27.2202 28.7518 27.2202 28.968 27.148 29.2563ZM41.8051 22.8776C41.9856 22.9137 42.0578 22.8416 42.3466 22.7695C42.8159 22.6614 43.5018 22.6614 44.0072 22.3731C44.1516 22.301 44.296 22.1929 44.4404 22.1929C44.5848 22.1929 44.657 22.0488 44.7292 21.9767C45.1625 21.5803 44.5848 20.7874 43.9711 20.1748C43.8267 20.0306 43.7184 19.8504 43.6101 19.7423C43.574 19.7063 43.5018 19.7423 43.4657 19.7063C43.1769 19.454 43.0686 19.3459 43.0686 19.3459C43.0686 19.3459 42.9242 19.2738 42.852 19.3099C42.6715 19.4901 42.1661 19.9586 41.9856 20.6072C41.9134 20.8955 42.0217 21.1118 41.9856 21.328C41.9856 21.364 41.8412 21.5442 41.8412 21.5803C41.769 22.1569 41.769 22.4812 41.7328 22.6614C41.769 22.7695 41.8051 22.8776 41.8051 22.8776ZM41.2274 13.9763C41.2274 13.9763 41.5884 13.1834 41.6606 12.2104C41.6606 11.9942 41.5884 12.0662 41.5884 11.814C41.5884 11.6698 41.5884 11.6338 41.5523 11.4536C41.4079 10.9851 41.083 10.4445 40.7581 9.97604C40.6137 9.79585 40.4332 9.57962 40.2888 9.43547C39.9278 9.03905 39.6751 8.85886 39.5307 8.75075C39.4585 8.71471 39.4224 8.67867 39.4224 8.67867C39.4224 8.67867 39.3141 8.64264 39.278 8.75075C39.2419 8.85886 39.2419 9.11113 39.2419 9.43547C39.2419 10.6247 39.278 12.4627 39.6751 13.0393C40.2527 13.9042 41.2274 13.9763 41.2274 13.9763ZM35.8484 15.0214C35.7762 15.2736 35.7401 15.4898 35.6679 15.7061C35.2347 17.544 35.4513 17.9404 35.4513 17.9404C35.4513 17.9404 36.2094 18.517 37.7256 17.1476C38.0505 16.8593 38.3032 16.5349 38.7004 16.1025C38.7365 16.0665 38.8448 15.8142 38.8809 15.7782C38.9892 15.634 39.0253 15.67 39.0614 15.4538C39.3502 14.2646 38.7004 12.3185 38.7004 12.3185C38.7004 12.3185 38.4838 12.4627 38.1949 12.6789C37.4368 13.2555 36.0289 14.3727 35.8484 15.0214ZM34.5126 15.8863C34.5126 15.8863 34.5487 15.7782 34.8014 15.2736C34.8375 15.2015 35.0903 15.0934 35.1625 14.9853C35.8123 13.76 36.5704 11.814 36.4982 10.9851C36.4621 10.3725 36.3899 9.79585 35.9567 9.25528C35.6679 8.85886 35.7401 8.75075 35.5235 8.53452C35.343 8.35433 35.2347 8.35433 35.2347 8.35433C35.2347 8.35433 34.5487 8.67867 34.2599 9.14717C33.935 9.68774 33.2852 9.97604 32.9603 10.877C32.7437 11.4896 32.5993 12.1383 32.5632 12.823C32.491 13.688 32.7798 14.3366 33.1408 14.8412C33.5379 15.3817 33.9711 15.5259 34.1155 15.8142C34.1516 15.9223 34.5126 15.8863 34.5126 15.8863ZM23.9711 40.2119C23.7906 40.284 23.574 40.356 23.5018 40.4642C23.4296 40.5723 23.3213 40.6083 23.2491 40.6443C22.9964 40.8606 22.852 41.1128 22.7798 41.257C22.7076 41.3651 22.7076 41.4372 22.7076 41.4372C22.7076 41.4372 22.7437 41.4732 22.8159 41.5093C23.0325 41.6174 23.7906 41.9417 24.0433 41.9057C24.3321 41.8696 24.7292 41.9057 25.0542 41.7615C25.3791 41.6534 25.9206 41.4372 26.3538 41.257C26.5343 41.1849 26.7509 41.1128 26.8231 41.0768C26.9314 41.0408 27.0036 40.9687 27.0036 40.9326C27.0036 40.8966 26.9314 40.8966 26.787 40.8245C26.6426 40.7525 26.426 40.6083 26.1733 40.5362C25.9206 40.4642 25.8123 40.3921 25.5957 40.32C25.2708 40.2119 24.9097 40.1398 24.5848 40.1038C24.4043 40.1038 24.1877 40.1398 23.9711 40.2119ZM10.3971 33.5088C10.3971 33.2205 10.361 32.9683 10.2888 32.716C10.0361 32.0313 9.49458 31.5988 9.49458 31.5988C9.49458 31.5988 8.66426 32.1033 8.12274 32.8601C7.87004 33.1845 7.68953 33.5809 7.65343 33.9773C7.61733 34.1575 7.61733 34.3377 7.65343 34.5539C7.68953 35.3107 7.87004 36.2117 7.87004 36.2117C7.87004 36.2117 8.08664 36.0675 8.37545 35.8513C8.51986 35.7432 8.66426 35.6351 8.80866 35.4909C9.31408 35.0585 9.9278 34.5179 10.2166 33.9773C10.3249 33.8692 10.3971 33.689 10.3971 33.5088ZM29.8917 33.7251C29.8917 33.7251 29.5668 33.653 29.0614 33.8332C28.9892 33.8692 28.9892 33.9413 28.9531 33.9773C28.4838 34.1575 27.9061 34.4098 27.5451 34.8062C27.3646 35.0224 27.148 35.3828 27.0036 35.7071C26.9675 35.7432 27.0036 35.8153 26.9675 35.8513C26.8953 35.9954 26.787 36.1036 26.7509 36.2477C26.6426 36.5 26.7148 36.5721 26.7148 36.5721C26.7148 36.5721 26.787 36.6802 27.0758 36.6081C27.7256 36.536 28.917 36.3558 29.5668 35.9954C29.639 35.9594 29.6751 35.8513 29.7473 35.8153C29.8556 35.7432 29.9639 35.6711 30.0361 35.563C30.3249 35.0585 30.2527 34.5179 30.1805 34.1575C30.1444 34.0854 30.1083 34.0134 30.0722 33.9773C29.9639 33.7611 29.8917 33.7251 29.8917 33.7251ZM16.6065 42.6985C16.6065 42.6985 16.6426 42.8787 16.7148 43.167C16.787 43.3472 16.8592 43.5995 17.0036 43.8157C17.1841 44.104 17.4368 44.3202 17.7978 44.4283C17.9061 44.4644 18.0144 44.4644 18.1588 44.4644C18.3393 44.4644 18.556 44.4283 18.7365 44.3563C18.9531 44.2842 19.2419 44.1761 19.4585 44.0319C19.639 43.9238 19.7473 43.8157 19.8917 43.7076C20.0722 43.5634 20.1444 43.5274 20.1444 43.5274C20.1444 43.5274 20.0722 43.4193 19.8917 43.3112C19.7834 43.2391 19.7112 43.167 19.5668 43.0949C19.5307 43.0949 19.2419 42.9868 19.2419 42.9868C18.8087 42.7706 18.4477 42.6625 17.9783 42.5904C17.7256 42.5544 17.3646 42.5904 17.1119 42.5904C16.9675 42.5904 16.8592 42.5904 16.787 42.5904C16.6787 42.6625 16.6065 42.6985 16.6065 42.6985ZM16.5343 28.4275C16.5343 28.7518 16.4621 28.896 16.4621 28.896H16.1733L14.1516 29.0041L12.0939 28.932C12.0939 28.932 12.0578 28.3194 12.0578 27.5265C12.0578 27.0941 12.0217 26.4094 11.9856 25.9048C11.9856 25.7246 12.0578 25.7967 12.0578 25.6165C12.0578 25.2922 11.9856 24.9678 11.9856 24.6435C11.9495 23.7065 11.9495 22.9137 11.9856 22.6614C12.1661 20.0306 12.8881 19.7423 14.0072 19.6342C15.4874 19.5261 16.3538 20.1387 16.4621 21.6163C16.4982 22.1208 16.4982 23.3101 16.4982 24.6075C16.4982 25.112 16.4982 25.6165 16.4621 26.085C16.4621 26.2292 16.426 26.5175 16.426 26.6616C16.426 26.8778 16.5343 27.2022 16.5343 27.4184C16.5343 27.9229 16.5343 28.1031 16.5343 28.4275ZM13.574 24.9678C13.574 24.7516 13.3935 24.5354 13.1408 24.5354C12.9242 24.5354 12.7076 24.7156 12.7076 24.9678C12.7076 25.1841 12.8881 25.4003 13.1408 25.4003C13.3935 25.4003 13.574 25.1841 13.574 24.9678ZM39.6751 23.274C39.6751 23.274 39.1336 23.274 38.9892 23.3101C38.4116 23.4542 37.2202 23.9227 36.4982 24.7876C36.426 24.8958 36.2816 24.9678 36.2455 25.112C36.0289 25.5444 35.8845 26.085 35.7401 26.6616C35.4874 27.7428 35.4152 28.968 35.8123 30.1213C36.426 31.8871 36.8592 32.5358 36.8592 32.5358C36.8592 32.5358 37.4007 32.4637 38.1227 32.2475C38.1949 32.2115 38.231 32.1394 38.3032 32.1394C38.5199 32.0673 38.7726 32.0673 38.9892 31.9952C39.1697 31.9232 39.2419 31.815 39.4224 31.743C39.5668 31.6709 39.7473 31.7069 39.9278 31.5988C40.1083 31.4547 40.361 31.3826 40.5415 31.2745C40.9386 31.0582 41.2635 30.7699 41.5523 30.4816C41.6245 30.4096 41.6967 30.3375 41.769 30.2654C41.8773 30.1213 41.9856 29.9771 42.0578 29.833C42.2022 29.5807 42.3466 29.4365 42.4549 29.2203C42.5632 29.0041 42.5993 28.5716 42.6715 28.3554C43.1408 27.0941 43.0325 26.4814 42.5632 25.5805C42.0217 24.3191 41.3718 23.274 39.6751 23.274ZM36.3538 24.0669C36.426 24.0308 36.5704 23.9588 36.7148 23.8867C36.8953 23.7786 37.1119 23.6344 37.2924 23.5263C37.6173 23.3101 37.87 23.1299 37.87 23.1299C37.87 23.1299 37.6173 22.6254 37.1119 22.3371C36.9314 22.2289 36.7148 22.1569 36.4982 22.0848C35.9928 22.0127 35.5235 22.0127 35.0903 22.265C34.9097 22.3731 34.7292 22.4812 34.5487 22.6614C34.4043 22.8416 34.2599 23.1299 34.1155 23.3822C33.9711 23.7065 34.0072 24.175 34.1516 24.6075C34.1877 24.7876 34.2238 24.9318 34.2599 25.0759C34.3682 25.3642 34.4404 25.4363 34.4404 25.4363C34.4404 25.4363 34.6209 25.5084 34.657 25.4363C34.7292 25.3282 34.8014 25.148 34.9458 24.9678C35.3069 24.6435 35.7401 24.2471 36.3538 24.0669ZM42.0217 23.8146C42.5271 24.3912 42.8159 24.9318 43.0325 25.5444C43.0325 25.5444 43.7906 25.6165 44.296 27.8148C44.296 27.8148 45.2708 25.6526 44.8014 24.6795C43.8989 22.9497 42.6354 23.1299 42.0217 23.8146ZM36.1733 32.1033C36.1733 32.0673 35.9567 31.6709 35.9567 31.6709L35.8123 31.3465L35.6318 30.9862C35.6318 30.9862 35.5957 30.8781 35.5596 30.806C35.4874 30.7339 35.4513 30.5898 35.4513 30.5898L35.2708 30.1933L35.2347 30.0852C35.2347 30.0852 35.1986 30.0852 35.1625 30.0852C35.1264 30.1213 35.018 30.1573 34.9097 30.2294C34.7292 30.3375 34.5126 30.4816 34.296 30.6618C34.2238 30.6979 34.1516 30.7699 34.1155 30.842C34.0433 30.9141 33.9711 30.9862 33.8989 31.0582C33.7906 31.1664 33.7184 31.2745 33.6462 31.4186C33.6462 31.4186 33.6462 31.4547 33.6462 31.4907C33.6101 31.5628 33.574 31.6349 33.5379 31.7069C33.3574 32.1754 33.3574 32.68 33.4296 33.0403C33.5018 33.4007 33.6101 33.6169 33.6101 33.6169C33.6101 33.6169 33.7184 33.5809 33.8628 33.4368C33.935 33.3647 34.2599 33.1124 34.657 32.8601C34.7292 32.8241 34.8014 32.7881 34.8736 32.752C34.9458 32.716 35.0903 32.6079 35.1625 32.5718C35.4152 32.4637 35.6318 32.3556 35.8484 32.2835C35.8845 32.2475 35.9206 32.2835 35.9928 32.2475C36.065 32.2115 36.1733 32.1394 36.1733 32.1033ZM40.7581 23.1659C40.7581 23.1659 40.5776 23.0578 40.0722 22.9857C39.5668 22.8776 38.8809 22.9137 38.8809 22.9137C38.8809 22.6974 38.7726 22.4812 38.5921 22.265C38.3393 21.9406 37.9783 21.6163 37.8339 21.328C37.5812 20.8595 37.6534 20.4631 37.8339 20.1748C38.0144 19.8865 38.3393 19.6703 38.6282 19.4901C38.7004 19.454 38.7726 19.418 38.8087 19.3819C39.4224 19.0576 40.4693 19.3459 40.8303 20.355C41.2996 21.5082 40.7581 23.1659 40.7581 23.1659ZM38.9892 20.4631C38.9892 20.2829 38.8448 20.1387 38.6643 20.1027C38.4838 20.1027 38.3393 20.2469 38.3032 20.427C38.3032 20.6072 38.4477 20.7514 38.6282 20.7874C38.8087 20.7874 38.9892 20.6433 38.9892 20.4631ZM38.6282 37.2928C38.5921 37.4009 38.8448 37.2928 39.1697 37.0766C39.3502 36.9324 39.5668 36.7522 39.8195 36.5C40.2166 36.0675 40.6498 35.527 40.9025 34.9503C40.9747 34.8062 40.9386 34.662 40.9747 34.5539C41.0469 34.3737 41.1191 34.3377 41.1552 34.1215C41.1913 33.9052 41.2635 33.5449 41.2996 33.3286C41.3357 33.2205 41.3718 33.1124 41.3718 33.0043C41.444 32.5358 41.444 32.1394 41.444 31.8871C41.444 31.743 41.3718 31.7069 41.3718 31.7069L41.1913 31.743L38.7365 32.4637L38.556 32.5358C38.556 32.5358 38.4477 32.6079 38.4838 32.716C38.556 32.8962 38.6282 33.2566 38.7004 33.7611C38.7004 33.8332 38.7365 33.9052 38.7726 33.9773C38.7726 34.0494 38.7004 34.2296 38.7004 34.3017C38.7365 34.5539 38.7365 34.7341 38.7365 35.0585C38.7365 35.3468 38.7726 35.6711 38.7365 35.9594C38.7726 36.3558 38.7004 36.8243 38.6282 37.2928ZM29.2058 37.1847C29.1697 37.2568 29.1336 37.2568 29.0975 37.3649C29.0614 37.437 29.0614 37.509 29.0614 37.5451C29.0253 37.6172 28.9892 37.8694 28.9531 37.9415C28.8809 38.0856 28.8448 38.0496 28.7365 38.1938C28.7004 38.2658 28.6282 38.374 28.556 38.41C28.3393 38.6262 27.4729 39.2749 27.4007 39.3109C27.2202 39.347 27.0758 39.4191 26.9314 39.4911C26.7148 39.5632 25.2347 39.7434 25.0903 39.7434C24.9097 39.7434 24.8375 39.7074 24.657 39.6713C24.4043 39.6353 24.1155 39.5992 23.8267 39.5272C23.7906 39.5272 23.7184 39.4911 23.6823 39.4911C23.6101 39.5632 23.5379 39.5992 23.4657 39.6353C23.3574 39.7074 23.2852 39.7794 23.1769 39.8515C23.0325 39.9596 22.8881 40.0317 22.7437 40.1038C22.4188 40.284 22.0939 40.4281 21.769 40.5723C21.6606 40.6083 21.444 40.6083 21.3357 40.6443C21.2635 40.6804 21.3357 40.7525 21.2274 40.7885C20.9025 40.8966 20.6859 41.0768 20.361 41.1489C20.1083 41.221 19.7834 41.1849 19.5307 41.257C19.1336 41.3291 18.6643 41.3291 18.3032 41.3651C18.0505 41.4011 17.7256 41.5093 17.509 41.5093C16.8592 41.5453 16.4621 41.4732 16.0289 41.4372C15.9928 41.3651 15.8845 41.221 15.7762 41.0408C15.5596 40.6443 15.2347 40.1038 14.9097 39.8155C14.6209 39.5272 14.3321 39.3109 14.0794 39.1307C13.9711 39.0587 13.8989 39.0226 13.7906 38.9506C13.5018 38.8064 13.2491 38.6983 12.9964 38.6262C12.6354 38.5181 12.2744 38.5181 11.9495 38.5541C11.7329 38.5902 11.5162 38.6623 11.3357 38.7343C11.2996 38.6983 11.2274 38.6623 11.1913 38.6262C10.9025 38.41 10.6498 38.1938 10.4332 38.0136C10.2888 37.8694 10.2166 37.7613 10.1083 37.6532C10.0722 37.6172 10 37.5811 9.9639 37.5451C9.67509 37.1847 9.45848 36.8243 9.31408 36.5C9.27798 36.3558 9.27798 36.2477 9.24188 36.1396C9.24188 36.0675 9.31408 36.0315 9.38628 36.0675C9.8917 36.3198 10.361 36.5 10.9025 36.6081C14.6209 37.3288 15.1264 36.5721 15.1264 36.5721C15.1264 36.5721 10.4332 36.7522 9.42238 35.527C9.42238 35.527 9.38628 35.4549 9.45848 35.3828C9.49459 35.3468 9.63899 35.0945 9.9639 34.9864C10.1444 34.9143 10.4332 34.8422 10.722 34.8062C10.9025 34.7702 10.9747 34.7341 11.2274 34.7702C11.3718 34.7702 11.5884 34.8062 11.7329 34.8422C11.8051 34.8422 11.8412 34.8422 11.9134 34.8422C11.9495 34.8422 12.0217 34.8783 12.0578 34.8783C12.13 34.8783 12.13 34.8783 12.2022 34.9143C12.8159 34.9864 13.3574 34.9864 14.0072 35.0224C14.0794 35.0224 14.1516 35.0585 14.2238 35.0224C14.296 34.9864 14.9097 35.0224 15.2708 35.0224C15.5596 35.0224 15.9206 34.9864 16.2094 34.9503C16.3899 34.9503 16.5704 34.9143 16.7148 34.9143C17.148 34.8783 17.4368 34.8062 17.87 34.7341C18.0144 34.6981 18.2671 34.6981 18.3755 34.6981C18.4838 34.6981 18.6282 34.6981 18.7365 34.662C18.8087 34.662 18.8809 34.5539 18.9531 34.5539C19.4585 34.4458 19.8917 34.3737 20.3249 34.2656C20.5776 34.1936 20.7942 34.1215 21.0108 34.0494C21.5884 33.8332 22.0578 33.6169 22.3827 33.3286C22.491 33.2566 22.5271 33.1845 22.5993 33.0764C22.6715 33.0043 22.9242 32.8241 22.9603 32.716C23.0686 32.4998 23.1047 32.3556 23.1769 32.1394C23.7545 30.8781 23.7545 29.9771 23.2491 28.4275C23.2491 28.4275 23.2491 27.8509 24.0433 28.4275C24.8375 28.968 26.9675 31.3466 26.4621 34.9143L26.426 35.0585C26.426 35.0945 26.3899 35.1666 26.3899 35.2026C26.3899 35.2747 26.2455 35.6711 26.1733 35.8873C26.1372 35.9954 26.1011 36.1396 26.0289 36.2477C25.9567 36.4279 25.8845 36.6081 25.8123 36.7883C25.7401 36.9324 25.704 37.0766 25.6318 37.2207C25.5957 37.2568 25.5596 37.2928 25.5235 37.3649C25.5235 37.3649 25.5235 37.4009 25.5235 37.437C25.4513 37.5451 25.3791 37.6532 25.3069 37.7613C25.5596 37.6172 25.9206 37.473 26.3177 37.3649C26.5343 37.2928 26.7509 37.2568 26.9675 37.1847C27.509 37.0766 28.1227 37.0045 28.8448 36.9685C28.9531 36.9685 29.1336 36.9685 29.1336 37.0045C29.2419 36.8964 29.278 37.0405 29.2058 37.1847ZM17.3285 36.1036C16.9314 36.1036 16.9675 36.4639 16.9675 36.4639C16.9675 36.4639 16.9314 36.8243 17.3285 36.8243C17.6895 36.8243 17.6895 36.5 17.6895 36.5C17.6895 36.5 17.7256 36.1036 17.3285 36.1036ZM14.1516 40.1758C14.1155 40.1758 14.1155 40.1038 14.0794 40.0677C13.0325 39.2028 11.8412 39.1668 11.3718 39.1668C11.2635 39.1668 11.1913 39.1668 11.1913 39.1668C11.1913 39.1668 11.1913 39.2028 11.1913 39.2749C11.1913 39.4191 11.2274 39.6713 11.2635 39.9957C11.2635 40.0317 11.2996 40.1038 11.2996 40.1398C11.2996 40.1758 11.2996 40.2119 11.2996 40.2479C11.3357 40.3921 11.3718 40.4642 11.4079 40.6083C11.6245 41.4011 11.9856 42.3742 12.7437 43.0589C13.0686 43.3832 13.6462 43.5995 14.1877 43.7076C14.4043 43.7436 14.5487 43.8157 14.7653 43.8517C15.0542 43.8878 15.343 43.9238 15.4874 43.9238C15.5596 43.9238 15.5957 43.8517 15.5596 43.7076C15.5596 43.6355 15.4874 43.5274 15.4874 43.4193C15.4874 43.3832 15.5235 43.3472 15.5235 43.3112C15.4874 43.0589 15.4513 42.7706 15.3791 42.4823C15.3791 42.4462 15.343 42.3742 15.343 42.3381C15.3069 42.23 15.2708 42.1219 15.2708 42.0138C15.0903 41.4011 14.8014 40.7525 14.3321 40.284C14.296 40.2479 14.2238 40.2479 14.1516 40.1758ZM27.4368 21.1118C26.787 21.1478 25.4874 21.5442 25.4874 21.5442L25.5596 22.5173C25.5596 22.5173 26.7509 22.1929 27.4007 22.1569C28.2671 22.0848 28.8448 22.0127 28.8448 22.0127L28.7004 21.1478C28.7004 21.1478 28.0505 21.0757 27.4368 21.1118ZM2.34657 14.7691C1.91336 15.0574 1.58845 15.4538 1.29964 15.8502C0.794224 16.6431 0.577617 17.4359 0.577617 17.4359C0.577617 17.4359 1.69675 18.0485 3.03249 17.7963C3.10469 17.7963 3.14079 17.7242 3.213 17.6882C3.2852 17.6521 3.4657 17.6882 3.57401 17.6521C3.68231 17.6161 3.79061 17.4719 3.89892 17.4359C4.25993 17.3638 4.47653 17.1116 4.76534 16.8593C5.16245 16.4989 5.48736 16.0665 5.77617 15.634C5.81227 15.5619 5.88448 15.4898 5.92058 15.4178C5.95668 15.3817 5.95668 15.3457 5.99278 15.2736C6.17329 14.9493 6.31769 14.661 6.42599 14.4087C6.49819 14.2646 6.5343 14.1925 6.5704 14.0844C6.6065 13.9763 6.4982 13.9042 6.38989 13.9042C6.35379 13.9042 6.31769 13.9763 6.24549 13.9763C6.17328 13.9763 6.06498 13.9042 5.95668 13.9042C5.23466 13.9402 4.00722 14.0483 3.03249 14.3727C2.81588 14.5168 2.56318 14.6249 2.34657 14.7691ZM6.7509 9.25528C6.7509 9.25528 7.03971 8.78679 7.07581 8.67867C7.11191 8.53452 7.18412 8.46245 7.18412 8.46245C7.18412 8.46245 7.18412 8.28226 7.25632 8.28226C7.32852 8.28226 7.50902 8.28226 7.50902 8.28226L8.55596 8.42641C8.55596 8.42641 8.62816 8.71471 8.62816 8.85886C8.62816 8.8949 8.66426 9.00302 8.66426 9.11113C8.66426 9.14717 8.62816 9.21924 8.62816 9.25528C8.66426 9.50755 8.77256 9.72377 8.77256 9.72377L11.7329 9.83189L11.8773 9.75981H12.491C12.491 9.75981 12.6354 9.6517 12.3105 9.39943C12.2022 9.32736 11.8773 9.21924 11.7329 9.11113C11.3718 8.85886 10.9025 8.53452 10.3971 8.1381C10.2888 8.02999 10.1444 7.95792 10.0361 7.8498C9.71119 7.59754 8.77256 6.30017 8.77256 6.30017L7.32852 6.26413C7.32852 6.26413 7.18412 6.33621 7.00361 6.5164C6.7148 6.73262 6.31769 7.093 5.99278 7.45338C5.81227 7.66961 5.66787 7.88584 5.48736 8.10207C5.23466 8.46245 5.01805 8.82283 4.83754 9.07509C4.80144 9.14717 4.69314 9.18321 4.62094 9.25528C4.44043 9.47151 4.51264 9.57962 4.51264 9.57962H5.01805L5.99278 9.6517L6.5704 9.54358L6.7509 9.25528ZM7.61733 8.71471C7.61733 8.71471 7.50903 8.96698 7.36462 9.32736C7.32852 9.39943 7.25632 9.43547 7.22022 9.50755C7.11191 9.79585 6.96751 10.1923 6.787 10.6247C6.6787 10.877 6.5343 11.1653 6.35379 11.4536C6.24549 11.6338 6.10108 11.814 5.99278 11.9942C5.95668 12.0662 5.92058 12.1383 5.84838 12.2104C5.41516 12.8951 4.98195 13.4357 4.98195 13.4357H5.88448C5.88448 13.4357 6.13718 13.2195 6.38989 12.787C6.42599 12.7149 6.46209 12.5347 6.5343 12.4627C6.5704 12.3906 6.6787 12.3185 6.7148 12.2464C6.93141 11.8861 7.14801 11.4536 7.29242 11.1293C7.54513 10.6968 7.68953 10.3004 7.79783 9.94C7.83393 9.79585 7.94224 9.61566 7.97834 9.50755C8.01444 9.32736 7.94224 9.25528 7.97834 9.14717C8.01444 8.8949 8.05054 8.78679 8.05054 8.78679L7.61733 8.71471ZM21.6968 16.6431C21.6968 16.1746 21.7329 15.5619 21.7329 14.9493C21.6968 14.9132 21.8051 14.5889 21.7329 14.5168C21.6968 14.4808 21.2635 14.5889 21.1913 14.5529C20.9747 14.4447 21.0469 14.1925 20.9747 14.0123C20.8664 13.76 21.0108 12.3906 21.0469 12.3185C21.0469 12.2825 21.1913 11.814 21.2635 11.4536C20.9747 11.1293 20.6498 10.913 20.0361 10.841C18.917 10.7689 18.0866 11.2013 18.0144 13.8681C17.9783 14.3727 17.9783 14.8412 17.9422 15.2376C17.9061 15.7782 17.87 16.2466 17.87 16.6431H16.5343C16.5343 16.2827 16.4982 15.7061 16.4982 15.2376C16.4982 15.0214 16.6065 15.0934 16.6065 14.9132C16.6065 14.0123 16.5704 13.0032 16.5343 12.5347C16.4982 11.9221 15.9567 11.1293 14.8375 11.0572C13.935 10.9851 13.1047 11.3094 12.8159 12.823C12.7798 13.0393 12.8881 13.2555 12.8881 13.5078C12.8881 13.688 12.8159 13.8681 12.8159 14.0844C12.7798 15.2015 12.7437 16.0665 12.6715 16.6791H10.9025C10.9025 16.1385 10.9386 15.4538 10.9386 14.8051C10.9386 14.1564 10.9747 13.4717 10.9386 13.0032C10.9386 12.823 11.0108 12.787 10.9747 12.6428C10.9386 12.0302 10.2888 11.1653 9.16967 11.0572C8.05054 10.9851 7.22022 11.4176 7.14801 14.0844C7.11191 15.1655 7.07581 16.0304 7.00361 16.6431C7.00361 16.6431 6.06498 16.607 5.88448 16.6431C5.81227 16.6431 5.81227 16.9674 5.81227 17.3278C5.81227 17.4359 5.92058 17.4719 5.92058 17.5801C5.95668 18.1567 5.88448 18.8053 5.88448 18.8053H9.24188H12.491C12.491 18.8053 12.9964 18.9135 13.1769 18.8774C13.3574 18.8414 13.3935 18.8053 13.3935 18.8053C13.3935 18.8053 14.4765 18.8774 14.657 18.8414C14.8736 18.8053 15.2708 18.7333 15.2708 18.7333L19.4224 18.8053C19.4224 18.8053 19.4946 18.7693 19.8917 18.7333C20.2527 18.6612 21.1552 18.7693 21.1552 18.7693H22.8159V16.7872L21.6968 16.6431ZM22.9603 12.4987C22.9964 12.3545 22.9964 12.2104 23.0325 12.1023C23.1047 11.7059 23.0686 11.4176 23.0325 11.2013C22.9964 10.9491 22.9242 10.841 22.9242 10.841C22.9242 10.841 22.5632 10.877 22.1661 11.1293C21.9495 11.2734 21.6968 11.5257 21.5523 11.85C21.5162 11.9221 21.444 12.0302 21.4079 12.1023C21.3718 12.2104 21.3718 12.2825 21.3357 12.3545C21.2996 12.5347 21.2635 12.7149 21.2635 12.8951C21.2635 13.0753 21.2635 13.2195 21.2635 13.3276C21.2635 13.3636 21.2274 13.3996 21.2635 13.4357C21.3357 13.5798 21.2635 13.688 21.2635 13.76C21.2635 13.7961 21.3718 13.7961 21.3718 13.7961C21.3718 13.7961 21.3718 13.8321 21.4801 13.7961C21.6968 13.76 22.0217 13.688 22.2383 13.4357C22.3827 13.2915 22.5632 13.1474 22.6715 12.9672C22.7076 12.8951 22.7076 12.823 22.7437 12.751C22.852 12.751 22.9242 12.6428 22.9603 12.4987Z" fill="url(#paint0_linear)"/>
</g>
<defs>
<linearGradient id="paint0_linear" x1="3.12978" y1="11.5444" x2="41.5773" y2="33.781" gradientUnits="userSpaceOnUse">
<stop stop-color="#8DBE22"/>
<stop offset="0.2933" stop-color="#72B22C"/>
<stop offset="0.7415" stop-color="#4BA434"/>
<stop offset="1" stop-color="#399F37"/>
</linearGradient>
<clipPath id="clip0">
<rect width="110" height="44.5789" fill="white" transform="translate(0 0.210571)"/>
</clipPath>
</defs>
</svg>
