<svg width="190" height="77" viewBox="0 0 190 77" fill="none" xmlns="http://www.w3.org/2000/svg">
<g clip-path="url(#clip0)">
<path d="M95.9042 19.4835C95.53 19.4835 94.8441 19.4212 94.3453 19.359L92.5369 23.8408C91.6016 26.2062 90.1674 26.5797 89.232 26.5797C87.6108 26.5797 86.7378 25.4592 86.7378 24.2765C86.7378 23.0316 87.7355 21.9111 89.232 22.0356V23.2806C88.2343 23.2183 87.9849 23.8408 87.9849 24.2765C87.9849 24.899 88.4838 25.3347 89.1073 25.3347C90.105 25.3347 90.7286 24.4633 91.3522 22.9693L92.9734 19.0477C91.7263 18.7987 90.4168 18.4875 89.6685 18.4875C88.8579 18.4875 88.5461 18.861 88.5461 19.2967C88.5461 19.7324 88.9203 19.9814 89.2944 19.9814C89.7309 19.9814 90.0427 19.6702 90.0427 19.6702L90.6662 20.6039C90.6662 20.6039 90.1674 21.1641 89.232 21.1641C88.2343 21.1641 87.3614 20.4794 87.3614 19.2967C87.3614 18.3008 88.0473 17.2426 89.7933 17.2426C91.4769 17.2426 94.1582 18.2385 95.9042 18.2385C96.8395 18.2385 97.1513 17.9273 97.1513 17.9273L97.9619 18.363C97.8996 18.363 97.7125 19.4835 95.9042 19.4835Z" fill="#399F37"/>
<path d="M100.269 23.654C99.4584 25.0857 98.3983 26.3307 97.2759 26.3307C96.7147 26.3307 96.2159 26.0817 96.1535 25.3969C95.6547 25.9572 95.1558 26.3307 94.4699 26.3307C93.5969 26.3307 92.911 25.6459 93.7216 23.7163L94.9687 20.7284H96.4653L95.0934 24.0898C94.6569 25.148 94.844 25.3347 95.0311 25.3347C95.5299 25.3347 96.0288 24.5255 96.59 23.5918L97.7124 20.7906H99.209L97.8371 24.152C97.4006 25.2725 97.5254 25.5214 97.7748 25.5214C98.2113 25.5214 98.9595 24.65 99.7078 23.405C99.9573 23.2805 100.207 23.4673 100.269 23.654Z" fill="#399F37"/>
<path d="M99.7703 23.2805C100.02 22.8448 100.331 22.2223 100.643 21.5376C100.456 21.3508 100.331 21.1641 100.331 20.8529C100.331 20.2926 100.893 19.7947 101.329 19.6702L101.953 20.0437L101.579 20.9151C102.015 21.2886 103.138 21.8488 103.138 22.5958C103.138 22.7203 103.075 22.907 103.013 23.156L102.639 24.0275C102.14 25.2102 102.389 25.3969 102.576 25.3969C102.888 25.3969 103.449 24.7122 104.26 23.2805C104.447 23.2805 104.759 23.4673 104.821 23.654C104.011 25.0857 103.2 26.3306 102.077 26.3306C101.267 26.3306 100.519 25.7082 101.267 23.8407L101.641 22.9693C101.703 22.7825 101.766 22.658 101.766 22.5958C101.766 22.409 101.516 22.2223 101.204 21.9111C100.955 22.5335 100.643 23.0938 100.331 23.654C100.082 23.654 99.8326 23.4673 99.7703 23.2805Z" fill="#399F37"/>
<path d="M107.877 23.6541C107.066 25.0858 106.006 26.3307 104.884 26.3307C103.948 26.3307 103.325 25.646 104.073 23.7163L105.32 20.7285H106.817L105.445 24.0898C104.946 25.2725 105.133 25.4593 105.382 25.4593C105.819 25.4593 106.63 24.65 107.378 23.3429C107.565 23.2806 107.814 23.4673 107.877 23.6541ZM105.757 19.359C105.757 18.9233 106.131 18.5498 106.567 18.5498C107.004 18.5498 107.44 18.9233 107.44 19.359C107.44 19.7948 107.066 20.2305 106.567 20.2305C106.131 20.1682 105.757 19.7948 105.757 19.359Z" fill="#399F37"/>
<path d="M107.315 23.2806C107.752 22.5336 108.438 21.2264 108.812 20.355L110.059 20.7285C109.747 22.2224 109.997 23.9031 109.997 24.5256C109.997 24.8368 109.997 25.0235 109.934 25.2103C110.496 24.8368 110.994 24.1521 111.493 23.2806C111.68 23.2806 111.992 23.4673 112.054 23.6541C111.306 25.0235 110.309 26.3307 108.563 26.3307C107.378 26.3307 106.879 25.646 106.879 25.5838L107.69 25.0858C107.814 25.2103 107.939 25.2725 108.126 25.2725C108.5 25.2725 108.687 25.0235 108.687 23.9653C108.687 23.4673 108.625 22.7826 108.687 22.1602C108.438 22.7204 108.126 23.2806 107.877 23.6541C107.69 23.6541 107.378 23.4674 107.315 23.2806Z" fill="#399F37"/>
<path d="M120.847 23.654C119.974 25.1479 119.038 26.3306 117.791 26.3306C116.794 26.3306 116.295 25.5837 117.043 23.654L117.292 23.0315C117.479 22.5336 117.667 22.0978 117.667 21.9733C117.667 21.8488 117.542 21.7243 117.355 21.7243C117.105 21.7243 116.606 21.9733 116.108 22.4713L114.611 26.1439H113.115C113.364 25.5837 114.112 23.654 114.362 23.0315C114.549 22.5336 114.736 22.0978 114.736 21.9733C114.736 21.8488 114.611 21.7866 114.486 21.7866C114.237 21.7866 113.738 22.0356 113.239 22.5336L111.743 26.2061H110.371L112.616 20.7284H114.112L113.863 21.2886C114.05 21.1019 114.798 20.6039 115.484 20.6039C116.108 20.6039 116.419 20.9774 116.419 21.4753C116.794 21.1019 117.542 20.6039 118.29 20.6039C118.914 20.6039 119.288 20.9151 119.288 21.4753C119.288 21.7866 119.163 22.1601 118.976 22.7203L118.415 24.0897C117.916 25.3347 118.165 25.4592 118.352 25.4592C118.789 25.4592 119.6 24.65 120.348 23.3428C120.473 23.2805 120.784 23.4673 120.847 23.654Z" fill="#399F37"/>
<path d="M126.646 23.654C126.022 24.6499 125.087 25.3969 124.027 25.2102C123.528 25.8326 122.78 26.2684 121.907 26.2684C120.784 26.2684 120.098 25.5837 120.098 24.401C120.098 23.0315 121.158 20.4794 123.279 20.4794C124.401 20.4794 125.087 21.1641 125.087 22.2845C125.087 22.907 124.9 23.7162 124.526 24.401C125.087 24.401 125.648 24.0275 126.147 23.156C126.272 23.2805 126.583 23.4672 126.646 23.654ZM122.717 24.7122C122.593 24.5877 122.53 24.401 122.53 24.152C122.53 23.7162 122.904 23.3427 123.403 23.405C123.59 22.907 123.715 22.409 123.715 22.0978C123.715 21.6621 123.528 21.5376 123.279 21.5376C122.406 21.5376 121.533 23.903 121.533 24.7744C121.533 25.1479 121.72 25.3969 121.969 25.3969C122.156 25.3347 122.468 25.0857 122.717 24.7122Z" fill="#399F37"/>
<path d="M135.313 23.654C134.503 25.0857 133.505 26.3306 132.258 26.3306C131.198 26.3306 131.136 25.4591 131.136 25.4591C131.136 25.4591 130.45 26.3306 129.514 26.3306C128.766 26.3306 128.392 25.7081 128.392 25.0234C128.392 23.8407 129.39 20.5416 131.26 20.5416C132.196 20.5416 132.445 21.4131 132.445 21.4131L133.567 18.6119H135.064L132.882 24.0897C132.383 25.2724 132.57 25.4591 132.819 25.4591C133.256 25.4591 134.066 24.6499 134.815 23.3427C135.002 23.2805 135.251 23.4672 135.313 23.654ZM131.26 24.2764L132.009 22.409C132.009 22.409 132.009 21.7866 131.51 21.7866C130.637 21.7866 129.764 23.9652 129.764 24.7122C129.764 25.0234 129.888 25.0857 130.138 25.0857C130.761 25.1479 131.26 24.2764 131.26 24.2764Z" fill="#399F37"/>
<path d="M140.427 23.654C139.678 24.8989 138.431 26.3306 136.498 26.3306C135.189 26.3306 134.503 25.6459 134.503 24.5255C134.503 23.0938 135.625 20.5416 137.745 20.5416C138.868 20.5416 139.741 21.3508 139.055 22.7825C138.618 23.7785 137.683 24.2765 135.937 24.0897C135.937 24.0897 135.563 25.3347 136.872 25.3347C137.932 25.3347 139.055 24.5255 139.865 23.2183C140.115 23.2805 140.364 23.4673 140.427 23.654ZM136.249 23.3428C137.246 23.5295 137.621 23.0315 137.808 22.4713C137.995 22.0356 138.057 21.7243 137.683 21.7243C136.872 21.7243 136.249 23.3428 136.249 23.3428Z" fill="#399F37"/>
<path d="M94.0958 42.764C94.0958 42.515 93.9711 42.266 93.6593 42.1415C93.3475 41.9548 92.9734 41.8303 92.5369 41.6436C92.1004 41.4568 91.6015 41.3323 91.0403 41.1456C90.4791 40.9588 89.9803 40.7098 89.5438 40.4609C89.1073 40.2119 88.6708 39.8384 88.4214 39.4027C88.1096 38.9669 87.9849 38.4689 87.9849 37.7842C87.9849 36.7883 88.359 35.979 89.1073 35.3566C89.8555 34.7963 90.8533 34.4851 92.1627 34.4851C92.8487 34.4851 93.4099 34.5474 93.9711 34.6718C94.5323 34.7963 95.0311 34.9831 95.4676 35.2943C95.9041 35.5433 96.2159 35.9168 96.4653 36.3525C96.7147 36.7883 96.8395 37.2862 96.8395 37.8465C96.8395 37.971 96.7771 38.0955 96.7148 38.22C96.6524 38.3444 96.4653 38.3444 96.3406 38.3444H94.5323C94.3452 38.3444 94.2205 38.2822 94.1581 38.1577C94.0958 38.0332 93.9711 37.9087 93.9711 37.7842C93.8464 37.4107 93.6593 37.224 93.3475 37.0995C93.0357 37.0372 92.6616 36.975 92.2251 36.975C91.7886 36.975 91.4768 37.0373 91.2897 37.1617C91.1027 37.2862 90.978 37.473 90.978 37.722C90.978 37.971 91.1027 38.1577 91.4145 38.3444C91.7262 38.5312 92.1004 38.6557 92.5369 38.8424C92.9734 39.0292 93.4722 39.1537 94.0334 39.4027C94.5946 39.5894 95.0935 39.8384 95.53 40.1496C95.9665 40.4609 96.3406 40.7721 96.6524 41.2078C96.9642 41.6436 97.0889 42.1415 97.0889 42.7018C97.0889 43.262 96.9642 43.76 96.7148 44.1957C96.4653 44.6314 96.1535 45.0049 95.7794 45.2539C95.4053 45.5651 94.9064 45.7519 94.3452 45.8764C93.784 46.0009 93.2228 46.0631 92.5369 46.0631C91.8509 46.0631 91.2897 46.0009 90.7285 45.8764C90.1673 45.7519 89.6685 45.5029 89.2943 45.2539C88.8578 44.9427 88.5461 44.6314 88.359 44.1957C88.1096 43.76 87.9849 43.262 87.9849 42.7018C87.9849 42.5773 88.0472 42.4528 88.1096 42.3283C88.2343 42.2038 88.359 42.2038 88.4837 42.2038H90.292C90.4791 42.2038 90.6038 42.266 90.6662 42.3905C90.7285 42.515 90.8532 42.6395 90.8532 42.764C90.978 43.1375 91.165 43.3865 91.5392 43.4487C91.851 43.5732 92.2251 43.6355 92.5369 43.6355C92.7239 43.6355 92.911 43.6355 93.0981 43.6355C93.2852 43.6355 93.4722 43.5732 93.5969 43.511C93.7216 43.4487 93.8464 43.3865 93.9711 43.262C94.0334 43.0752 94.0958 42.9508 94.0958 42.764Z" fill="#8DBE22"/>
<path d="M108.687 45.3161C108.687 45.4406 108.625 45.5651 108.563 45.6896C108.5 45.8141 108.376 45.8764 108.251 45.8764H106.505C106.318 45.8764 106.193 45.8141 106.068 45.6896C105.944 45.5651 105.881 45.4406 105.881 45.3161L105.569 44.4447H101.953L101.641 45.3161C101.579 45.4406 101.516 45.5651 101.454 45.6896C101.329 45.8141 101.205 45.8764 101.017 45.8764H99.2715C99.1467 45.8764 99.022 45.8141 98.9597 45.6896C98.8973 45.5651 98.835 45.4406 98.835 45.3161L101.828 35.2321C101.89 35.1076 101.953 34.9831 102.015 34.8586C102.078 34.7341 102.265 34.6718 102.452 34.6718H105.133C105.32 34.6718 105.507 34.7341 105.569 34.8586C105.632 34.9831 105.694 35.1076 105.757 35.2321L108.687 45.3161ZM107.315 32.0575C107.315 32.1819 107.315 32.2442 107.253 32.3687C107.191 32.4932 107.128 32.5554 107.066 32.5554C106.754 32.8044 106.442 33.0534 106.068 33.1779C105.694 33.3646 105.32 33.4269 104.884 33.4269C104.634 33.4269 104.447 33.3646 104.26 33.3024C104.073 33.2402 103.886 33.1157 103.699 33.0534C103.512 32.9289 103.325 32.8667 103.075 32.8044C102.888 32.7422 102.639 32.6799 102.452 32.6799C102.265 32.6799 102.077 32.6799 101.953 32.7422C101.828 32.8044 101.641 32.8667 101.516 32.9912C101.454 32.9912 101.392 33.0534 101.392 33.0534C101.329 33.0534 101.329 33.0534 101.267 33.0534C101.08 33.0534 100.955 32.9912 100.83 32.8044L100.269 31.3727C100.269 31.3105 100.269 31.2482 100.269 31.2482C100.269 31.186 100.269 31.186 100.269 31.1237C100.269 30.937 100.332 30.8125 100.456 30.7503C100.768 30.5013 101.08 30.3145 101.392 30.19C101.703 30.0033 102.077 29.941 102.452 29.941C102.701 29.941 102.95 30.0033 103.2 30.0655C103.449 30.1278 103.636 30.2523 103.823 30.3145C104.011 30.439 104.198 30.5013 104.385 30.5635C104.572 30.6258 104.759 30.688 104.946 30.688C105.195 30.688 105.382 30.688 105.507 30.6258C105.694 30.5635 105.819 30.5013 106.006 30.3145C106.068 30.2523 106.131 30.2523 106.131 30.2523H106.193C106.318 30.2523 106.38 30.2523 106.442 30.3145C106.505 30.3768 106.567 30.439 106.63 30.5013L107.315 32.0575ZM104.821 41.768L103.823 38.3444L102.826 41.768H104.821Z" fill="#8DBE22"/>
<path d="M115.796 46.0009C114.985 46.0009 114.237 45.8764 113.551 45.5651C112.927 45.2539 112.366 44.8804 111.93 44.3824C111.493 43.8845 111.119 43.262 110.932 42.5773C110.683 41.8925 110.558 41.1456 110.558 40.2741C110.558 39.4649 110.683 38.6557 110.932 37.971C111.181 37.2862 111.493 36.6638 111.93 36.1035C112.366 35.6056 112.927 35.1698 113.551 34.8586C114.175 34.5473 114.923 34.4229 115.796 34.4229C116.606 34.4229 117.355 34.5473 118.041 34.8586C118.664 35.1698 119.225 35.5433 119.662 36.1035C120.098 36.6015 120.473 37.224 120.66 37.971C120.909 38.6557 121.034 39.4649 121.034 40.2741C121.034 41.0833 120.909 41.8925 120.66 42.5773C120.41 43.262 120.098 43.8845 119.662 44.3824C119.225 44.8804 118.664 45.2539 118.041 45.5651C117.417 45.8764 116.669 46.0009 115.796 46.0009ZM115.796 43.3865C116.232 43.3865 116.606 43.3242 116.856 43.1375C117.168 42.9507 117.417 42.764 117.604 42.515C117.791 42.266 117.916 41.8925 117.978 41.519C118.041 41.1456 118.103 40.7721 118.103 40.3364C118.103 39.9006 118.041 39.5271 117.978 39.0914C117.916 38.7179 117.729 38.3444 117.604 38.0954C117.417 37.7842 117.168 37.5352 116.856 37.4107C116.544 37.224 116.17 37.1617 115.796 37.1617C115.359 37.1617 114.985 37.224 114.736 37.4107C114.424 37.5975 114.175 37.8465 113.987 38.0954C113.8 38.4067 113.676 38.7179 113.551 39.0914C113.489 39.4649 113.426 39.9006 113.426 40.3364C113.426 40.7721 113.489 41.1456 113.551 41.519C113.613 41.8925 113.8 42.2038 113.987 42.515C114.175 42.764 114.424 43.013 114.736 43.1375C115.048 43.3242 115.359 43.3865 115.796 43.3865Z" fill="#8DBE22"/>
<path d="M135.75 34.8586C135.874 34.9831 135.937 35.1076 135.937 35.2321V36.9128C135.937 37.0995 135.874 37.224 135.75 37.2863C135.625 37.3485 135.5 37.4108 135.376 37.4108H133.068V45.3162C133.068 45.4407 133.006 45.5652 132.944 45.6897C132.881 45.8142 132.757 45.8764 132.57 45.8764H130.699C130.574 45.8764 130.449 45.8142 130.325 45.6897C130.2 45.5652 130.138 45.4407 130.138 45.3162V37.4108H127.83C127.706 37.4108 127.581 37.3485 127.456 37.2863C127.332 37.224 127.269 37.0995 127.269 36.9128V35.2321C127.269 35.1076 127.332 34.9831 127.456 34.8586C127.581 34.7341 127.706 34.6719 127.83 34.6719H135.376C135.5 34.6719 135.625 34.7341 135.75 34.8586Z" fill="#8DBE22"/>
<path d="M142.734 46.0009C141.923 46.0009 141.175 45.8764 140.489 45.5651C139.865 45.2539 139.304 44.8804 138.868 44.3824C138.431 43.8845 138.057 43.262 137.87 42.5773C137.621 41.8925 137.496 41.1456 137.496 40.2741C137.496 39.4649 137.621 38.6557 137.87 37.971C138.119 37.2862 138.431 36.6638 138.868 36.1035C139.304 35.6056 139.865 35.1698 140.489 34.8586C141.113 34.5473 141.861 34.4229 142.734 34.4229C143.544 34.4229 144.293 34.5473 144.979 34.8586C145.602 35.1698 146.163 35.5433 146.6 36.1035C147.036 36.6015 147.411 37.224 147.598 37.971C147.847 38.6557 147.972 39.4649 147.972 40.2741C147.972 41.0833 147.847 41.8925 147.598 42.5773C147.348 43.262 147.036 43.8845 146.6 44.3824C146.163 44.8804 145.602 45.2539 144.979 45.5651C144.293 45.8764 143.544 46.0009 142.734 46.0009ZM142.734 43.3865C143.17 43.3865 143.544 43.3242 143.794 43.1375C144.106 42.9507 144.355 42.764 144.542 42.515C144.729 42.266 144.854 41.8925 144.916 41.519C144.979 41.1456 145.041 40.7721 145.041 40.3364C145.041 39.9006 144.979 39.5271 144.916 39.0914C144.854 38.7179 144.667 38.3444 144.542 38.0954C144.355 37.7842 144.106 37.5352 143.794 37.4107C143.482 37.224 143.108 37.1617 142.734 37.1617C142.297 37.1617 141.923 37.224 141.674 37.4107C141.362 37.5975 141.113 37.8465 140.925 38.0954C140.738 38.4067 140.614 38.7179 140.489 39.0914C140.427 39.4649 140.364 39.9006 140.364 40.3364C140.364 40.7721 140.427 41.1456 140.489 41.519C140.551 41.8925 140.738 42.2038 140.925 42.515C141.113 42.764 141.362 43.013 141.674 43.1375C141.923 43.3242 142.297 43.3865 142.734 43.3865Z" fill="#8DBE22"/>
<path d="M156.327 43.76C156.14 43.76 156.016 43.6977 155.891 43.5732L153.771 40.2741V45.3784C153.771 45.5029 153.708 45.6274 153.646 45.7519C153.584 45.8764 153.459 45.9386 153.272 45.9386H151.401C151.277 45.9386 151.152 45.8764 151.027 45.7519C150.902 45.6274 150.84 45.5029 150.84 45.3784V35.2321C150.84 35.1076 150.902 34.9831 151.027 34.8586C151.152 34.7341 151.277 34.6719 151.401 34.6719H153.21C153.272 34.6719 153.397 34.6719 153.459 34.7341C153.584 34.7964 153.646 34.8586 153.646 34.9209C153.708 34.9831 153.833 35.1699 154.083 35.5433C154.27 35.8546 154.519 36.2903 154.893 36.8505C155.267 37.4108 155.766 38.22 156.452 39.2782C157.076 38.22 157.575 37.4108 157.949 36.8505C158.323 36.2903 158.572 35.8546 158.759 35.5433C159.009 35.2321 159.133 34.9831 159.196 34.9209C159.258 34.8586 159.321 34.7341 159.383 34.7341C159.508 34.6719 159.57 34.6719 159.632 34.6719H161.441C161.565 34.6719 161.69 34.7341 161.815 34.8586C161.94 34.9831 162.002 35.1076 162.002 35.2321V45.3162C162.002 45.4407 161.94 45.5652 161.815 45.6897C161.69 45.8142 161.565 45.8764 161.441 45.8764H159.57C159.383 45.8764 159.258 45.8142 159.196 45.6897C159.133 45.5652 159.071 45.4407 159.071 45.3162V40.2119L156.951 43.511C156.889 43.6355 156.702 43.6977 156.515 43.6977H156.327V43.76Z" fill="#8DBE22"/>
<path d="M173.6 34.6719C173.725 34.6719 173.85 34.7341 173.974 34.7964C174.099 34.8586 174.161 34.9831 174.161 35.1698V36.8505C174.161 36.975 174.099 37.0995 173.974 37.224C173.85 37.3485 173.725 37.4107 173.6 37.4107H168.861V38.9669H172.228C172.353 38.9669 172.478 39.0292 172.602 39.1537C172.727 39.2782 172.79 39.4027 172.79 39.5272V41.0833C172.79 41.2701 172.727 41.3946 172.602 41.4568C172.478 41.5191 172.353 41.5813 172.228 41.5813H168.861V43.1375H173.6C173.725 43.1375 173.85 43.1998 173.974 43.3242C174.099 43.4487 174.161 43.5732 174.161 43.6977V45.3784C174.161 45.5652 174.099 45.6896 173.974 45.7519C173.85 45.8141 173.725 45.8764 173.6 45.8764H166.492C166.367 45.8764 166.242 45.8141 166.117 45.6897C165.993 45.5652 165.993 45.4407 165.993 45.3162V35.1698C165.993 35.0453 166.055 34.9209 166.117 34.7964C166.242 34.6719 166.367 34.6096 166.492 34.6096H173.6V34.6719ZM171.917 30.1278C172.041 30.1278 172.166 30.1901 172.291 30.3145C172.415 30.439 172.415 30.5635 172.415 30.688L171.542 32.9289C171.48 33.0534 171.418 33.1779 171.231 33.3024C171.106 33.4269 170.919 33.4892 170.794 33.4892H169.173C168.986 33.4892 168.861 33.4269 168.799 33.3024C168.736 33.1779 168.674 33.0534 168.674 32.9289L169.547 30.688C169.609 30.5635 169.672 30.439 169.796 30.3145C169.921 30.1901 170.046 30.1278 170.233 30.1278H171.917Z" fill="#8DBE22"/>
<path d="M189.501 34.6719C189.626 34.6719 189.75 34.7341 189.875 34.7964C190 34.8586 190.062 34.9831 190.062 35.1698V36.8505C190.062 36.975 190 37.0995 189.875 37.224C189.75 37.3485 189.626 37.4108 189.501 37.4108H184.762V38.9669H188.129C188.254 38.9669 188.379 39.0292 188.503 39.1537C188.628 39.2782 188.69 39.4027 188.69 39.5272V41.0833C188.69 41.2701 188.628 41.3946 188.503 41.4568C188.379 41.5191 188.254 41.5813 188.129 41.5813H184.762V43.1375H189.501C189.626 43.1375 189.75 43.1998 189.875 43.3243C190 43.4487 190.062 43.5732 190.062 43.6977V45.3784C190.062 45.5652 190 45.6897 189.875 45.7519C189.75 45.8141 189.626 45.8764 189.501 45.8764H182.392C182.268 45.8764 182.143 45.8142 182.018 45.6897C181.894 45.5652 181.894 45.4407 181.894 45.3162V35.1698C181.894 35.0454 181.956 34.9209 182.018 34.7964C182.143 34.6719 182.268 34.6096 182.392 34.6096H189.501V34.6719Z" fill="#8DBE22"/>
<path d="M92.5994 53.3461C93.41 53.3461 94.1583 53.4706 94.7818 53.7196C95.4054 53.9685 95.9042 54.2798 96.2784 54.6533C96.6525 55.0268 96.9643 55.4625 97.1514 55.9605C97.3384 56.4584 97.4632 56.9564 97.4632 57.5166V57.7034C97.4632 58.2636 97.3384 58.7616 97.1514 59.2596C96.9643 59.7575 96.6525 60.1933 96.2784 60.629C95.9042 61.0025 95.4054 61.3137 94.7818 61.5627C94.1583 61.8117 93.4723 61.9362 92.5994 61.9362H91.5393V64.0526C91.5393 64.1771 91.4769 64.3016 91.4146 64.4261C91.3522 64.5506 91.2275 64.6128 91.0404 64.6128H89.1698C89.045 64.6128 88.9203 64.5506 88.7956 64.4261C88.6709 64.3016 88.6709 64.1771 88.6709 64.0526V53.9063C88.6709 53.7818 88.7333 53.6573 88.7956 53.5328C88.9203 53.4083 89.045 53.3461 89.1698 53.3461H92.5994ZM91.5393 56.0227V59.3218H92.5994C93.0358 59.3218 93.3476 59.2596 93.6594 59.1973C93.9088 59.1351 94.0959 59.0106 94.2206 58.8238C94.3453 58.6993 94.47 58.5126 94.47 58.3259C94.5324 58.1391 94.5324 57.9524 94.5324 57.7656V57.5789C94.5324 57.3921 94.5324 57.2054 94.47 57.0187C94.4077 56.8319 94.3453 56.6452 94.2206 56.5207C94.0959 56.3962 93.9088 56.2717 93.6594 56.1472C93.41 56.085 93.0358 56.0227 92.5994 56.0227H91.5393Z" fill="#8DBE22"/>
<path d="M103.886 53.3461C104.696 53.3461 105.445 53.4706 106.068 53.7196C106.692 53.9685 107.191 54.2798 107.565 54.6533C107.939 55.0268 108.251 55.4625 108.438 55.9605C108.625 56.4584 108.749 56.9564 108.749 57.5166V57.7034C108.749 58.3881 108.625 59.0728 108.313 59.6953C108.001 60.3178 107.502 60.8158 106.879 61.1892L108.188 63.9904C108.188 64.1149 108.126 64.2394 108.001 64.3639C107.876 64.4884 107.752 64.5506 107.627 64.5506H105.819C105.694 64.5506 105.569 64.4884 105.445 64.3639C105.382 64.2394 105.257 64.1149 105.195 63.9904L104.197 61.874H102.888V63.9904C102.888 64.1149 102.826 64.2394 102.763 64.3639C102.701 64.4884 102.576 64.5506 102.389 64.5506H100.518C100.394 64.5506 100.269 64.4884 100.144 64.3639C100.02 64.2394 100.02 64.1149 100.02 63.9904V53.9063C100.02 53.7818 100.082 53.6573 100.144 53.5328C100.269 53.4083 100.394 53.3461 100.518 53.3461H103.886ZM102.888 56.0227V59.3218H103.948C104.384 59.3218 104.696 59.2596 105.008 59.1973C105.257 59.1351 105.445 59.0106 105.569 58.8238C105.694 58.6993 105.819 58.5126 105.819 58.3259C105.881 58.1391 105.881 57.9524 105.881 57.7656V57.5789C105.881 57.3922 105.881 57.2054 105.819 57.0187C105.756 56.8319 105.694 56.6452 105.569 56.5207C105.445 56.3962 105.257 56.2717 105.008 56.1472C104.759 56.085 104.384 56.0227 103.948 56.0227H102.888Z" fill="#8DBE22"/>
<path d="M114.05 53.3461C114.174 53.3461 114.299 53.4083 114.424 53.5328C114.549 53.6573 114.549 53.7818 114.549 53.9063V63.9904C114.549 64.1149 114.486 64.2394 114.424 64.3639C114.299 64.4884 114.174 64.5506 114.05 64.5506H112.179C111.992 64.5506 111.867 64.4884 111.805 64.3639C111.743 64.2394 111.68 64.1149 111.68 63.9904V53.9063C111.68 53.7818 111.743 53.6573 111.805 53.5328C111.867 53.4083 111.992 53.3461 112.179 53.3461H114.05ZM115.047 48.8643C115.172 48.8643 115.297 48.9265 115.422 49.051C115.546 49.1755 115.546 49.3 115.546 49.4245L114.673 51.6654C114.611 51.7899 114.549 51.9144 114.361 52.0389C114.237 52.1634 114.05 52.2256 113.925 52.2256H112.304C112.117 52.2256 111.992 52.1634 111.93 52.0389C111.867 51.9144 111.805 51.7899 111.805 51.6654L112.678 49.4245C112.74 49.3 112.803 49.1755 112.927 49.051C113.052 48.9265 113.177 48.8643 113.364 48.8643H115.047Z" fill="#8DBE22"/>
<path d="M127.394 53.5328C127.519 53.6573 127.581 53.7818 127.581 53.9063V63.9904C127.581 64.1149 127.519 64.2393 127.394 64.3638C127.269 64.4883 127.145 64.5506 127.02 64.5506H125.274C125.212 64.5506 125.087 64.5506 125.025 64.4883C124.962 64.4261 124.838 64.3638 124.775 64.3016L121.346 58.9483V64.0526C121.346 64.1771 121.283 64.3016 121.221 64.4261C121.158 64.5506 121.034 64.6128 120.847 64.6128H118.976C118.851 64.6128 118.727 64.5506 118.602 64.4261C118.477 64.3016 118.415 64.1771 118.415 64.0526V53.9063C118.415 53.7818 118.477 53.6573 118.602 53.5328C118.727 53.4083 118.851 53.3461 118.976 53.3461H120.784C120.847 53.3461 120.971 53.3461 121.034 53.4083C121.158 53.4706 121.221 53.5328 121.221 53.5951C121.283 53.6573 121.408 53.844 121.657 54.2798C121.782 54.4665 121.907 54.6533 122.031 54.9022C122.219 55.1512 122.406 55.4625 122.655 55.836C122.904 56.2094 123.154 56.6452 123.466 57.1432C123.777 57.6411 124.152 58.2014 124.526 58.8861V53.844C124.526 53.7195 124.588 53.5951 124.65 53.4706C124.713 53.3461 124.838 53.2838 125.025 53.2838H126.895C127.207 53.3461 127.332 53.4083 127.394 53.5328Z" fill="#8DBE22"/>
<path d="M135.563 55.6492C135.126 55.6492 134.752 55.7737 134.503 55.9604C134.191 56.1472 133.942 56.3962 133.755 56.7074C133.567 57.0186 133.443 57.3921 133.318 57.7656C133.256 58.1391 133.193 58.5748 133.193 59.0106C133.193 59.4463 133.256 59.882 133.318 60.2555C133.38 60.629 133.567 61.0025 133.755 61.2515C133.942 61.5627 134.191 61.7494 134.503 61.9362C134.815 62.1229 135.189 62.1852 135.563 62.1852C135.999 62.1852 136.436 62.0607 136.872 61.8739C137.309 61.6872 137.621 61.3137 137.932 60.8157C138.057 60.629 138.182 60.5667 138.431 60.5667C138.494 60.5667 138.618 60.5667 138.681 60.629L139.928 61.2515C140.115 61.376 140.177 61.5004 140.177 61.7494C140.177 61.8117 140.177 61.9362 140.115 61.9984C139.678 62.8076 139.117 63.4924 138.369 63.9903C137.621 64.4883 136.623 64.7373 135.563 64.7373C134.752 64.7373 134.004 64.6128 133.318 64.3016C132.694 63.9903 132.133 63.6169 131.697 63.1189C131.26 62.6209 130.886 61.9984 130.699 61.3137C130.45 60.629 130.325 59.882 130.325 59.0106C130.325 58.2013 130.45 57.3921 130.699 56.7074C130.949 56.0227 131.26 55.4002 131.697 54.84C132.133 54.342 132.694 53.9063 133.318 53.595C133.942 53.2838 134.69 53.1593 135.563 53.1593C136.685 53.1593 137.621 53.4083 138.369 53.9063C139.117 54.4042 139.741 55.0267 140.115 55.8982C140.177 55.9604 140.177 56.0849 140.177 56.1472C140.177 56.3339 140.115 56.5207 139.928 56.6452L138.681 57.2676C138.618 57.3299 138.494 57.3299 138.431 57.3299C138.182 57.3299 138.057 57.2676 137.932 57.0809C137.621 56.5829 137.247 56.2094 136.872 56.0227C136.436 55.7737 135.999 55.6492 135.563 55.6492Z" fill="#8DBE22"/>
<path d="M145.727 53.5328C145.789 53.6573 145.852 53.7818 145.852 53.9063V63.9904C145.852 64.1149 145.789 64.2394 145.727 64.3639C145.664 64.4884 145.54 64.5506 145.353 64.5506H143.482C143.357 64.5506 143.233 64.4884 143.108 64.3639C142.983 64.2394 142.983 64.1149 142.983 63.9904V53.9063C142.983 53.7818 143.046 53.6573 143.108 53.5328C143.233 53.4083 143.357 53.3461 143.482 53.3461H145.353C145.54 53.3461 145.664 53.4083 145.727 53.5328Z" fill="#8DBE22"/>
<path d="M153.708 53.3461C154.519 53.3461 155.267 53.4706 155.891 53.7196C156.515 53.9685 157.013 54.2798 157.388 54.6533C157.762 55.0268 158.073 55.4625 158.26 55.9605C158.448 56.4584 158.572 56.9564 158.572 57.5166V57.7034C158.572 58.2636 158.448 58.7616 158.26 59.2596C158.073 59.7575 157.762 60.1933 157.388 60.629C157.013 61.0025 156.515 61.3137 155.891 61.5627C155.267 61.8117 154.581 61.9362 153.708 61.9362H152.648V64.0526C152.648 64.1771 152.586 64.3016 152.524 64.4261C152.461 64.5506 152.337 64.6128 152.15 64.6128H150.279C150.154 64.6128 150.029 64.5506 149.905 64.4261C149.78 64.3016 149.78 64.1771 149.78 64.0526V53.9063C149.78 53.7818 149.842 53.6573 149.905 53.5328C150.029 53.4083 150.154 53.3461 150.279 53.3461H153.708ZM152.648 56.0227V59.3218H153.708C154.145 59.3218 154.457 59.2596 154.769 59.1973C155.018 59.1351 155.205 59.0106 155.33 58.8238C155.454 58.6993 155.579 58.5126 155.579 58.3259C155.642 58.1391 155.642 57.9524 155.642 57.7656V57.5789C155.642 57.3921 155.642 57.2054 155.579 57.0187C155.517 56.8319 155.454 56.6452 155.33 56.5207C155.205 56.3962 155.018 56.2717 154.769 56.1472C154.519 56.085 154.145 56.0227 153.708 56.0227H152.648Z" fill="#8DBE22"/>
<path d="M168.736 53.3461C168.861 53.3461 168.986 53.4083 169.111 53.4706C169.235 53.5328 169.298 53.6573 169.298 53.844V55.5247C169.298 55.6492 169.235 55.7737 169.111 55.8982C168.986 56.0227 168.861 56.0849 168.736 56.0849H163.997V57.6411H167.365C167.489 57.6411 167.614 57.7034 167.739 57.8279C167.863 57.9524 167.926 58.0769 167.926 58.2014V59.7575C167.926 59.9443 167.863 60.0688 167.739 60.131C167.614 60.1933 167.489 60.2555 167.365 60.2555H163.997V61.8117H168.736C168.861 61.8117 168.986 61.874 169.111 61.9984C169.235 62.1229 169.298 62.2474 169.298 62.3719V64.0526C169.298 64.2394 169.235 64.3638 169.111 64.4261C168.986 64.4883 168.861 64.5506 168.736 64.5506H161.628C161.503 64.5506 161.378 64.4883 161.254 64.3638C161.129 64.2394 161.129 64.1149 161.129 63.9904V53.844C161.129 53.7195 161.191 53.5951 161.254 53.4706C161.378 53.3461 161.503 53.2838 161.628 53.2838H168.736V53.3461Z" fill="#8DBE22"/>
<path d="M18.5822 50.4825C18.5822 50.4825 18.8316 50.4825 19.1434 50.4825C20.2035 50.4825 22.4483 50.7938 23.446 52.7234C24.8179 55.2756 23.0095 58.5125 23.0095 58.5125C23.0095 58.5125 21.3259 59.0727 20.2035 58.2012C19.7046 57.89 19.3305 57.2675 19.2681 56.2715C19.2058 55.8358 19.1434 55.2756 19.0811 54.5909C18.8316 52.7857 18.5822 50.4825 18.5822 50.4825ZM41.5917 40.3362C44.1483 38.2821 41.9035 35.0452 41.9035 35.0452C41.9035 35.0452 39.6587 35.6054 38.0374 37.9708C36.4161 40.3362 39.4093 43.3863 39.4093 43.3863C39.4093 43.3863 40.3446 41.3944 41.5917 40.3362ZM40.6564 32.1196C41.0305 34.0492 43.8989 34.7962 46.019 34.9829C46.5179 35.0452 46.5179 34.8585 46.9544 34.8585C47.2038 34.8585 47.5779 35.0452 47.765 35.0452C48.2639 35.0452 48.5756 34.9207 48.5756 34.9207C48.9498 34.6717 47.7027 32.8043 46.8297 30.5011C46.5802 29.8164 45.8943 28.7582 45.5825 28.0735C45.2708 27.5133 45.2084 27.5755 44.7719 27.1398C44.3978 26.7663 44.3978 26.3928 43.9613 26.1438C42.9012 25.4591 41.3423 24.8989 40.9058 24.7121C40.7187 24.6499 40.594 24.8989 40.5317 25.4591C40.4693 25.8326 40.407 26.3306 40.407 26.8908C40.407 27.0775 40.594 27.3888 40.5317 27.6378C40.5317 27.8867 40.3446 28.0735 40.3446 28.3847C40.2822 29.5052 40.407 30.8124 40.6564 32.1196ZM41.4047 4.41948C41.2799 2.11633 39.3469 0.0621661 39.1598 -8.12517e-05C38.9728 -0.0623286 37.3515 1.5561 37.4138 1.6806C37.5386 1.86734 37.0397 2.17858 37.0397 2.48981C37.0397 2.80105 36.6032 3.67251 36.6032 4.41948C36.4785 7.53185 39.2222 10.831 39.2222 10.831C39.2222 10.831 39.4716 10.4575 39.7834 9.835C39.8457 9.71051 39.9081 9.39927 40.0328 9.33703C40.1575 9.27478 40.1575 9.02579 40.2822 8.90129C40.8434 7.40736 41.467 5.66443 41.4047 4.41948ZM55.9961 70.0282C56.3078 70.4017 56.7443 70.7129 57.1808 70.9619C58.9892 71.9579 61.4211 72.0201 61.4211 72.0201C61.4211 72.0201 62.107 70.8374 62.2941 69.2812C62.4188 68.223 62.2941 67.0403 61.6081 65.9821C61.0469 65.1107 60.1116 64.4259 59.1139 63.928C56.9938 62.8075 54.4995 62.5585 54.4995 62.5585C54.4995 62.5585 54.4995 63.4922 54.5619 64.7372C54.6242 65.5464 54.7489 66.4179 54.8736 67.2893C55.1231 68.472 55.4972 69.4057 55.9961 70.0282ZM72.957 32.2441C73.0817 32.1818 73.2064 32.1196 73.2688 32.0573C74.0794 31.6216 74.7653 30.7501 75.2642 29.9409C75.6383 29.3184 75.8877 28.7582 76.0748 28.3225C76.2619 27.8867 76.1995 27.5755 76.1995 27.5755C76.1995 27.5755 75.2018 26.2683 73.7053 25.5836C73.5806 25.5213 73.5182 25.5836 73.3935 25.5213C72.5829 25.2101 71.7099 25.0856 70.7745 25.3346C70.338 25.4591 69.9639 25.6458 69.5274 25.8948C68.405 26.6418 67.4696 27.7623 66.7837 28.8827C66.659 29.0694 66.659 29.3807 66.5343 29.5674C66.4096 29.7542 66.2225 29.8787 66.1602 30.0654C65.8484 30.8124 65.8484 31.4348 65.8484 31.4348C65.8484 31.4348 66.2225 31.6838 67.0331 31.9328C67.2826 31.9951 67.532 31.9328 67.7814 32.0573C67.9685 32.1196 68.0932 32.1196 68.2803 32.1818C69.9015 32.4308 71.8346 32.742 72.957 32.2441ZM61.4834 11.4534C62.6058 9.71051 61.9823 7.15837 61.9823 7.15837C61.9823 7.15837 59.5504 6.90938 57.9291 8.96354C57.8044 9.08804 57.555 9.21253 57.4926 9.33703C57.4303 9.46152 57.4303 9.89725 57.3679 10.0217C57.2432 10.333 56.9938 10.2707 56.869 10.5197C56.5573 11.2667 56.4326 12.0759 56.3078 12.8229C56.1831 14.0678 56.4326 14.6281 56.4326 14.6281C56.4326 14.6281 56.3702 14.9393 56.5573 14.877C57.0561 14.6281 58.1162 14.1301 59.1139 13.4454C59.6751 13.0719 60.1739 12.9474 60.6104 12.5116C60.7351 12.3871 60.8599 12.0137 60.9846 11.8892C61.1093 11.8269 61.4211 11.5157 61.4834 11.4534ZM20.7647 8.6523C20.0164 7.90534 19.0187 7.40736 18.2081 7.03387C17.8339 6.90938 17.5222 6.78488 17.2727 6.72264C16.9609 6.59814 16.7115 6.59814 16.7115 6.59814C16.7115 6.59814 16.6492 6.72264 16.5868 6.90938C16.4621 7.28286 16.275 8.09208 16.3374 9.02579C16.3374 9.08804 16.3374 9.15028 16.3374 9.27478C16.3374 9.33703 16.3374 9.46152 16.3997 9.52377C16.5244 10.084 16.7115 10.7065 17.0857 11.2667C17.3351 11.6402 17.5845 11.9514 17.8963 12.2627C18.021 12.3871 18.1457 12.5116 18.2704 12.5739C19.0187 13.1964 19.8293 13.5076 20.4529 13.8811C20.7023 14.0678 20.7647 14.0678 20.8894 14.0678C21.2012 14.0056 21.2635 14.1923 21.3882 14.2546C21.5753 14.3168 21.6377 14.4413 21.7 14.3168C21.7624 14.2546 21.7624 13.9433 21.8247 13.2586C21.8247 13.1964 21.8871 13.0719 21.9495 12.9474C22.0118 12.0759 21.8871 10.9555 21.5753 9.9595C21.3882 9.46152 21.1388 9.02579 20.7647 8.6523ZM4.61437 47.2457C2.24483 48.1171 1.74598 51.354 1.74598 51.354C1.74598 51.354 3.11782 53.4082 5.23794 52.7857C5.54972 52.7234 5.8615 52.5367 6.17328 52.35C6.60978 52.0387 7.04627 51.7275 7.48277 51.4162C7.85691 51.105 8.23105 50.7938 8.60518 50.4825C8.79225 50.2958 8.97932 50.2336 9.16639 50.0468C9.22875 49.9846 9.35346 49.8601 9.41582 49.7978C10.0394 49.2376 10.6006 48.7396 11.0371 48.3661C11.5983 47.8681 11.723 47.6814 11.723 47.6814C11.723 47.6814 11.7854 47.4947 11.5359 47.4947C10.9747 47.3702 9.85231 47.1834 8.66754 47.1212C8.04398 47.0589 7.2957 46.9967 6.67214 46.9967C6.54742 46.9967 6.48507 47.0589 6.42271 47.0589C5.73679 46.9967 5.11323 47.0589 4.61437 47.2457ZM37.6633 76.6264C38.4115 76.9999 39.2845 77.0622 40.0952 76.9999C40.5317 76.9377 40.9058 76.8132 41.2176 76.7509C41.5294 76.6887 41.6541 76.7509 41.6541 76.7509C41.6541 76.7509 41.7788 76.3152 41.6541 75.6927C41.5294 75.008 41.2176 74.1365 40.5317 73.4518C40.3446 73.2651 40.1575 73.1406 39.9081 72.9538C38.9728 72.3314 37.7256 72.1446 36.6656 72.1446C36.4785 72.1446 36.2914 72.2691 36.1044 72.2691C35.9173 72.2691 35.7302 72.2691 35.5432 72.2691C34.7949 72.3314 34.296 72.4559 34.296 72.4559C34.296 72.4559 34.3584 72.5804 34.4831 72.7671C34.6078 73.0161 34.7949 73.3273 35.0443 73.7008C35.5432 74.51 36.1667 75.506 36.915 76.1285C37.1644 76.3152 37.4138 76.5019 37.6633 76.6264ZM5.48736 19.6078C4.92616 20.1681 4.67673 21.0395 4.55202 21.7243C4.48966 21.911 4.42731 22.16 4.48966 22.2845C4.48966 22.409 4.48966 22.5335 4.48966 22.658C4.48966 22.8447 4.48966 22.9692 4.48966 22.9692C4.48966 22.9692 4.73909 22.9692 5.05087 22.9692C5.67443 22.9692 7.35806 22.658 7.60748 22.3467C7.85691 22.0355 8.60518 21.7243 9.10404 21.2885C9.54053 20.7905 9.78996 20.2926 9.97703 19.7323C9.97703 19.6701 10.1017 19.7323 10.0394 19.5456C9.97703 19.3589 10.1641 19.0476 10.1641 18.7986C10.2265 18.4251 10.2265 18.1139 10.2265 17.8649C10.2265 17.3669 10.2888 17.1802 10.1641 17.1179C9.97703 17.0557 9.60289 17.2424 9.47817 17.3669C9.41582 17.5537 9.22875 17.4914 9.10404 17.5537C8.66754 17.7404 7.7322 17.9894 7.54513 18.3006C7.23334 18.6119 5.8615 19.1721 5.48736 19.6078ZM17.2104 68.0363C17.0233 67.4138 16.3997 65.3597 15.3397 64.6127C15.0903 64.4259 15.0279 64.3015 14.7785 64.2392C14.529 64.1147 14.0926 64.0525 13.8431 64.0525C12.9078 63.8657 12.0971 63.9902 12.0971 63.9902C12.0971 63.9902 12.0348 64.4882 12.1595 65.1729C12.2219 65.4219 12.4089 65.8577 12.5336 66.1689C12.596 66.2934 12.5336 66.4179 12.6584 66.5424C12.9701 66.8536 13.0948 67.0403 13.3443 67.2893C13.8431 67.7251 14.4043 67.9741 14.9655 68.1608C15.1526 68.223 15.1526 68.1608 15.5267 68.2853C16.275 68.5343 16.9609 68.472 17.2104 68.4098C17.2104 68.223 17.2727 68.1608 17.2104 68.0363ZM30.6794 40.1495C30.617 40.8964 30.5546 42.5771 30.9288 44.2578C30.9911 44.6313 31.1782 45.2538 31.3029 45.6272C31.4276 45.9385 31.6147 45.8762 31.7394 46.1252C32.55 47.6192 33.9219 48.7396 36.5409 48.2416C36.915 48.1794 37.7256 47.9926 38.0998 47.8682C38.661 47.6814 38.4739 47.3702 39.1598 47.0589C39.1598 47.0589 39.4093 46.8722 39.1598 46.312C38.661 45.316 37.6633 43.6976 35.9796 42.2659C35.3561 41.7679 34.7949 41.0832 34.0466 40.6475C33.7348 40.4607 33.2983 40.523 33.0489 40.4607C32.4253 40.2117 31.6771 39.9627 30.9288 39.8382C30.8664 39.776 30.7417 39.9005 30.6794 40.1495ZM49.8851 38.78C49.2616 38.8423 48.7004 38.8423 48.2015 38.9668C45.9567 39.278 43.3377 40.1495 43.213 40.7719C43.0883 41.3944 42.4024 41.3944 42.0282 41.8924C41.9659 42.5149 41.4047 42.7016 41.2176 43.1374C40.2199 45.1293 40.7187 46.4987 40.6564 46.8722C40.594 47.2457 41.3423 47.3079 41.7164 47.4324C42.2776 47.6192 42.8389 47.6814 43.3377 47.7437C44.1483 47.8059 44.8343 47.6814 45.3955 47.4947C47.5156 46.7477 48.638 44.6313 49.1992 42.6394C49.5733 41.4567 49.6981 40.3362 49.7604 39.6515C49.8851 39.029 49.8851 38.78 49.8851 38.78ZM52.6288 15.8108C52.1923 15.7485 51.3193 15.8108 50.4463 16.0597C49.6981 16.2465 48.8874 16.5577 48.2015 17.0557C47.8274 17.3669 47.5156 17.6782 47.2662 18.1139C47.2038 18.1762 47.2038 18.3006 47.1414 18.3629C46.7673 19.0476 46.019 20.3548 45.9567 21.7243C45.9567 22.0977 45.7696 22.16 45.7696 22.4712C45.7073 22.907 45.7073 23.3427 45.7696 23.8407C45.832 24.8366 46.0814 25.8326 46.5802 26.953C46.705 27.202 46.8297 27.451 46.9544 27.7C47.2038 28.0735 47.4532 28.5092 47.765 28.945C48.638 30.1899 49.8851 31.4348 51.5688 32.6798C51.8182 32.8665 52.4417 33.1155 52.5665 32.742C52.6912 32.3063 53.0029 31.6838 53.1277 30.9369C53.2524 30.3766 53.003 29.8787 53.19 29.1939C53.3147 28.6337 53.6889 27.949 53.8136 27.3888C53.9383 26.953 54.0007 26.5173 54.1254 26.0816C54.1877 25.8326 54.3748 25.6458 54.4371 25.3968C54.5619 24.8989 54.4371 24.4631 54.5619 23.8407C54.6242 23.4672 54.8736 23.2182 54.936 22.7825C54.9984 22.4712 55.0607 21.8487 55.0607 21.5375C55.3101 18.7986 55.0607 16.0597 52.6288 15.8108ZM54.3124 36.7259C56.7443 41.3322 58.9892 37.9086 58.9892 37.9086C57.555 36.6014 56.6196 35.5432 55.8713 34.485C55.1854 33.5513 54.6866 32.5553 54.1877 31.3103C54.1877 31.3103 53.8136 32.6175 53.8136 34.0492C53.7512 34.9829 53.8759 35.9167 54.3124 36.7259ZM63.5412 35.2319C63.3541 35.0452 63.6035 34.6717 63.4165 34.485C62.2317 33.3645 60.9846 32.3686 60.1116 31.3726C59.9245 31.1859 59.7374 31.3104 59.6127 31.1236C58.9892 30.4389 58.428 29.6297 57.9291 29.0072C56.9314 27.7622 56.1208 26.6418 55.4349 25.5836C55.4349 25.5836 54.9984 27.2643 55.0607 29.0694C55.1231 30.2521 55.7466 31.8706 55.9337 32.4308C56.1208 32.9288 57.3679 34.2982 58.0538 34.8585C58.615 35.2942 59.1762 35.8544 59.6751 36.0412C59.9869 36.1656 60.2986 35.9167 60.6104 35.9167C61.5458 36.1034 62.4188 36.1656 62.98 35.9167C63.6659 35.6677 63.5412 35.2319 63.5412 35.2319ZM43.1506 13.8811C43.3377 13.8188 43.4624 13.8188 43.5871 13.7566C43.8989 13.6943 44.1483 13.6321 44.4601 13.5698C45.0837 13.4454 45.6449 13.6943 46.1437 13.6943C46.4555 13.6943 46.6426 13.6321 46.892 13.6943C47.0167 13.6943 47.0791 13.5698 47.1414 13.5698C47.2038 13.2586 47.3285 13.0719 47.3285 12.7606C47.3909 11.7647 47.2038 10.582 46.9544 9.58601C46.892 9.39927 46.8297 9.33703 46.7673 9.15028C46.7673 9.15028 46.6426 9.08804 46.3932 9.15028C46.2061 9.21253 46.0814 9.21253 45.832 9.33703C45.5825 9.46152 45.2708 9.71051 44.959 9.9595C44.2731 10.4575 43.6495 11.2044 43.3377 12.3249C43.2754 12.5739 43.213 12.8851 43.1506 13.1964C43.1506 13.3209 43.0883 13.4454 43.0883 13.5698C43.0259 13.6943 43.1506 13.7566 43.1506 13.8811ZM53.1277 14.6281C52.9406 14.6281 52.7535 14.8148 52.5665 14.8148C51.7558 14.877 51.0075 15.0015 50.3216 15.2505C49.6357 15.4373 49.1369 15.7485 48.7004 15.9975C48.638 15.9975 48.4509 15.9975 48.3886 15.9975C48.0768 16.1842 47.8274 16.3087 47.6403 16.4332C47.5156 16.4955 47.5779 16.4332 47.5156 16.4332C47.5156 16.371 47.5156 16.1842 47.5779 15.9975C47.6403 15.624 47.7027 15.1883 47.765 14.877C48.1391 12.5116 48.1392 10.7065 47.7027 9.39927C47.6403 9.27478 47.765 9.21253 47.7027 9.08804C47.8897 9.08804 47.9521 9.08804 48.1391 9.08804C49.8851 9.27478 51.0075 10.084 51.7558 11.0177C51.9429 11.2667 52.2547 11.5779 52.3794 11.8892C52.6288 12.3871 52.6912 12.8229 52.8159 13.2586C53.1277 14.0678 53.1277 14.6281 53.1277 14.6281ZM50.2593 10.9555C50.0722 10.7065 49.6981 10.582 49.4486 10.7687C49.1992 10.9555 49.0745 11.3289 49.2616 11.5779C49.4486 11.8269 49.8228 11.9514 50.0722 11.7647C50.384 11.5779 50.4463 11.2044 50.2593 10.9555ZM37.8503 13.0096C37.4762 12.3249 36.3538 11.08 35.7926 10.4575C35.6055 10.2085 35.2937 10.2707 35.2937 10.2707L34.9196 10.0217L33.3607 10.084H31.6147H26.8133H23.9449H23.2589C23.2589 10.084 23.1342 10.333 23.1966 10.5197C23.2589 10.6442 23.2589 10.8932 23.3213 11.08C23.5084 11.8892 23.3837 12.6361 23.3213 13.3209C23.3213 13.5698 23.5084 14.0678 23.446 14.3168C23.3213 14.877 23.0719 15.126 22.9472 15.624C22.8848 15.9352 22.7601 16.2465 22.6977 16.5577L25.6285 16.6822C25.6285 16.6822 25.8156 16.4332 26.6885 16.62C27.5615 16.7445 30.3052 16.6822 30.3052 16.6822L33.2983 16.7445C33.2983 16.7445 34.2337 16.8067 34.9196 16.7445C35.5432 16.7445 39.1598 17.0557 39.4716 16.8067C39.4716 16.8067 39.2845 15.9352 38.7857 14.8148C38.5363 14.1301 38.1621 13.5698 37.8503 13.0096ZM33.8595 38.9045C34.6078 39.2158 35.6055 39.7137 36.1044 39.9005C36.2914 39.9627 36.2914 39.6515 36.2914 39.6515C36.2914 39.6515 36.3538 39.527 36.3538 38.8423C36.3538 37.7841 36.3538 36.3524 36.2291 35.6054C36.1667 34.9829 35.4808 33.6135 33.5477 33.489C32.9242 33.489 32.4253 33.489 31.9888 33.6135C31.1158 33.8625 30.6794 34.6095 30.5546 36.1034C30.5546 36.5391 30.5546 37.1616 30.617 37.5351C30.617 37.7841 30.8664 37.9708 30.8664 37.9708C30.8664 37.9708 32.7995 38.4688 33.8595 38.9045ZM15.9632 33.5513C14.0302 33.4268 12.8454 34.3605 12.5336 38.9045C12.4713 39.6515 12.596 40.274 12.6584 41.0209C12.7207 41.5189 12.9078 42.0169 12.9078 42.0169L13.9055 42.2036L18.894 41.8924C18.894 41.8924 19.0811 38.2821 18.9563 36.1034C18.8316 35.1074 17.8963 33.738 15.9632 33.5513ZM58.615 44.5068C58.3032 44.1333 58.3656 43.6976 57.9915 43.1996C57.2432 42.2659 55.9961 41.3944 55.1854 40.274C54.9984 39.9627 54.9984 39.3403 54.7489 39.0913C54.3124 38.531 53.6889 37.9708 53.2524 37.4106C52.0052 35.7922 51.0699 34.3605 50.4463 33.489C50.3216 33.3023 50.0722 33.3645 50.0098 33.24C49.8851 33.0533 49.6981 33.489 50.0722 34.3605C50.4463 35.1697 50.5087 35.5432 50.7581 36.4769C51.0699 37.5973 51.444 38.8423 51.8805 40.2117C52.3794 41.8302 52.9406 43.5108 53.5642 45.1915C53.9383 46.1875 54.1877 47.1212 54.3748 47.9926C54.8113 49.8601 54.936 51.4785 54.936 52.7234C54.936 53.1592 55.1231 53.4704 55.1231 53.8439C55.1231 54.1551 54.8736 54.4664 54.8736 54.6531C54.8113 55.2756 54.8113 55.5246 54.936 55.4623C55.1231 55.3378 55.4348 55.0888 55.8713 54.7776C56.7443 54.0929 57.9291 53.0347 58.8021 51.7275C58.9268 51.5407 59.0515 51.2295 59.1762 50.9805C59.3009 50.7938 59.5504 50.6693 59.6127 50.4825C60.361 48.8019 60.361 46.6854 58.615 44.5068ZM63.6035 20.915L63.9153 21.2885C63.9153 21.2885 64.1024 21.413 64.1647 21.4753C64.2271 21.5998 64.5389 21.413 64.5389 21.413C64.5389 21.413 64.726 21.2885 65.1001 20.7905C65.4742 20.3548 65.8484 19.7323 66.2225 18.9854C66.4096 18.6119 66.5343 18.3629 66.659 17.9272C66.659 17.8649 66.7837 17.6159 66.7837 17.6159C66.7837 17.4914 66.7214 17.3669 66.7837 17.2424C66.8461 16.9935 66.8461 16.7445 66.8461 16.5577C66.7837 15.4373 66.5343 14.3168 66.2225 13.3831C65.786 12.1382 65.3495 11.2044 65.3495 11.2044L63.2294 13.3831C63.2294 13.3831 63.5412 13.6943 63.7906 14.3791C64.04 15.0015 64.3518 15.873 64.3518 17.1179C64.3518 17.7404 64.1647 18.7986 64.2271 19.0476C64.2895 19.3589 64.1024 19.4833 64.04 19.7323C63.853 20.4793 63.6035 20.915 63.6035 20.915ZM51.5688 69.1568C51.5688 69.0945 51.7558 68.8455 51.9429 68.472C52.3794 67.7873 53.0029 66.8536 53.1277 66.6669C53.4394 66.2934 53.6889 65.7331 53.6889 65.3597C53.6889 64.9862 53.2524 64.9239 53.19 64.5504C53.1277 64.1147 52.7535 63.2433 52.5665 63.2433C52.3794 63.2433 51.0075 65.7331 51.0075 65.7331C51.0075 65.7331 50.2593 66.9781 50.2593 67.2271C50.2593 67.4761 50.0098 67.4761 50.0098 67.7251C50.0098 67.9741 49.1369 69.4057 49.1369 69.4057C49.1369 69.4057 50.2593 69.5302 50.6334 69.468C51.0075 69.3435 51.444 69.5925 51.5688 69.1568ZM60.6104 60.6289C60.8599 60.8156 61.9199 60.4421 61.9199 60.4421C61.9199 60.4421 64.8507 60.0686 65.1625 59.9441C65.4742 59.8196 65.786 59.9441 65.8484 59.8196C65.9107 59.6951 65.8484 59.1972 65.7237 58.8859C65.599 58.5747 65.5366 57.5787 65.5366 57.5787L64.8507 57.7032C64.8507 57.7032 59.8622 58.5747 59.6127 58.6992C59.3009 58.8237 60.361 60.4421 60.6104 60.6289ZM50.571 70.5884C49.6357 70.6507 48.3262 71.0242 47.0791 71.4599C46.6426 71.5844 46.1437 71.7711 45.7073 71.8956C45.2084 72.0824 45.2084 72.1446 44.8343 72.3314C44.3978 72.5181 43.6495 72.7671 43.4624 72.8916C43.3377 72.9538 43.213 73.1406 43.213 73.1406L43.0883 74.3855L43.1506 74.8835C43.1506 74.8835 43.2754 75.0703 43.5248 74.9458C43.7742 74.8213 44.0236 74.6345 44.4601 74.4478C45.0837 74.1365 45.8943 73.8253 46.705 73.5141C47.765 73.1406 48.8874 72.7671 49.8851 72.6426C50.1969 72.5804 50.6334 72.6426 50.9452 72.6426C51.1323 72.6426 51.1323 72.5804 51.3193 72.5804C51.6311 72.6426 51.9429 72.7049 52.2547 72.7671C53.7512 73.1406 54.6242 73.7631 54.6242 73.7631L54.9984 73.7008L56.9314 72.8293L56.9938 72.7049C56.9938 72.7049 57.1808 72.5804 56.9314 72.4559C56.682 72.3314 56.1831 72.1446 55.7466 71.8956C55.2478 71.6466 54.7489 71.3977 54.1254 71.1487C52.8782 70.8997 51.6311 70.5262 50.571 70.5884ZM10.0394 33.6758L7.73219 33.6135C7.73219 33.6135 9.41582 37.6596 9.47817 41.5812C9.47817 42.3281 9.41582 43.0129 9.35346 43.6976C9.29111 44.1333 9.16639 44.569 8.97932 45.0048C8.79225 45.5028 11.4736 45.6895 11.5983 45.067C11.9101 43.0751 11.9724 39.5892 11.4736 37.1616C11.4736 37.0371 11.0994 37.0994 11.0371 36.9749C10.9747 36.6014 11.0994 36.1656 11.0371 35.8544C10.6629 34.3605 10.0394 33.6758 10.0394 33.6758ZM8.66754 40.3985L8.7299 40.1495L8.54283 38.531L8.41812 38.1576C8.41812 38.1576 8.35576 37.9708 8.10633 37.7841C7.79455 37.4728 7.23334 36.8504 6.73449 35.6677C6.54742 35.2319 6.298 34.9207 6.23564 34.5472C6.17329 34.236 6.11093 34.1737 6.04857 33.987C5.73679 33.0533 5.61208 32.4308 5.61208 32.1196C5.61208 31.9328 5.54972 31.9328 5.54972 31.9328L5.42501 31.8083L3.8661 32.0573L3.67903 32.1196C3.67903 32.1196 3.61667 32.1818 3.67903 32.3686C3.74138 32.6175 3.80374 33.0533 3.92845 33.5513C3.99081 33.6758 3.99081 33.8625 4.05317 33.987C4.11552 34.236 4.17788 34.6095 4.24024 34.8585C4.30259 34.9829 4.36495 35.0452 4.42731 35.1697C4.48966 35.4187 4.67673 35.8544 4.80144 36.1034C4.98851 36.4769 5.11323 36.7881 5.36265 37.1616C5.98622 38.2198 6.60978 38.9668 7.23334 39.527C7.2957 39.5893 7.42041 39.7137 7.48277 39.7137C7.48277 39.8382 7.66984 39.8382 7.73219 39.8382C8.04398 40.025 8.16869 40.2117 8.35576 40.274C8.60518 40.4607 8.66754 40.3985 8.66754 40.3985ZM25.6908 56.0226C25.2543 56.0226 24.8802 56.2093 24.6931 56.5205C24.5061 56.7073 24.4437 57.0185 24.4437 57.3298C24.4437 57.7655 24.6308 58.0767 24.9426 58.3257C25.192 58.5124 25.4414 58.5747 25.7532 58.5747C26.1897 58.5747 26.5638 58.3257 26.8133 58.0145C26.938 57.8277 27.0627 57.5787 27.0627 57.2675C27.0627 56.894 26.8756 56.5205 26.6262 56.2715C26.3144 56.147 26.065 56.0226 25.6908 56.0226ZM40.5317 15.8108C41.0305 18.1139 41.3423 23.5917 41.3423 23.5917L43.2754 24.4631C43.2754 24.4631 42.0282 15.126 42.0906 13.4454C42.0906 12.8229 42.4024 11.8269 42.7765 10.6442C43.1506 9.58601 43.5871 8.40331 44.0236 7.22061C44.273 6.53589 44.4601 5.78893 44.8343 5.16645C45.0837 4.85521 45.4578 3.61027 45.7073 2.98779C46.1437 1.99183 46.2685 1.30711 46.2685 1.30711L46.019 0.995877L44.5848 0.560145C44.5848 0.560145 44.2107 1.30711 44.086 1.5561C43.9613 1.86734 43.5248 2.55206 43.213 3.11229C42.8389 3.85926 42.8389 4.66847 42.4647 5.66443C42.4024 5.85117 42.2153 6.03791 42.1529 6.2869C42.0906 6.53589 42.0282 6.78488 41.9035 7.03387C41.7788 7.34511 41.7164 7.78084 41.6541 8.09208C41.467 8.59006 41.1552 9.02579 41.0305 9.52377C40.407 11.8892 40.1575 14.1923 40.5317 15.8108ZM46.1437 18.1139C46.1437 17.7404 46.0814 17.4292 46.0814 17.1179C46.0814 15.126 45.3331 14.7525 45.3331 14.7525C45.3331 14.7525 44.3354 14.8148 43.7118 15.624C43.5871 15.8108 43.4624 16.0597 43.4001 16.3087C43.4001 16.371 43.4624 16.6822 43.4001 16.9935C43.4001 17.3669 43.3377 17.8649 43.4001 18.4251C43.5871 19.4833 43.7742 20.666 43.9613 21.413C44.086 21.911 44.2731 22.0977 44.2731 22.0977C44.2731 22.0977 44.3978 21.9732 44.7095 21.5998C45.0837 21.164 45.5825 20.4171 45.832 19.3589C45.8943 19.0476 46.0814 18.6119 46.1437 18.1139ZM54.9984 13.3831C54.9984 13.3831 55.7466 11.8269 56.2455 10.0217C56.4949 9.15028 56.6196 8.27882 56.6196 7.4696C56.6196 7.34511 56.4949 7.28286 56.4326 7.15837C56.3702 6.90938 56.4326 6.66039 56.3078 6.4114C55.9961 5.78893 55.5596 5.2287 54.9984 4.66847C53.6889 3.23678 52.3794 2.30307 52.3794 2.30307C52.3794 2.30307 51.8805 4.046 52.0676 6.10016C52.0676 6.2869 51.9429 6.34915 51.9429 6.53589C52.0676 7.34511 52.3794 8.27882 52.5665 8.96354C52.7535 9.58601 53.003 10.1462 53.2524 10.582C53.5642 11.08 54.1877 12.0137 54.5619 12.6984C54.8736 13.0719 54.9984 13.3831 54.9984 13.3831ZM50.8828 8.83905C50.8828 8.83905 51.444 6.72264 51.1946 5.66443C51.1323 5.35319 51.257 4.73072 50.6958 4.23274C50.4463 3.98375 50.1346 3.61027 49.8228 3.36128C48.5756 2.30307 46.9544 1.43161 46.9544 1.43161C46.9544 1.43161 46.6426 2.11633 46.5179 3.05004C46.4555 3.67251 46.4555 4.41948 46.7673 5.16645C47.0167 5.78893 47.6403 6.47365 48.2639 7.03387C49.5733 8.02983 50.8828 8.83905 50.8828 8.83905ZM47.3909 6.59814C46.6426 5.97567 46.0814 5.66443 46.0814 5.66443C46.0814 5.66443 45.4578 6.90938 45.832 7.5941C46.2061 8.27882 47.3909 8.15433 47.3909 8.15433C47.3909 8.15433 48.2015 7.22061 47.3909 6.59814ZM21.2012 5.97567C21.2635 7.22061 21.3882 7.96758 21.3882 7.96758C21.3882 7.96758 21.7624 7.90534 22.1365 7.71859C22.6354 7.4696 23.1966 7.15837 23.3837 6.59814C23.5707 6.10016 23.3837 5.66443 23.1342 5.29095C22.8848 4.91746 22.6354 4.66847 22.6354 4.66847C22.6354 4.66847 21.1388 4.73072 21.2012 5.97567ZM57.2432 57.89C56.2455 57.5165 55.4349 57.2675 54.8113 57.0808C54.063 56.894 53.6265 56.7695 53.6265 56.7695C53.6265 56.7695 53.4394 58.2012 53.6889 59.5707C53.8136 60.2554 54.063 60.8779 54.5619 61.2513C55.0607 61.6871 55.6219 61.8116 56.2455 61.8116C57.3679 61.8116 58.428 61.3136 58.428 61.3136C58.428 61.3136 59.4257 58.6992 57.2432 57.89ZM5.23794 45.6272C5.73679 45.1915 6.17329 44.818 6.54742 44.4445C7.85691 43.1996 8.48047 42.3281 8.48047 42.3281C8.48047 42.3281 7.2957 41.5189 5.8615 41.0832C4.80144 40.7097 3.67903 40.523 2.74368 40.8342C2.18247 41.0209 1.80834 41.3322 1.49655 41.7679C0.561208 43.0129 0.623564 44.9425 0.623564 44.9425C0.623564 44.9425 0.87299 45.1915 1.30948 45.5028C2.18247 46.1252 3.80374 46.8722 5.23794 45.6272ZM33.423 49.4243C33.2983 49.2998 33.1113 49.1753 32.9865 49.1131C32.363 48.6774 31.8641 48.3039 31.5523 48.0549C31.2406 47.8059 30.9911 47.7437 30.9911 47.7437C30.9911 47.7437 30.9288 47.8681 30.8664 48.0549C30.7417 48.3039 30.617 48.7396 30.4923 49.1753C30.4299 49.4866 30.3676 49.8601 30.3676 50.1713C30.3676 50.5448 30.4299 50.9183 30.617 51.2918C30.8664 51.6652 31.1782 52.0387 31.6147 52.2877C32.4877 52.8479 33.4854 53.0969 33.4854 53.0969C33.4854 53.0969 33.5478 53.0347 33.6101 52.8479C33.7348 52.599 33.9219 52.2255 34.0466 51.7275C34.109 50.9183 34.109 49.9846 33.423 49.4243ZM32.9242 55.5868C32.9242 55.4623 32.7995 55.1511 32.55 54.8399C32.4877 54.7776 32.2383 54.4041 32.1759 54.2796C32.0512 54.0929 31.8018 53.9684 31.6147 53.7817C31.5523 53.6572 31.49 53.5949 31.3653 53.4704C31.2406 53.3459 30.9911 53.2214 30.9288 53.0969C30.617 52.7857 30.4923 52.4745 30.1805 52.1632C30.1181 52.101 29.9934 52.0387 29.9311 51.9765C29.6193 51.7275 29.3699 51.5407 29.0581 51.354C28.6216 51.0428 28.1227 50.856 27.7486 50.7938C27.4368 50.7938 27.1874 50.7938 26.938 50.7938C26.6262 50.856 26.3144 50.9183 26.0026 51.0428C25.7532 51.105 25.5661 51.2295 25.3791 51.354C25.1296 51.4785 24.9426 51.6652 24.7555 51.7897C24.5061 51.9765 24.3814 52.1632 24.3814 52.1632C24.3814 52.1632 24.5684 52.5989 24.8179 53.0347C25.0049 53.3459 25.2543 53.5327 25.5038 53.9061C25.8156 54.3419 26.1273 54.8399 26.5638 55.3378C26.8133 55.6491 27.125 55.9603 27.4368 56.2093C27.6862 56.396 27.8733 56.5828 28.1227 56.7073C28.3722 56.894 28.6216 56.9563 28.871 57.0808C28.9957 57.143 30.3676 57.3298 30.617 57.2053C30.7417 57.143 31.3029 57.0185 31.49 56.894C31.49 56.894 31.8641 56.645 31.9888 56.5828C32.1759 56.4583 32.363 56.2715 32.4877 56.147C32.6124 56.0226 32.7371 55.8981 32.8618 55.8358C32.8618 55.7113 32.8618 55.7113 32.9242 55.5868ZM32.1759 6.90938C32.7995 7.34511 33.5477 8.02983 34.1713 7.78084C34.4207 7.65635 34.8572 8.09208 35.1067 8.09208C35.2937 8.09208 35.4808 7.4696 35.4808 7.4696C35.4808 7.4696 36.042 6.97163 35.9173 6.10016C35.7926 5.16645 35.9173 4.48173 35.4184 3.23678C34.6702 1.49386 32.4877 1.30711 30.9911 1.36936C30.7417 1.36936 30.5546 1.43161 30.3676 1.43161C29.9311 1.49386 29.6193 1.5561 29.6193 1.5561C29.6193 1.5561 29.744 1.86734 29.9311 2.48981C30.2429 3.48577 30.8041 5.04196 31.4276 6.03791C31.6771 6.4114 31.9265 6.72264 32.1759 6.90938ZM30.5546 8.83905C30.5546 8.83905 30.6794 8.15433 30.4299 7.03387C30.3676 6.78488 30.1181 6.66039 29.9934 6.4114C29.8064 5.91342 30.0558 5.29095 29.6817 4.85521C29.1828 4.17049 28.1227 3.73476 27.3121 3.42352C26.6262 3.17453 25.8779 3.11229 25.3167 3.05004C24.6931 2.98779 24.2566 2.98779 24.2566 2.98779C24.2566 2.98779 24.0696 4.17049 24.1943 5.47769C24.2566 6.53589 24.5061 7.65635 25.1296 8.27882C25.3791 8.59006 25.8156 8.7768 26.252 8.90129C27.125 9.21253 27.8733 9.33703 28.8087 9.27478C28.9957 9.27478 29.4946 9.02579 29.6193 9.02579C30.2429 8.96354 30.5546 8.83905 30.5546 8.83905ZM18.8316 46.6855C19.0187 45.316 18.2704 44.569 17.2727 44.0711C16.6492 43.7598 16.0256 43.6976 15.402 43.5731C14.9655 43.5108 14.529 43.5108 14.2173 43.5108C13.7808 43.5108 13.1572 43.5108 13.1572 43.5108C13.1572 43.5108 13.469 44.0088 13.2819 44.7558C13.2196 44.9425 13.1572 45.3783 13.0948 45.6272C12.8454 46.9344 12.6584 48.3661 13.0948 49.6733C13.0948 49.7356 13.3443 49.9223 13.3443 49.9846C13.469 50.2336 13.2819 50.4203 13.469 50.607C13.5937 50.7938 13.8431 50.9183 13.9678 51.0428C14.0925 51.1673 14.4043 51.5407 14.4667 51.603C14.9032 52.101 15.215 52.4745 15.5267 52.7857C16.275 53.4082 16.5244 53.0969 16.5244 53.0969C16.5244 53.0969 16.8362 52.9102 17.148 52.2255C17.4598 51.5407 17.8339 50.5448 18.2081 49.3621C18.4575 48.5529 18.7069 47.6192 18.8316 46.6855ZM11.4112 50.358C11.4112 50.358 11.1618 50.4825 10.85 50.6693C10.5382 50.856 10.0394 51.1673 9.54053 51.603C8.85461 52.1632 8.04398 52.9724 7.35806 54.0306C6.92156 54.7154 6.54742 55.4623 6.298 56.396C5.98622 57.5165 6.42271 58.9482 7.10863 60.1931C7.2957 60.5666 7.48277 60.9401 7.66984 61.3136C7.85691 61.6248 8.10633 61.7493 8.2934 62.0606C8.91697 63.0565 9.85231 63.9902 9.85231 63.9902C9.85231 63.9902 10.2265 63.7412 10.7253 63.1188C10.85 62.9943 10.9124 62.932 11.0371 62.8075C11.0994 62.7453 11.1618 62.5585 11.2242 62.4963C11.9101 61.4381 12.596 59.7574 12.7207 57.3298C12.7831 55.8981 12.6584 54.6531 12.4713 53.7194C12.4089 53.5327 12.4089 53.3459 12.3466 53.1592C12.2219 52.6612 12.1595 52.101 12.0348 51.7275C11.9724 51.4785 11.8477 51.4163 11.7854 51.2295C11.5983 50.607 11.4736 50.358 11.4112 50.358ZM37.6009 55.1511C38.0374 54.3419 38.3492 53.5949 38.4739 52.9102C38.5986 52.1632 38.5986 51.5407 38.5363 51.0428C38.4115 50.1713 38.1621 49.6111 38.1621 49.6111C38.1621 49.6111 37.3515 49.7356 36.4785 50.2335C35.9173 50.5448 35.2937 51.0428 34.9196 51.7897C34.7325 52.101 34.6078 52.4745 34.4831 52.9102C34.4207 53.0969 34.4207 53.2214 34.3584 53.4082C34.2337 53.9684 34.109 54.5286 33.9842 54.9644C33.7972 55.7113 33.6101 56.2093 33.4854 56.5828C33.3607 56.894 33.2983 57.0808 33.2983 57.0808C33.2983 57.0808 33.3607 57.0808 33.4854 57.143C33.6101 57.2053 33.7972 57.2053 34.0466 57.2675C34.296 57.2053 34.6078 57.392 34.8572 57.2675C34.9819 57.3298 35.3561 57.2675 35.4184 57.143C35.6679 57.2675 35.8549 56.894 36.042 56.894C36.042 56.7073 36.8526 56.645 36.6656 56.4583C36.6656 56.2715 37.2268 56.1471 37.0397 56.0848C37.2268 56.0226 37.1021 55.8358 37.4138 55.6491C37.3515 55.5246 37.4762 55.3378 37.6009 55.1511ZM65.5989 63.8657C64.4765 60.5666 61.9199 61.4381 61.9199 61.4381C61.9199 61.4381 61.1716 62.3095 61.234 63.43C61.234 64.1147 61.5458 64.7994 62.4188 65.4842C63.3541 66.2311 65.4742 67.4138 65.4742 67.4138C65.4742 67.4138 66.0978 65.3597 65.5989 63.8657ZM3.80374 35.6054C3.74138 35.2942 3.61667 34.9207 3.55432 34.6717C3.30489 33.738 2.93075 33.1155 2.61897 32.6798C2.30719 32.1818 1.99541 31.9951 1.99541 31.9951C1.99541 31.9951 1.24713 32.4308 0.685921 33.4268C0.374138 33.987 0.0623564 34.7962 0.0623564 35.7299C0.0623564 35.9167 0 36.1656 0 36.4146C0 36.6636 0.0623564 36.8504 0.124713 37.0371C0.249426 37.5351 0.249426 37.9086 0.374138 38.2821C0.561208 38.7178 0.623564 39.0913 0.748277 39.3403C0.810633 39.4025 0.748277 39.527 0.87299 39.5892C1.18477 39.776 1.12242 40.1495 1.24713 40.274C1.30948 40.3985 1.49655 40.274 1.49655 40.274C1.49655 40.274 1.49655 40.3362 1.74598 40.2117C2.18247 39.9005 3.11782 39.4648 3.36725 38.6555C3.55432 38.1576 3.80374 37.7218 3.8661 37.1616C3.8661 36.9749 3.74138 36.7881 3.74138 36.5391C3.74138 36.2279 3.8661 35.9789 3.80374 35.6054ZM46.892 50.1713C46.7673 50.9805 46.7673 51.9142 46.892 52.7857C46.9544 53.4082 47.0791 54.0306 47.2662 54.5909C47.6403 56.0226 48.0144 57.0808 48.0144 57.0808C48.0144 57.0808 50.9452 56.9563 52.1923 54.5286C52.4417 54.0306 52.6288 53.4704 52.6912 52.7857C52.7535 52.4745 52.8782 51.9765 52.8782 51.6652C52.8782 51.4163 52.7535 51.354 52.8159 51.1673C52.8782 49.3621 52.6288 47.8059 52.317 46.6232C52.0676 45.6895 51.7558 44.9425 51.5688 44.4445C51.3817 44.0088 50.9452 43.5108 50.6958 44.0711C50.5711 44.5068 49.8851 44.9425 49.5733 45.2538C49.0121 45.8762 48.3262 46.6232 47.8274 47.5569C47.7027 47.8059 47.3909 48.0549 47.4532 48.3661C47.4532 48.6774 47.2662 48.6774 47.2662 48.7396C47.0167 49.2998 47.0167 49.6733 46.892 50.1713ZM72.2087 39.1535C72.5205 39.2158 72.6452 39.0913 73.1441 38.9668C73.9547 38.78 75.1395 38.78 76.0125 38.2821C76.2619 38.1576 76.5113 37.9708 76.7607 37.9708C77.0102 37.9708 77.1349 37.7218 77.2596 37.5973C78.0079 36.9126 77.0102 35.5432 75.9501 34.485C75.7007 34.236 75.5136 33.9247 75.3265 33.738C75.2642 33.6758 75.1395 33.738 75.0771 33.6758C74.5783 33.24 74.3912 33.0533 74.3912 33.0533C74.3912 33.0533 74.1418 32.9288 74.0171 32.991C73.7053 33.3023 72.8323 34.1115 72.5205 35.2319C72.3958 35.7299 72.5829 36.1034 72.5205 36.4769C72.5205 36.5391 72.2711 36.8504 72.2711 36.9126C72.1464 37.9086 72.1464 38.4688 72.084 38.78C72.1464 38.9668 72.2087 39.1535 72.2087 39.1535ZM71.211 23.7784C71.211 23.7784 71.8346 22.409 71.9593 20.7283C71.9593 20.3548 71.8346 20.4793 71.8346 20.0436C71.8346 19.7946 71.8346 19.7323 71.7722 19.4211C71.5228 18.6119 70.9616 17.6782 70.4004 16.869C70.151 16.5577 69.8392 16.1842 69.5898 15.9352C68.9662 15.2505 68.5297 14.9393 68.2803 14.7525C68.1556 14.6903 68.0932 14.6281 68.0932 14.6281C68.0932 14.6281 67.9061 14.5658 67.8438 14.7525C67.7814 14.9393 67.7814 15.375 67.7814 15.9352C67.7814 17.9894 67.8438 21.164 68.5297 22.16C69.5274 23.6539 71.211 23.7784 71.211 23.7784ZM61.9199 25.5836C61.7952 26.0193 61.7329 26.3928 61.6081 26.7663C60.8599 29.9409 61.234 30.6256 61.234 30.6256C61.234 30.6256 62.5435 31.6216 65.1625 29.2562C65.7237 28.7582 66.1601 28.198 66.8461 27.451C66.9084 27.3888 67.0955 26.953 67.1579 26.8908C67.3449 26.6418 67.4073 26.704 67.4696 26.3306C67.9685 24.2764 66.8461 20.915 66.8461 20.915C66.8461 20.915 66.4719 21.164 65.9731 21.5375C64.6636 22.5335 62.2317 24.4631 61.9199 25.5836ZM59.6127 27.0775C59.6127 27.0775 59.6751 26.8908 60.1116 26.0193C60.1739 25.8948 60.6104 25.7081 60.7351 25.5213C61.8576 23.4049 63.167 20.0436 63.0423 18.6119C62.98 17.5537 62.8553 16.5577 62.107 15.624C61.6081 14.9393 61.7328 14.7525 61.3587 14.3791C61.0469 14.0678 60.8599 14.0678 60.8599 14.0678C60.8599 14.0678 59.6751 14.6281 59.1762 15.4373C58.615 16.371 57.4926 16.869 56.9314 18.4251C56.5573 19.4833 56.3078 20.6038 56.2455 21.7865C56.1208 23.2804 56.6196 24.4009 57.2432 25.2724C57.9291 26.2061 58.6774 26.4551 58.9268 26.953C58.9892 27.1398 59.6127 27.0775 59.6127 27.0775ZM41.4047 69.0945C41.0929 69.219 40.7187 69.3435 40.594 69.5302C40.4693 69.717 40.2822 69.7792 40.1575 69.8415C39.721 70.215 39.4716 70.6507 39.3469 70.8997C39.2222 71.0864 39.2222 71.2109 39.2222 71.2109C39.2222 71.2109 39.2845 71.2732 39.4093 71.3354C39.7834 71.5222 41.0929 72.0824 41.5294 72.0201C42.0282 71.9579 42.7141 72.0201 43.2754 71.7711C43.8366 71.5844 44.7719 71.2109 45.5202 70.8997C45.832 70.7752 46.2061 70.6507 46.3308 70.5884C46.5179 70.5262 46.6426 70.4017 46.6426 70.3395C46.6426 70.2772 46.5179 70.2772 46.2685 70.1527C46.019 70.0282 45.6449 69.7792 45.2084 69.6547C44.7719 69.5302 44.5848 69.4057 44.2107 69.2812C43.6495 69.0945 43.0259 68.97 42.4647 68.9078C42.1529 68.9078 41.7788 68.97 41.4047 69.0945ZM17.9586 57.5165C17.9586 57.0185 17.8963 56.5828 17.7716 56.147C17.3351 54.9643 16.3997 54.2174 16.3997 54.2174C16.3997 54.2174 14.9655 55.0888 14.0302 56.396C13.5937 56.9563 13.2819 57.641 13.2196 58.3257C13.1572 58.6369 13.1572 58.9482 13.2196 59.3217C13.2819 60.6289 13.5937 62.185 13.5937 62.185C13.5937 62.185 13.9678 61.9361 14.4667 61.5626C14.7161 61.3758 14.9655 61.1891 15.215 60.9401C16.088 60.1931 17.148 59.2594 17.6469 58.3257C17.8339 58.139 17.9586 57.8277 17.9586 57.5165ZM51.6311 57.89C51.6311 57.89 51.0699 57.7655 50.1969 58.0767C50.0722 58.139 50.0722 58.2635 50.0098 58.3257C49.1992 58.6369 48.2015 59.0727 47.5779 59.7574C47.2662 60.1309 46.892 60.7534 46.6426 61.3136C46.5802 61.3758 46.6426 61.5003 46.5802 61.5626C46.4555 61.8116 46.2685 61.9983 46.2061 62.2473C46.019 62.683 46.1437 62.8075 46.1437 62.8075C46.1437 62.8075 46.2685 62.9943 46.7673 62.8698C47.8897 62.7453 49.9475 62.434 51.0699 61.8116C51.1946 61.7493 51.257 61.5626 51.3817 61.5003C51.5688 61.3758 51.7558 61.2513 51.8805 61.0646C52.3794 60.1931 52.2547 59.2594 52.13 58.6369C52.0676 58.5124 52.0052 58.388 51.9429 58.3257C51.7558 57.9522 51.6311 57.89 51.6311 57.89ZM28.684 73.3896C28.684 73.3896 28.7463 73.7008 28.871 74.1988C28.9957 74.51 29.1204 74.9458 29.3699 75.3192C29.6817 75.8172 30.1181 76.1907 30.7417 76.3774C30.9288 76.4397 31.1158 76.4397 31.3653 76.4397C31.6771 76.4397 32.0512 76.3774 32.363 76.253C32.7371 76.1285 33.236 75.9417 33.6101 75.6927C33.9219 75.506 34.109 75.3192 34.3584 75.1325C34.6702 74.8835 34.7949 74.8213 34.7949 74.8213C34.7949 74.8213 34.6702 74.6345 34.3584 74.4478C34.1713 74.3233 34.0466 74.1988 33.7972 74.0743C33.7348 74.0743 33.236 73.8876 33.236 73.8876C32.4877 73.5141 31.8641 73.3273 31.0535 73.2028C30.617 73.1406 29.9934 73.2028 29.5569 73.2028C29.3075 73.2028 29.1204 73.2028 28.9957 73.2028C28.8087 73.3273 28.684 73.3896 28.684 73.3896ZM28.5592 48.7396C28.5592 49.2998 28.4345 49.5488 28.4345 49.5488H27.9357L24.4437 49.7356L20.8894 49.6111C20.8894 49.6111 20.827 48.5529 20.827 47.1834C20.827 46.4365 20.7647 45.2538 20.7023 44.3823C20.7023 44.0711 20.827 44.1956 20.827 43.8843C20.827 43.3241 20.7023 42.7639 20.7023 42.2036C20.64 40.5852 20.64 39.2158 20.7023 38.78C21.0141 34.236 22.2612 33.738 24.1943 33.5513C26.7509 33.3645 28.2475 34.4227 28.4345 36.9749C28.4969 37.8463 28.4969 39.9005 28.4969 42.1414C28.4969 43.0129 28.4969 43.8843 28.4345 44.6935C28.4345 44.9425 28.3722 45.4405 28.3722 45.6895C28.3722 46.063 28.5592 46.6232 28.5592 46.9967C28.5592 47.8681 28.5592 48.1794 28.5592 48.7396ZM23.446 42.7639C23.446 42.3904 23.1342 42.0169 22.6977 42.0169C22.3236 42.0169 21.9495 42.3281 21.9495 42.7639C21.9495 43.1373 22.2612 43.5108 22.6977 43.5108C23.1342 43.5108 23.446 43.1373 23.446 42.7639ZM68.5297 39.8382C68.5297 39.8382 67.5944 39.8382 67.3449 39.9005C66.3472 40.1495 64.2895 40.9587 63.0423 42.4526C62.9176 42.6394 62.6682 42.7639 62.6058 43.0129C62.2317 43.7598 61.9823 44.6935 61.7328 45.6895C61.2964 47.5569 61.1716 49.6733 61.8576 51.6652C62.9176 54.7154 63.6659 55.8358 63.6659 55.8358C63.6659 55.8358 64.6012 55.7113 65.8484 55.3378C65.9731 55.2756 66.0354 55.1511 66.1602 55.1511C66.5343 55.0266 66.9708 55.0266 67.3449 54.9021C67.6567 54.7776 67.7814 54.5909 68.0932 54.4664C68.3426 54.3419 68.6544 54.4041 68.9662 54.2174C69.278 53.9684 69.7145 53.8439 70.0263 53.6572C70.7122 53.2837 71.2734 52.7857 71.7722 52.2877C71.8969 52.1632 72.0217 52.0387 72.1464 51.9142C72.3334 51.6652 72.5205 51.4162 72.6452 51.1673C72.8946 50.7315 73.1441 50.4825 73.3311 50.1091C73.5182 49.7356 73.5806 48.9886 73.7053 48.6151C74.5159 46.4365 74.3288 45.3783 73.5182 43.8221C72.5829 41.6434 71.4604 39.8382 68.5297 39.8382ZM62.7929 41.2077C62.9176 41.1454 63.167 41.0209 63.4165 40.8964C63.7283 40.7097 64.1024 40.4607 64.4142 40.274C64.9754 39.9005 65.4119 39.5892 65.4119 39.5892C65.4119 39.5892 64.9754 38.7178 64.1024 38.2198C63.7906 38.0331 63.4165 37.9086 63.0423 37.7841C62.1693 37.6596 61.3587 37.6596 60.6104 38.0953C60.2986 38.2821 59.9869 38.4688 59.6751 38.78C59.4257 39.0913 59.1762 39.5893 58.9268 40.025C58.6774 40.5852 58.7397 41.3944 58.9892 42.1414C59.0515 42.4526 59.1139 42.7016 59.1762 42.9506C59.3633 43.4486 59.488 43.5731 59.488 43.5731C59.488 43.5731 59.7998 43.6976 59.8622 43.5731C59.9869 43.3863 60.1116 43.0751 60.361 42.7639C60.9846 42.2036 61.7328 41.5189 62.7929 41.2077ZM72.5829 40.7719C73.4559 41.7679 73.9547 42.7016 74.3288 43.7598C74.3288 43.7598 75.6383 43.8843 76.5113 47.6814C76.5113 47.6814 78.1949 43.9466 77.3843 42.2659C75.8254 39.278 73.6429 39.5892 72.5829 40.7719ZM62.4811 55.0888C62.4811 55.0266 62.107 54.3419 62.107 54.3419L61.8576 53.7817L61.5458 53.1592C61.5458 53.1592 61.4834 52.9724 61.4211 52.8479C61.2964 52.7234 61.234 52.4745 61.234 52.4745L60.9222 51.7897L60.8599 51.603C60.8599 51.603 60.7975 51.603 60.7351 51.603C60.6728 51.6652 60.4857 51.7275 60.2986 51.852C59.9869 52.0387 59.6127 52.2877 59.2386 52.5989C59.1139 52.6612 58.9892 52.7857 58.9268 52.9102C58.8021 53.0347 58.6774 53.1592 58.5527 53.2837C58.3656 53.4704 58.2409 53.6572 58.1162 53.9061C58.1162 53.9061 58.1162 53.9684 58.1162 54.0306C58.0538 54.1551 57.9915 54.2796 57.9291 54.4041C57.6173 55.2133 57.6173 56.0848 57.742 56.7073C57.8668 57.3298 58.0538 57.7032 58.0538 57.7032C58.0538 57.7032 58.2409 57.641 58.4903 57.392C58.615 57.2675 59.1762 56.8318 59.8622 56.396C59.9869 56.3338 60.1116 56.2715 60.2363 56.2093C60.361 56.1471 60.6104 55.9603 60.7351 55.8981C61.1716 55.7113 61.5458 55.5246 61.9199 55.4001C61.9823 55.3378 62.0446 55.4001 62.1693 55.3378C62.2941 55.2756 62.4811 55.1511 62.4811 55.0888ZM70.4004 39.6515C70.4004 39.6515 70.0886 39.4648 69.2156 39.3403C68.3426 39.1535 67.1579 39.2158 67.1579 39.2158C67.1579 38.8423 66.9708 38.4688 66.659 38.0953C66.2225 37.5351 65.599 36.9749 65.3495 36.4769C64.913 35.6677 65.0377 34.9829 65.3495 34.485C65.6613 33.987 66.2225 33.6135 66.7214 33.3023C66.8461 33.24 66.9708 33.1778 67.0331 33.1155C68.0932 32.5553 69.9015 33.0533 70.5251 34.7962C71.3357 36.7881 70.4004 39.6515 70.4004 39.6515ZM67.3449 34.9829C67.3449 34.6717 67.0955 34.4227 66.7837 34.3605C66.4719 34.3605 66.2225 34.6095 66.1602 34.9207C66.1602 35.2319 66.4096 35.4809 66.7214 35.5432C67.0331 35.5432 67.3449 35.2942 67.3449 34.9829ZM66.7214 64.0525C66.659 64.2392 67.0955 64.0525 67.6567 63.679C67.9685 63.43 68.3426 63.1188 68.7791 62.683C69.465 61.9361 70.2133 61.0023 70.6498 60.0064C70.7745 59.7574 70.7122 59.5084 70.7745 59.3217C70.8992 59.0104 71.024 58.9482 71.0863 58.5747C71.1487 58.2012 71.2734 57.5787 71.3357 57.2053C71.3981 57.0185 71.4604 56.8318 71.4604 56.645C71.5852 55.8358 71.5852 55.1511 71.5852 54.7154C71.5852 54.4664 71.4604 54.4041 71.4604 54.4041L71.1487 54.4664L66.9084 55.7113L66.5966 55.8358C66.5966 55.8358 66.4096 55.9603 66.4719 56.147C66.5966 56.4583 66.7214 57.0808 66.8461 57.9522C66.8461 58.0767 66.9084 58.2012 66.9708 58.3257C66.9708 58.4502 66.8461 58.7614 66.8461 58.8859C66.9084 59.3217 66.9084 59.6329 66.9084 60.1931C66.9084 60.6911 66.9708 61.2513 66.9084 61.7493C66.9708 62.434 66.8461 63.2433 66.7214 64.0525ZM50.4463 63.8657C50.384 63.9902 50.3216 63.9902 50.2593 64.177C50.1969 64.3015 50.1969 64.4259 50.1969 64.4882C50.1346 64.6127 50.0722 65.0484 50.0098 65.1729C49.8851 65.4219 49.8228 65.3597 49.6357 65.6087C49.5733 65.7331 49.4486 65.9199 49.3239 65.9821C48.9498 66.3556 47.4532 67.4761 47.3285 67.5383C47.0167 67.6006 46.7673 67.7251 46.5179 67.8496C46.1437 67.9741 43.5871 68.2853 43.3377 68.2853C43.0259 68.2853 42.9012 68.223 42.5894 68.1608C42.1529 68.0985 41.6541 68.0363 41.1552 67.9118C41.0929 67.9118 40.9682 67.8496 40.9058 67.8496C40.7811 67.9741 40.6564 68.0363 40.5317 68.0985C40.3446 68.223 40.2199 68.3475 40.0328 68.472C39.7834 68.6588 39.534 68.7833 39.2845 68.9078C38.7233 69.219 38.1621 69.468 37.6009 69.717C37.4138 69.7792 37.0397 69.7792 36.8526 69.8415C36.7279 69.9037 36.8526 70.0282 36.6656 70.0905C36.1044 70.2772 35.7302 70.5884 35.169 70.7129C34.7325 70.8374 34.1713 70.7752 33.7348 70.8997C33.0489 71.0242 32.2383 71.0242 31.6147 71.0864C31.1782 71.1487 30.617 71.3354 30.2429 71.3354C29.1204 71.3977 28.4345 71.2732 27.6862 71.2109C27.6239 71.0864 27.4368 70.8374 27.2498 70.5262C26.8756 69.8415 26.3144 68.9078 25.7532 68.4098C25.2543 67.9118 24.7555 67.5383 24.319 67.2271C24.1319 67.1026 24.0072 67.0403 23.8202 66.9158C23.3213 66.6669 22.8848 66.4801 22.4483 66.3556C21.8247 66.1689 21.2012 66.1689 20.64 66.2311C20.2658 66.2934 19.8917 66.4179 19.5799 66.5424C19.5176 66.4801 19.3928 66.4179 19.3305 66.3556C18.8316 65.9821 18.3951 65.6087 18.021 65.2974C17.7716 65.0484 17.6469 64.8617 17.4598 64.6749C17.3974 64.6127 17.2727 64.5504 17.2104 64.4882C16.7115 63.8657 16.3374 63.2433 16.088 62.683C16.0256 62.434 16.0256 62.2473 15.9632 62.0606C15.9632 61.9361 16.088 61.8738 16.2127 61.9361C17.0857 62.3718 17.8963 62.683 18.8316 62.8698C25.2543 64.1147 26.1273 62.8075 26.1273 62.8075C26.1273 62.8075 18.021 63.1188 16.275 61.0023C16.275 61.0023 16.2127 60.8779 16.3374 60.7534C16.3997 60.6911 16.6492 60.2554 17.2104 60.0686C17.5222 59.9441 18.021 59.8196 18.5199 59.7574C18.8316 59.6952 18.9564 59.6329 19.3928 59.6952C19.6423 59.6952 20.0164 59.7574 20.2658 59.8196C20.3905 59.8196 20.4529 59.8196 20.5776 59.8196C20.64 59.8196 20.7647 59.8819 20.827 59.8819C20.9518 59.8819 20.9518 59.8819 21.0765 59.9441C22.1365 60.0686 23.0719 60.0686 24.1943 60.1309C24.319 60.1309 24.4437 60.1931 24.5684 60.1309C24.6931 60.0686 25.7532 60.1309 26.3768 60.1309C26.8756 60.1309 27.4992 60.0686 27.998 60.0064C28.3098 60.0064 28.6216 59.9441 28.871 59.9441C29.6193 59.8819 30.1181 59.7574 30.8664 59.6329C31.1159 59.5707 31.5523 59.5707 31.7394 59.5707C31.9265 59.5707 32.1759 59.5707 32.363 59.5084C32.4877 59.5084 32.6124 59.3217 32.7371 59.3217C33.6101 59.1349 34.3584 59.0104 35.1067 58.8237C35.5432 58.6992 35.9173 58.5747 36.2914 58.4502C37.2891 58.0767 38.0998 57.7032 38.661 57.2053C38.848 57.0808 38.9104 56.9563 39.0351 56.7695C39.1598 56.645 39.5963 56.3338 39.6587 56.147C39.8457 55.7736 39.9081 55.5246 40.0328 55.1511C41.0305 52.9724 41.0305 51.4163 40.1575 48.7396C40.1575 48.7396 40.1575 47.7437 41.5294 48.7396C42.9012 49.6733 46.5802 53.7817 45.7073 59.9441L45.6449 60.1931C45.6449 60.2554 45.5825 60.3799 45.5825 60.4421C45.5825 60.5666 45.3331 61.2513 45.2084 61.6248C45.146 61.8116 45.0837 62.0606 44.959 62.2473C44.8343 62.5585 44.7095 62.8698 44.5848 63.181C44.4601 63.43 44.3978 63.679 44.2731 63.928C44.2107 63.9902 44.1483 64.0525 44.086 64.177C44.086 64.177 44.086 64.2392 44.086 64.3015C43.9613 64.4882 43.8366 64.6749 43.7118 64.8617C44.1483 64.6127 44.7719 64.3637 45.4578 64.177C45.832 64.0525 46.2061 63.9902 46.5802 63.8657C47.5156 63.679 48.5756 63.5545 49.8228 63.4922C50.0098 63.4922 50.3216 63.4922 50.3216 63.5545C50.5087 63.3677 50.5711 63.6167 50.4463 63.8657ZM29.9311 61.9983C29.2452 61.9983 29.3075 62.6208 29.3075 62.6208C29.3075 62.6208 29.2452 63.2433 29.9311 63.2433C30.5546 63.2433 30.5546 62.683 30.5546 62.683C30.5546 62.683 30.617 61.9983 29.9311 61.9983ZM24.4437 69.0323C24.3814 69.0323 24.3814 68.9078 24.319 68.8455C22.5107 67.3516 20.4529 67.2893 19.6423 67.2893C19.4552 67.2893 19.3305 67.2893 19.3305 67.2893C19.3305 67.2893 19.3305 67.3516 19.3305 67.4761C19.3305 67.7251 19.3928 68.1608 19.4552 68.721C19.4552 68.7833 19.5176 68.9078 19.5176 68.97C19.5176 69.0323 19.5176 69.0945 19.5176 69.1568C19.5799 69.4057 19.6423 69.5302 19.7046 69.7792C20.0788 71.1487 20.7023 72.8293 22.0118 74.012C22.573 74.5723 23.5707 74.9458 24.5061 75.1325C24.8802 75.1947 25.1296 75.3192 25.5038 75.3815C26.0026 75.4437 26.5015 75.506 26.7509 75.506C26.8756 75.506 26.938 75.3815 26.8756 75.1325C26.8756 75.008 26.7509 74.8213 26.7509 74.6345C26.7509 74.5723 26.8133 74.51 26.8133 74.4478C26.7509 74.012 26.6885 73.5141 26.5638 73.0161C26.5638 72.9538 26.5015 72.8294 26.5015 72.7671C26.4391 72.5804 26.3768 72.3936 26.3768 72.2069C26.065 71.1487 25.5661 70.0282 24.7555 69.219C24.6931 69.1568 24.5684 69.1568 24.4437 69.0323ZM47.3909 36.1034C46.2685 36.1656 44.0236 36.8504 44.0236 36.8504L44.1483 38.531C44.1483 38.531 46.2061 37.9708 47.3285 37.9086C48.8251 37.7841 49.8228 37.6596 49.8228 37.6596L49.5733 36.1656C49.5733 36.1656 48.4509 36.0411 47.3909 36.1034ZM4.05317 25.1479C3.30489 25.6458 2.74368 26.3306 2.24483 27.0153C1.37184 28.3847 0.997703 29.7542 0.997703 29.7542C0.997703 29.7542 2.93075 30.8124 5.23794 30.3766C5.36265 30.3766 5.42501 30.2521 5.54972 30.1899C5.67443 30.1276 5.98622 30.1899 6.17328 30.1277C6.36035 30.0654 6.54742 29.8164 6.73449 29.7542C7.35806 29.6297 7.7322 29.1939 8.23105 28.7582C8.91697 28.1357 9.47817 27.3888 9.97703 26.6418C10.0394 26.5173 10.1641 26.3928 10.2265 26.2683C10.2888 26.2061 10.2888 26.1438 10.3512 26.0193C10.6629 25.4591 10.9124 24.9611 11.0994 24.5254C11.2242 24.2764 11.2865 24.1519 11.3489 23.9652C11.4112 23.7784 11.2242 23.6539 11.0371 23.6539C10.9747 23.6539 10.9124 23.7784 10.7877 23.7784C10.6629 23.7784 10.4759 23.6539 10.2888 23.6539C9.04168 23.7162 6.92156 23.9029 5.23794 24.4631C4.8638 24.7121 4.42731 24.8989 4.05317 25.1479ZM11.6606 15.624C11.6606 15.624 12.1595 14.8148 12.2219 14.6281C12.2842 14.3791 12.4089 14.2546 12.4089 14.2546C12.4089 14.2546 12.4089 13.9433 12.5336 13.9433C12.6584 13.9433 12.9701 13.9433 12.9701 13.9433L14.7785 14.1923C14.7785 14.1923 14.9032 14.6903 14.9032 14.9393C14.9032 15.0015 14.9655 15.1883 14.9655 15.375C14.9655 15.4373 14.9032 15.5618 14.9032 15.624C14.9655 16.0597 15.1526 16.4332 15.1526 16.4332L20.2658 16.62L20.5153 16.4955H21.5753C21.5753 16.4955 21.8247 16.3087 21.2635 15.873C21.0765 15.7485 20.5153 15.5618 20.2658 15.375C19.6423 14.9393 18.8316 14.3791 17.9586 13.6943C17.7716 13.5076 17.5222 13.3831 17.3351 13.1964C16.7739 12.7606 15.1526 10.5197 15.1526 10.5197L12.6584 10.4575C12.6584 10.4575 12.4089 10.582 12.0971 10.8932C11.5983 11.2667 10.9124 11.8892 10.3512 12.5116C10.0394 12.8851 9.78996 13.2586 9.47817 13.6321C9.04168 14.2546 8.66754 14.877 8.35576 15.3128C8.2934 15.4373 8.10633 15.4995 7.98162 15.624C7.66984 15.9975 7.79455 16.1842 7.79455 16.1842H8.66754L10.3512 16.3087L11.3489 16.122L11.6606 15.624ZM13.1572 14.6903C13.1572 14.6903 12.9701 15.126 12.7207 15.7485C12.6584 15.873 12.5336 15.9352 12.4713 16.0597C12.2842 16.5577 12.0348 17.2424 11.723 17.9894C11.5359 18.4251 11.2865 18.9231 10.9747 19.4211C10.7877 19.7323 10.5382 20.0436 10.3512 20.3548C10.2888 20.4793 10.2265 20.6038 10.1017 20.7283C9.35346 21.911 8.60518 22.8447 8.60518 22.8447H10.1641C10.1641 22.8447 10.6006 22.4712 11.0371 21.7243C11.0994 21.5998 11.1618 21.2885 11.2865 21.164C11.3489 21.0395 11.5359 20.915 11.5983 20.7905C11.9724 20.1681 12.3466 19.4211 12.596 18.8609C13.0325 18.1139 13.2819 17.4292 13.469 16.8067C13.5313 16.5577 13.7184 16.2465 13.7808 16.0597C13.8431 15.7485 13.7184 15.624 13.7808 15.4373C13.8431 15.0015 13.9055 14.8148 13.9055 14.8148L13.1572 14.6903ZM37.4762 28.3847C37.4762 27.5755 37.5386 26.5173 37.5386 25.4591C37.4762 25.3968 37.6633 24.8366 37.5386 24.7121C37.4762 24.6499 36.7279 24.8366 36.6032 24.7744C36.2291 24.5876 36.3538 24.1519 36.2291 23.8407C36.042 23.4049 36.2914 21.0395 36.3538 20.915C36.3538 20.8528 36.6032 20.0436 36.7279 19.4211C36.2291 18.8609 35.6679 18.4874 34.6078 18.3629C32.6748 18.2384 31.2406 18.9854 31.1159 23.5917C31.0535 24.4631 31.0535 25.2724 30.9911 25.9571C30.9288 26.8908 30.8664 27.7 30.8664 28.3847H28.5592C28.5592 27.7622 28.4969 26.7663 28.4969 25.9571C28.4969 25.5836 28.684 25.7081 28.684 25.3968C28.684 23.8407 28.6216 22.0977 28.5592 21.2885C28.4969 20.2303 27.5615 18.8609 25.6285 18.7364C24.0696 18.6119 22.6354 19.1721 22.1365 21.7865C22.0742 22.16 22.2612 22.5335 22.2612 22.9692C22.2612 23.2804 22.1365 23.5917 22.1365 23.9652C22.0742 25.8948 22.0118 27.3888 21.8871 28.447H18.8316C18.8316 27.5133 18.894 26.3306 18.894 25.2101C18.894 24.0897 18.9564 22.907 18.894 22.0977C18.894 21.7865 19.0187 21.7243 18.9563 21.4753C18.894 20.4171 17.7716 18.9231 15.8385 18.7364C13.9055 18.6119 12.4713 19.3589 12.3466 23.9652C12.2842 25.8326 12.2219 27.3265 12.0971 28.3847C12.0971 28.3847 10.4759 28.3225 10.1641 28.3847C10.0394 28.3847 10.0394 28.9449 10.0394 29.5674C10.0394 29.7542 10.2265 29.8164 10.2265 30.0032C10.2888 30.9991 10.1641 32.1196 10.1641 32.1196H15.9632H21.5753C21.5753 32.1196 22.4483 32.3063 22.7601 32.2441C23.0719 32.1818 23.1342 32.1196 23.1342 32.1196C23.1342 32.1196 25.0049 32.2441 25.3167 32.1818C25.6908 32.1196 26.3768 31.9951 26.3768 31.9951L33.5477 32.1196C33.5477 32.1196 33.6725 32.0573 34.3584 31.9951C34.9819 31.8706 36.5409 32.0573 36.5409 32.0573H39.4093V28.6337L37.4762 28.3847ZM39.6587 21.2263C39.721 20.9773 39.721 20.7283 39.7834 20.5416C39.9081 19.8568 39.8457 19.3589 39.7834 18.9854C39.721 18.5496 39.5963 18.3629 39.5963 18.3629C39.5963 18.3629 38.9728 18.4251 38.2868 18.8609C37.9127 19.1099 37.4762 19.5456 37.2268 20.1058C37.1644 20.2303 37.0397 20.4171 36.9774 20.5416C36.915 20.7283 36.915 20.8528 36.8526 20.9773C36.7903 21.2885 36.7279 21.5998 36.7279 21.911C36.7279 22.2222 36.7279 22.4712 36.7279 22.658C36.7279 22.7202 36.6656 22.7825 36.7279 22.8447C36.8526 23.0937 36.7279 23.2804 36.7279 23.4049C36.7279 23.4672 36.915 23.4672 36.915 23.4672C36.915 23.4672 36.915 23.5294 37.1021 23.4672C37.4762 23.4049 38.0374 23.2804 38.4115 22.8447C38.661 22.5957 38.9728 22.3467 39.1598 22.0355C39.2222 21.911 39.2222 21.7865 39.2845 21.662C39.4716 21.662 39.5963 21.4753 39.6587 21.2263Z" fill="url(#paint0_linear)"/>
</g>
<defs>
<linearGradient id="paint0_linear" x1="5.40599" y1="19.578" x2="71.8153" y2="57.9866" gradientUnits="userSpaceOnUse">
<stop stop-color="#8DBE22"/>
<stop offset="0.2933" stop-color="#72B22C"/>
<stop offset="0.7415" stop-color="#4BA434"/>
<stop offset="1" stop-color="#399F37"/>
</linearGradient>
<clipPath id="clip0">
<rect width="190" height="77" fill="white"/>
</clipPath>
</defs>
</svg>
